<svg width="12" height="12" viewBox="0 0 12 12" fill="none" xmlns="http://www.w3.org/2000/svg">
<path d="M11.5 1.5H6.5V2.5H11.5C11.776 2.5 12 2.276 12 2C12 1.724 11.776 1.5 11.5 1.5Z" fill="#9D7546"/>
<path d="M0.5 2.5H1.571C1.7945 3.36 2.571 4 3.5 4C4.603 4 5.5 3.103 5.5 2C5.5 0.897 4.603 0 3.5 0C2.571 0 1.7945 0.64 1.571 1.5H0.5C0.224 1.5 0 1.724 0 2C0 2.276 0.224 2.5 0.5 2.5Z" fill="#9D7546"/>
<path d="M11.5 5.5H10.5V6.5H11.5C11.776 6.5 12 6.276 12 6C12 5.724 11.776 5.5 11.5 5.5Z" fill="#9D7546"/>
<path d="M0.5 6.5H5.571C5.7945 7.36 6.571 8 7.5 8C8.603 8 9.5 7.103 9.5 6C9.5 4.897 8.603 4 7.5 4C6.571 4 5.7945 4.64 5.571 5.5H0.5C0.224 5.5 0 5.724 0 6C0 6.276 0.224 6.5 0.5 6.5Z" fill="#9D7546"/>
<path d="M11.5 9.5H6.5V10.5H11.5C11.776 10.5 12 10.276 12 10C12 9.724 11.776 9.5 11.5 9.5Z" fill="#9D7546"/>
<path d="M3.5 8C2.571 8 1.7945 8.64 1.571 9.5H0.5C0.224 9.5 0 9.724 0 10C0 10.276 0.224 10.5 0.5 10.5H1.571C1.7945 11.36 2.571 12 3.5 12C4.603 12 5.5 11.103 5.5 10C5.5 8.897 4.603 8 3.5 8Z" fill="#9D7546"/>
</svg>
