<svg width="14" height="9" viewBox="0 0 14 9" fill="none" xmlns="http://www.w3.org/2000/svg">
<path d="M0.562501 3.9375L12.9375 3.9375C13.248 3.9375 13.5 4.18894 13.5 4.5C13.5 4.81106 13.248 5.0625 12.9375 5.0625L0.562501 5.0625C0.252001 5.0625 8.04663e-07 4.81106 8.04663e-07 4.5C8.04663e-07 4.18894 0.252001 3.9375 0.562501 3.9375Z" fill="#9D7546"/>
<path d="M0.562501 7.875L12.9375 7.875C13.248 7.875 13.5 8.12644 13.5 8.4375C13.5 8.74856 13.248 9 12.9375 9L0.562501 9C0.252001 9 8.04663e-07 8.74856 8.04663e-07 8.4375C8.04663e-07 8.12644 0.252001 7.875 0.562501 7.875Z" fill="#9D7546"/>
<path d="M6.75 -5.21541e-08L12.9375 -5.21541e-08C13.248 -5.21541e-08 13.5 0.251437 13.5 0.5625C13.5 0.873562 13.248 1.125 12.9375 1.125L6.75 1.125C6.4395 1.125 6.1875 0.873562 6.1875 0.5625C6.1875 0.251437 6.4395 -5.21541e-08 6.75 -5.21541e-08Z" fill="#9D7546"/>
</svg>
