<svg width="16" height="10" viewBox="0 0 16 10" fill="none" xmlns="http://www.w3.org/2000/svg">
<path d="M7.54565 1.00231C7.52462 1.00453 7.45711 1.01227 7.39624 1.01781C6.53075 1.10856 5.67854 1.4749 4.9835 2.05706C4.85512 2.1633 4.56293 2.45549 4.45668 2.58387C3.88117 3.27117 3.54471 4.04258 3.42075 4.95566C3.39308 5.1582 3.39308 5.84218 3.42075 6.04471C3.54471 6.95779 3.88117 7.7292 4.45668 8.4165C4.56293 8.54489 4.85512 8.83707 4.9835 8.94332C5.6708 9.51884 6.44221 9.85529 7.35529 9.97925C7.55782 10.0069 8.2418 10.0069 8.44434 9.97925C9.35742 9.85529 10.1288 9.51884 10.8161 8.94332C10.9445 8.83707 11.2367 8.54489 11.3429 8.4165C11.9185 7.7292 12.2549 6.95779 12.3789 6.04471C12.4065 5.84218 12.4065 5.1582 12.3789 4.95566C12.2549 4.04258 11.9185 3.27117 11.3429 2.58387C11.2367 2.45549 10.9445 2.1633 10.8161 2.05706C10.131 1.48375 9.35188 1.14287 8.45098 1.02224C8.35359 1.00895 8.21192 1.00342 7.94962 1.00121C7.74929 0.998993 7.56668 1.0001 7.54565 1.00231ZM7.60099 1.48043C7.60099 1.60993 7.60984 1.89104 7.62202 2.15777C7.62866 2.28837 7.6364 2.47541 7.63972 2.57281C7.6519 2.91812 7.68842 3.82455 7.69396 3.90535L7.69949 3.98614L7.64969 3.98061C7.62202 3.97839 7.59656 3.97175 7.59213 3.96843C7.58881 3.964 7.58107 3.88764 7.57664 3.79799C7.55672 3.40398 7.49142 1.87555 7.48478 1.65198L7.47814 1.40628L7.50913 1.40185C7.52573 1.39964 7.5534 1.39632 7.57111 1.39521L7.60099 1.39411V1.48043ZM8.66016 1.45387C8.66126 1.45498 8.66458 1.78922 8.6679 2.19651C8.67233 2.6049 8.67787 2.97124 8.68119 3.01108C8.68451 3.05203 8.6834 3.08745 8.67787 3.08966C8.67344 3.09298 8.64577 3.09298 8.6181 3.08966L8.56719 3.08524L8.55944 2.76317C8.55502 2.58498 8.54948 2.38798 8.54727 2.32379C8.53841 2.12789 8.53067 1.46273 8.53731 1.44612C8.54173 1.43395 8.55391 1.43284 8.60039 1.44059C8.63249 1.44723 8.65905 1.45276 8.66016 1.45387ZM6.10022 1.82464C6.10686 1.8346 6.15888 2.44442 6.22307 3.2424C6.2441 3.51355 6.26513 3.76147 6.26845 3.79246C6.27398 3.8489 6.27288 3.85111 6.23746 3.87325C6.21754 3.88542 6.19762 3.89539 6.19319 3.89539C6.18987 3.89539 6.18323 3.86661 6.17991 3.83119C6.16441 3.68731 6.10465 2.99227 6.06259 2.4898C6.03824 2.19429 6.01611 1.92978 6.01279 1.901C6.00725 1.85231 6.00836 1.84788 6.03714 1.83238C6.07255 1.81357 6.09247 1.81025 6.10022 1.82464ZM9.14713 2.0471C9.17812 2.05816 9.18144 2.0637 9.18808 2.12678C9.19915 2.23746 9.19583 2.76649 9.18366 2.76649C9.15156 2.76649 9.08515 2.72886 9.07962 2.70783C9.0763 2.69455 9.07298 2.53739 9.07298 2.3592C9.07298 1.9995 9.06855 2.02053 9.14713 2.0471ZM7.10295 2.09911C7.10295 2.129 7.11069 2.2939 7.11955 2.46766C7.1284 2.64143 7.13836 2.86167 7.14279 2.95685C7.15054 3.14943 7.15275 3.14279 7.0786 3.14722C7.04207 3.14832 7.04207 3.14832 7.03986 3.09298C7.03765 3.06199 7.03211 2.96571 7.02547 2.87717C7.01994 2.78863 7.00666 2.59716 6.9978 2.45106C6.98895 2.30497 6.97788 2.15999 6.97456 2.129C6.96792 2.07366 6.96903 2.07144 6.99891 2.06038C7.01662 2.05374 7.04761 2.0482 7.06753 2.0482C7.10295 2.0471 7.10295 2.0471 7.10295 2.09911ZM10.1731 2.25074L10.2107 2.26623L10.2185 2.41454C10.2218 2.49533 10.224 2.6702 10.2218 2.80191L10.2185 3.04318L10.172 3.01994L10.1255 2.9978L10.1222 2.63036C10.12 2.42782 10.1211 2.25627 10.1233 2.24853C10.1277 2.23192 10.1277 2.23192 10.1731 2.25074ZM8.15215 2.39572C8.1588 2.40237 8.17429 2.93914 8.1754 3.21141L8.1765 3.37521L8.12449 3.36746C8.0946 3.36414 8.07025 3.36082 8.06915 3.35971C8.06583 3.3575 8.03262 2.53739 8.03262 2.4577V2.3758L8.08907 2.38244C8.12117 2.38687 8.14883 2.3924 8.15215 2.39572ZM10.701 2.47431C10.7143 2.4898 10.7165 2.73218 10.7198 4.06915C10.7232 5.60422 10.7232 5.64407 10.7032 5.64407C10.6911 5.64407 10.6745 5.63743 10.6645 5.62968C10.6479 5.6175 10.6457 5.48359 10.6402 4.17208C10.6357 3.37742 10.6302 2.65581 10.6269 2.56838L10.6202 2.40901L10.6523 2.43225C10.6711 2.44553 10.6922 2.46434 10.701 2.47431ZM9.70826 2.70119C9.71379 2.70562 9.71933 2.7687 9.72043 2.84064C9.72597 3.08524 9.72708 4.5849 9.72154 4.58932C9.71933 4.59154 9.69941 4.586 9.67727 4.57715L9.63743 4.56055V3.6187V2.67795L9.66842 2.68459C9.68502 2.68902 9.70273 2.69566 9.70826 2.70119ZM6.6536 2.76317C6.65692 2.79305 6.66246 2.86056 6.66578 2.9159C6.6691 2.97013 6.67684 3.09409 6.68348 3.19038C6.69676 3.38517 6.69455 3.39734 6.63147 3.39734C6.59826 3.39734 6.59384 3.39402 6.58941 3.36082C6.57834 3.29552 6.5396 2.751 6.54514 2.74214C6.55067 2.73439 6.60822 2.71447 6.63479 2.71226C6.64143 2.71115 6.65028 2.73439 6.6536 2.76317ZM4.82302 3.04539C4.83519 3.16271 4.85954 3.40841 4.87725 3.59103C4.89607 3.77364 4.91156 3.92859 4.91156 3.93523C4.91156 3.94851 4.82634 3.99057 4.81749 3.98171C4.81195 3.97618 4.70128 2.9967 4.70128 2.95243C4.70128 2.92586 4.7865 2.81408 4.79756 2.82625C4.80088 2.82847 4.81195 2.92697 4.82302 3.04539ZM9.16263 3.1616L9.19472 3.18042L9.19583 3.41948C9.19694 3.55008 9.19915 3.69617 9.19915 3.74376C9.20136 3.84337 9.18919 3.85997 9.12942 3.83894L9.09511 3.82677V3.73159C9.09511 3.67846 9.09179 3.52462 9.08737 3.38849L9.08073 3.14279H9.10618C9.11946 3.14279 9.14492 3.15164 9.16263 3.1616ZM5.30889 3.59103C5.32881 3.80352 5.3609 4.16211 5.38193 4.38789L5.41956 4.7974L5.3764 4.84056L5.33434 4.88372L5.3266 4.79629C5.32217 4.74759 5.30003 4.52181 5.27679 4.29382C5.25355 4.06583 5.22035 3.73491 5.20374 3.55893L5.17276 3.24018L5.21592 3.20034C5.25466 3.16382 5.25908 3.16271 5.26683 3.18263C5.27126 3.1937 5.29007 3.37742 5.30889 3.59103ZM4.47992 3.72494C4.50427 3.94298 4.56846 4.52292 4.6238 5.01321C4.67914 5.50351 4.73116 5.9761 4.74112 6.06464C4.74997 6.15318 4.76547 6.28709 4.77432 6.36346C4.78982 6.49295 4.78982 6.50181 4.77211 6.51509C4.74555 6.53501 4.73448 6.5328 4.73448 6.50955C4.73448 6.49959 4.72452 6.41548 4.71234 6.32472C4.69242 6.1731 4.65922 5.91633 4.58507 5.33971C4.56957 5.2235 4.53969 4.99219 4.51866 4.82506C4.49652 4.65794 4.46443 4.40892 4.44672 4.27168C4.42901 4.13445 4.39913 3.89981 4.38031 3.74819C4.36039 3.59767 4.34822 3.46375 4.35154 3.44936C4.35929 3.41948 4.42459 3.31544 4.43123 3.32208C4.43344 3.3254 4.45557 3.50581 4.47992 3.72494ZM4.14125 4.20196C4.15786 4.33477 4.18885 4.57715 4.20987 4.74206C4.2309 4.90586 4.25746 5.11061 4.26964 5.19583L4.29067 5.35078L4.26743 5.3707C4.25414 5.38176 4.24086 5.38619 4.23644 5.38177C4.23201 5.37734 4.22315 5.33307 4.21651 5.28437C4.20987 5.23567 4.16892 4.95124 4.12465 4.65352L4.04607 4.1112L4.07153 4.03594C4.08481 3.99499 4.0992 3.96179 4.10252 3.96179C4.10694 3.96179 4.12355 4.07025 4.14125 4.20196ZM10.2174 4.05697C10.2329 4.07247 10.2351 4.14109 10.2351 4.64909V5.2235H10.2041C10.1366 5.2235 10.1377 5.2401 10.1333 4.61146L10.1299 4.03926H10.1654C10.1842 4.03926 10.2085 4.04701 10.2174 4.05697ZM7.79467 4.25508C8.0448 4.29271 8.26283 4.36244 8.47865 4.47311C8.6181 4.54505 8.68451 4.59486 8.83945 4.74316C9.06966 4.96341 9.21132 5.15599 9.34414 5.42825C9.53782 5.82447 9.61308 6.17531 9.70826 7.11606C9.75142 7.53773 9.80787 8.30251 9.82004 8.61572C9.82336 8.70647 9.83111 8.85589 9.83775 8.94775C9.84993 9.14254 9.86431 9.11597 9.69277 9.19898C9.45481 9.31409 9.22571 9.39377 8.92357 9.46792C8.55391 9.55868 8.31485 9.58746 7.94962 9.58856L7.68399 9.58967L7.68621 9.46239C7.68621 9.39267 7.69285 9.22997 7.69949 9.10269C7.73269 8.48623 7.72605 7.70818 7.68289 7.27654C7.65854 7.02862 7.61095 6.72759 7.58439 6.66118C7.57885 6.64679 7.60431 6.63462 7.71388 6.59699C7.9142 6.52726 8.08796 6.43983 8.11452 6.39666C8.16212 6.31476 8.07689 6.19745 7.96843 6.19745C7.94962 6.19745 7.89317 6.21737 7.84115 6.24061C7.59324 6.35461 7.09631 6.48853 6.80965 6.51841C6.61154 6.53944 6.30386 6.52726 6.09026 6.48853C5.97405 6.4675 5.76598 6.38892 5.59222 6.29927C5.39189 6.19523 5.26904 6.05689 5.23252 5.89309C5.2126 5.80455 5.21813 5.62747 5.24359 5.52786C5.27126 5.41829 5.34873 5.25891 5.41956 5.16595C5.73499 4.75091 6.38576 4.39121 7.05314 4.26504C7.26564 4.2252 7.56668 4.22077 7.79467 4.25508ZM11.209 4.28939C11.2489 4.30599 11.2533 4.31042 11.2533 4.34805C11.2555 4.6502 11.2489 5.34081 11.2433 5.36959C11.2422 5.37955 11.1847 5.38066 11.1603 5.3718C11.1448 5.36627 11.1426 5.30651 11.1426 4.81842C11.1426 4.46869 11.147 4.27168 11.1537 4.27168C11.1592 4.27168 11.1847 4.27943 11.209 4.28939ZM11.6927 4.897L11.7325 4.91361L11.7248 5.83C11.7159 6.99764 11.7148 7.03194 11.6728 7.13266C11.6041 7.29757 11.6075 7.33077 11.6141 6.60695C11.6163 6.24504 11.6218 5.8787 11.6241 5.79348C11.6263 5.70826 11.6285 5.46809 11.6296 5.25891C11.6296 5.00657 11.6329 4.8804 11.6407 4.8804C11.6473 4.8804 11.6705 4.88815 11.6927 4.897ZM5.03662 5.17259C5.04326 5.26223 5.04105 5.27109 5.00895 5.34192L4.97354 5.41718L4.96026 5.30651C4.93923 5.12942 4.93923 5.12168 4.98129 5.09511C5.0001 5.08183 5.02002 5.07298 5.02334 5.07519C5.02666 5.07741 5.0333 5.12168 5.03662 5.17259ZM4.35265 5.83996C4.36261 5.93072 4.44008 6.5328 4.47992 6.8283C4.53969 7.28539 4.54412 7.35069 4.51755 7.32302C4.51423 7.3197 4.48878 7.16586 4.46222 6.98103C4.28956 5.78795 4.29067 5.79569 4.30505 5.78684C4.33494 5.76692 4.3449 5.77799 4.35265 5.83996ZM5.14951 6.34686C5.15615 6.37453 5.18825 6.67446 5.18825 6.71098C5.18825 6.74197 5.14841 6.77075 5.1307 6.75304C5.12516 6.74751 5.11078 6.65343 5.09971 6.54497C5.08753 6.4354 5.07536 6.3214 5.07204 6.29152L5.0654 6.23618L5.10414 6.28045C5.12627 6.3048 5.14619 6.33469 5.14951 6.34686ZM6.04267 6.76411C6.05484 6.77518 6.06259 6.81945 6.07255 6.93898C6.08915 7.1548 6.09137 7.13819 6.04599 7.13819C5.99951 7.13819 6.00061 7.14151 5.98512 6.94672C5.96962 6.74861 5.96962 6.75083 5.99951 6.75083C6.01389 6.75083 6.03271 6.75747 6.04267 6.76411ZM6.91922 6.78071C6.92144 6.79178 6.92697 6.85818 6.9314 6.92791C6.93472 6.99764 6.94468 7.1548 6.95353 7.27654C6.98452 7.72367 6.98563 7.78012 6.96681 7.78012C6.94579 7.78012 6.94357 7.76351 6.91922 7.44809C6.91037 7.31749 6.89377 7.11163 6.8827 6.99099C6.87274 6.87036 6.8661 6.76964 6.86942 6.76743C6.88159 6.75415 6.91369 6.76411 6.91922 6.78071ZM4.83851 6.99321C4.84515 7.00317 4.88721 7.35733 4.93923 7.84099C4.95472 7.98708 4.97022 8.12764 4.97354 8.1542L4.97907 8.20179L4.9514 8.18408C4.93037 8.16969 4.92263 8.15531 4.92263 8.12985C4.92263 8.06013 4.87504 7.60082 4.83851 7.3197C4.81749 7.16033 4.80088 7.01977 4.80088 7.00649C4.80088 6.98325 4.82745 6.97439 4.83851 6.99321ZM11.2256 7.45583L11.2179 7.91846L11.1902 7.95941C11.1271 8.05238 11.1304 8.07009 11.1338 7.55212L11.136 7.07732L11.1769 7.03527C11.1991 7.01313 11.2212 6.99432 11.2256 6.99432C11.2289 6.99432 11.2289 7.20239 11.2256 7.45583ZM10.2019 8.18962C10.2074 8.83264 10.2063 8.88245 10.1886 8.90237C10.1775 8.91454 10.1676 8.92229 10.1642 8.91897C10.1565 8.91012 10.1454 7.50785 10.1543 7.5001C10.1587 7.49568 10.1698 7.49346 10.1797 7.49457C10.1941 7.49789 10.1974 7.57647 10.2019 8.18962ZM6.5872 7.74913C6.59494 7.81774 6.62261 8.14645 6.63368 8.3014C6.64032 8.40543 6.64032 8.40875 6.61597 8.4165C6.60269 8.42093 6.5872 8.41982 6.58277 8.41429C6.57502 8.40654 6.55067 8.16084 6.52079 7.78233L6.51304 7.69157H6.54735C6.57945 7.69157 6.58166 7.69379 6.5872 7.74913ZM5.71728 8.13649C5.72503 8.14424 5.73056 8.17191 5.73056 8.19958C5.73056 8.22835 5.74384 8.37777 5.75823 8.53271C5.80029 8.9566 5.80361 9.01415 5.78479 9.00309C5.75602 8.98648 5.73056 8.96103 5.7361 8.95439C5.73831 8.94996 5.73388 8.89462 5.72503 8.83154C5.71728 8.76735 5.70732 8.66331 5.70289 8.59912C5.69847 8.53493 5.68851 8.41761 5.67965 8.33903C5.65862 8.14535 5.65973 8.12321 5.68408 8.12321C5.69515 8.12321 5.70953 8.12874 5.71728 8.13649ZM6.24078 8.88134C6.2441 8.90569 6.25074 8.99644 6.25517 9.08277C6.26291 9.24879 6.25959 9.26096 6.21422 9.22665C6.20094 9.21669 6.19208 9.17463 6.1788 9.04846C6.15556 8.82047 6.15445 8.82932 6.19762 8.83375C6.22971 8.83707 6.23414 8.8415 6.24078 8.88134Z" fill="#7799BB"/>
<path d="M5.84566 4.78528C5.73056 4.83509 5.72171 4.99114 5.83017 5.04648C5.90875 5.08632 5.98843 5.06751 6.02939 4.99889C6.10686 4.87272 5.98069 4.72663 5.84566 4.78528Z" fill="#7799BB"/>
<path d="M6.59604 4.89144C6.48979 4.95674 6.48979 5.1139 6.59604 5.1792C6.70118 5.24228 6.83731 5.15928 6.83731 5.03311C6.83731 4.91136 6.69786 4.82946 6.59604 4.89144Z" fill="#7799BB"/>
<path d="M0 4.668C0.7376 4.668 0.84 4.1788 0.84 3.7392C0.833209 3.38678 0.805293 3.03508 0.7564 2.686C0.708767 2.34058 0.681653 1.99263 0.6752 1.644C0.6752 0.4896 1.2988 0 2.182 0H2.4V0.6908H2.2132C1.6 0.6908 1.3928 1.0908 1.3928 1.7708C1.39657 2.06905 1.42089 2.36669 1.4656 2.6616C1.51138 2.97732 1.5357 3.29579 1.5384 3.6148C1.5484 4.418 1.2584 4.8192 0.7896 4.9704V4.9948C1.2576 5.1328 1.5496 5.5596 1.5384 6.3628C1.53626 6.68184 1.51194 7.00034 1.4656 7.316C1.42084 7.61533 1.39652 7.91736 1.3928 8.22C1.3928 8.922 1.6328 9.3112 2.2132 9.3112H2.4V10H2.1816C1.3196 10 0.6748 9.5484 0.6748 8.28C0.681742 7.93572 0.709392 7.59216 0.7576 7.2512C0.805973 6.91496 0.833492 6.57604 0.84 6.2364C0.84 5.8472 0.736 5.3076 0 5.3076V4.668Z" fill="#7799BB"/>
<path d="M15.7983 5.30659C15.0608 5.30659 14.9584 5.84577 14.9584 6.23495C14.9654 6.5751 14.993 6.91451 15.0412 7.25131C15.09 7.5922 15.1179 7.93576 15.1248 8.28007C15.1248 9.54682 14.47 10 13.618 10H13.3996V9.30883H13.5764C14.1584 9.29643 14.4072 8.91964 14.4072 8.21767C14.4072 7.91648 14.3672 7.62729 14.3344 7.31371C14.2846 6.99831 14.2569 6.67981 14.2516 6.36055C14.2516 5.55778 14.5428 5.13059 14.9996 4.9926V4.9686C14.5428 4.81741 14.2516 4.41582 14.2516 3.61306C14.2575 3.29382 14.2852 2.97537 14.3344 2.65989C14.3737 2.36439 14.3979 2.06709 14.4072 1.76913C14.4072 1.09196 14.1888 0.702772 13.5868 0.689172H13.4V0H13.608C14.4912 0 15.1248 0.489181 15.1248 1.64353C15.1179 1.99155 15.0899 2.33884 15.0412 2.68349C14.993 3.03262 14.9653 3.38428 14.9584 3.73665C14.9584 4.17663 15.0624 4.66501 15.7983 4.66501V5.30659Z" fill="#7799BB"/>
</svg>
