<svg width="14" height="14" viewBox="0 0 14 14" fill="none" xmlns="http://www.w3.org/2000/svg">
<path d="M6.14017 0.00344372C6.10902 0.00672219 6.00903 0.0181968 5.91887 0.0263929C4.63699 0.16081 3.37478 0.703397 2.34534 1.56563C2.15518 1.723 1.72243 2.15576 1.56506 2.34591C0.712658 3.36388 0.21433 4.50642 0.0307357 5.85879C-0.0102452 6.15877 -0.0102452 7.17182 0.0307357 7.4718C0.21433 8.82417 0.712658 9.96672 1.56506 10.9847C1.72243 11.1748 2.15518 11.6076 2.34534 11.765C3.3633 12.6174 4.50585 13.1157 5.85822 13.2993C6.1582 13.3403 7.17124 13.3403 7.47122 13.2993C8.82359 13.1157 9.96614 12.6174 10.9841 11.765C11.1743 11.6076 11.607 11.1748 11.7644 10.9847C12.6168 9.96672 13.1151 8.82417 13.2987 7.4718C13.3397 7.17182 13.3397 6.15877 13.2987 5.85879C13.1151 4.50642 12.6168 3.36388 11.7644 2.34591C11.607 2.15576 11.1743 1.723 10.9841 1.56563C9.96942 0.716511 8.8154 0.211627 7.48106 0.0329504C7.33681 0.0132796 7.12699 0.00508282 6.73849 0.00180435C6.44178 -0.00147412 6.17131 0.000165247 6.14017 0.00344372ZM6.22213 0.711594C6.22213 0.903384 6.23524 1.31975 6.25327 1.71481C6.26311 1.90824 6.27458 2.18527 6.2795 2.32952C6.29753 2.84096 6.35163 4.18349 6.35982 4.30316L6.36802 4.42282L6.29425 4.41463C6.25327 4.41135 6.21557 4.40151 6.20901 4.39659C6.2041 4.39004 6.19262 4.27693 6.18606 4.14415C6.15656 3.56058 6.05984 1.2968 6.05001 0.965675L6.04017 0.601765L6.08607 0.595208C6.11066 0.59193 6.15164 0.587012 6.17787 0.585373L6.22213 0.583734V0.711594ZM7.79088 0.672252C7.79251 0.673891 7.79743 1.16894 7.80235 1.77218C7.80891 2.37706 7.8171 2.91964 7.82202 2.97866C7.82694 3.03931 7.8253 3.09176 7.8171 3.09504C7.81055 3.09996 7.76957 3.09996 7.72858 3.09504L7.65318 3.08848L7.64171 2.61147C7.63515 2.34755 7.62695 2.05577 7.62367 1.96069C7.61056 1.67055 7.59909 0.685366 7.60892 0.660777C7.61548 0.642746 7.63351 0.641107 7.70236 0.652581C7.74989 0.662417 7.78924 0.670612 7.79088 0.672252ZM3.99932 1.2214C4.00916 1.23615 4.0862 2.13937 4.18128 3.32126C4.21243 3.72287 4.24357 4.09006 4.24849 4.13596C4.25668 4.21956 4.25505 4.22284 4.20259 4.25562C4.17308 4.27365 4.14358 4.28841 4.13702 4.28841C4.1321 4.28841 4.12227 4.24579 4.11735 4.19333C4.0944 3.98023 4.00588 2.95079 3.94359 2.20658C3.90753 1.7689 3.87474 1.37712 3.86982 1.3345C3.86163 1.26238 3.86327 1.25582 3.90589 1.23287C3.95834 1.205 3.98785 1.20009 3.99932 1.2214ZM8.51214 1.55088C8.55804 1.56727 8.56296 1.57547 8.57279 1.66891C8.58918 1.83283 8.58427 2.61639 8.56623 2.61639C8.5187 2.61639 8.42034 2.56065 8.41215 2.52951C8.40723 2.50983 8.40231 2.27706 8.40231 2.01315C8.40231 1.48039 8.39575 1.51154 8.51214 1.55088ZM5.48447 1.62793C5.48447 1.67219 5.49595 1.91643 5.50906 2.17379C5.52217 2.43115 5.53693 2.75736 5.54348 2.89833C5.55496 3.18356 5.55824 3.17372 5.44841 3.18028C5.39431 3.18192 5.39431 3.18192 5.39104 3.09996C5.38776 3.05406 5.37956 2.91145 5.36973 2.78031C5.36153 2.64917 5.34186 2.36558 5.32874 2.1492C5.31563 1.93282 5.29924 1.71808 5.29432 1.67219C5.28448 1.59022 5.28612 1.58695 5.33038 1.57055C5.35661 1.56072 5.40251 1.55252 5.43202 1.55252C5.48447 1.55088 5.48447 1.55088 5.48447 1.62793ZM10.0317 1.8525L10.0874 1.87545L10.0989 2.09511C10.1038 2.21477 10.1071 2.47377 10.1038 2.66884L10.0989 3.02619L10.0301 2.99177L9.96122 2.95899L9.95631 2.41476C9.95303 2.11478 9.95467 1.8607 9.95794 1.84922C9.9645 1.82463 9.9645 1.82463 10.0317 1.8525ZM7.03847 2.06724C7.0483 2.07708 7.07125 2.87211 7.07289 3.27536L7.07453 3.51796L6.99749 3.50649C6.95323 3.50157 6.91716 3.49665 6.91552 3.49502C6.91061 3.49174 6.86143 2.27706 6.86143 2.15904V2.03773L6.94503 2.04757C6.99257 2.05413 7.03355 2.06232 7.03847 2.06724ZM10.8136 2.18363C10.8333 2.20658 10.8366 2.56557 10.8415 4.54576C10.8464 6.81938 10.8464 6.8784 10.8169 6.8784C10.7989 6.8784 10.7743 6.86856 10.7595 6.85709C10.7349 6.83906 10.7317 6.64071 10.7235 4.69821C10.7169 3.52124 10.7087 2.45246 10.7038 2.32296L10.694 2.08691L10.7415 2.12134C10.7694 2.14101 10.8005 2.16887 10.8136 2.18363ZM9.34323 2.51967C9.35143 2.52623 9.35962 2.61966 9.36126 2.72621C9.36946 3.08848 9.3711 5.30965 9.3629 5.31621C9.35962 5.31948 9.33012 5.31129 9.29733 5.29817L9.23832 5.27359V3.8786V2.48525L9.28422 2.49508C9.30881 2.50164 9.33504 2.51147 9.34323 2.51967ZM4.81894 2.61147C4.82386 2.65573 4.83206 2.75572 4.83697 2.83768C4.84189 2.918 4.85337 3.1016 4.8632 3.24421C4.88287 3.53272 4.87959 3.55075 4.78616 3.55075C4.73698 3.55075 4.73042 3.54583 4.72387 3.49665C4.70747 3.39994 4.6501 2.59344 4.6583 2.58032C4.66649 2.56885 4.75173 2.53934 4.79107 2.53606C4.80091 2.53442 4.81402 2.56885 4.81894 2.61147ZM2.10765 3.02947C2.12568 3.20323 2.16174 3.56714 2.18797 3.83762C2.21584 4.10809 2.23879 4.33758 2.23879 4.34742C2.23879 4.36709 2.11256 4.42938 2.09945 4.41627C2.09125 4.40807 1.92733 2.95735 1.92733 2.89178C1.92733 2.85243 2.05355 2.68687 2.06994 2.7049C2.07486 2.70818 2.09125 2.85407 2.10765 3.02947ZM8.53509 3.20159L8.58263 3.22946L8.58427 3.58353C8.5859 3.77696 8.58918 3.99334 8.58918 4.06383C8.59246 4.21136 8.57443 4.23595 8.48591 4.2048L8.43509 4.18677V4.0458C8.43509 3.96712 8.43018 3.73926 8.42362 3.53763L8.41378 3.17373H8.45149C8.47116 3.17373 8.50886 3.18684 8.53509 3.20159ZM2.82727 3.83762C2.85678 4.15235 2.90432 4.68346 2.93546 5.01786L2.99119 5.62438L2.92726 5.68831L2.86497 5.75224L2.8535 5.62274C2.84694 5.55062 2.81416 5.21621 2.77973 4.87853C2.74531 4.54085 2.69613 4.05072 2.67154 3.79008L2.62565 3.31798L2.68958 3.25897C2.74695 3.20487 2.75351 3.20323 2.76498 3.23274C2.77154 3.24913 2.7994 3.52124 2.82727 3.83762ZM1.59948 4.03596C1.63555 4.35889 1.73062 5.21785 1.81258 5.94403C1.89455 6.67021 1.97159 7.37017 1.98634 7.50131C1.99946 7.63244 2.02241 7.83079 2.03552 7.9439C2.05847 8.13569 2.05847 8.1488 2.03224 8.16848C1.9929 8.19798 1.97651 8.1947 1.97651 8.16028C1.97651 8.14553 1.96175 8.02094 1.94372 7.88653C1.91422 7.66195 1.86504 7.28165 1.75521 6.42761C1.73226 6.25549 1.688 5.91289 1.65686 5.66536C1.62407 5.41784 1.57653 5.04901 1.55031 4.84575C1.52408 4.64248 1.47982 4.29496 1.45195 4.07039C1.42245 3.84745 1.40441 3.6491 1.40933 3.62779C1.42081 3.58353 1.51752 3.42945 1.52736 3.43928C1.53064 3.4442 1.56342 3.71139 1.59948 4.03596ZM1.09788 4.74247C1.12247 4.93918 1.16836 5.29817 1.19951 5.54242C1.23066 5.78503 1.27 6.08829 1.28803 6.21451L1.31917 6.444L1.28475 6.47351C1.26508 6.4899 1.24541 6.49646 1.23885 6.4899C1.2323 6.48334 1.21918 6.41777 1.20935 6.34565C1.19951 6.27352 1.13886 5.85224 1.07329 5.41128L0.956904 4.60806L0.994606 4.49659C1.01428 4.43594 1.03559 4.38676 1.0405 4.38676C1.04706 4.38676 1.07165 4.5474 1.09788 4.74247ZM10.0973 4.52773C10.1202 4.55068 10.1235 4.65232 10.1235 5.40472V6.25549H10.0776C9.97762 6.25549 9.97926 6.28008 9.9727 5.34899L9.96778 4.50151H10.0202C10.0481 4.50151 10.0842 4.51298 10.0973 4.52773ZM6.50899 4.82116C6.87946 4.87689 7.20239 4.98016 7.52204 5.14409C7.72858 5.25064 7.82694 5.3244 8.05643 5.54406C8.39739 5.87027 8.60721 6.15549 8.80392 6.55875C9.09079 7.14559 9.20226 7.66523 9.34323 9.05858C9.40716 9.68313 9.49076 10.8158 9.50879 11.2797C9.51371 11.4142 9.52519 11.6355 9.53502 11.7715C9.55305 12.06 9.57436 12.0207 9.32028 12.1436C8.96785 12.3141 8.62852 12.4321 8.18101 12.542C7.63351 12.6764 7.27943 12.719 6.73849 12.7206L6.34507 12.7223L6.34835 12.5338C6.34835 12.4305 6.35818 12.1895 6.36802 12.001C6.4172 11.088 6.40736 9.93557 6.34343 9.29627C6.30737 8.92908 6.23688 8.48321 6.19754 8.38485C6.18934 8.36354 6.22705 8.34551 6.38933 8.28978C6.68603 8.18651 6.94339 8.05701 6.98273 7.99308C7.05322 7.87177 6.927 7.69801 6.76635 7.69801C6.73849 7.69801 6.65489 7.72752 6.57784 7.76194C6.21065 7.93079 5.47464 8.12913 5.05007 8.17339C4.75665 8.20454 4.30094 8.18651 3.98457 8.12913C3.81245 8.09799 3.50428 7.9816 3.24692 7.84882C2.95021 7.69474 2.76826 7.48983 2.71416 7.24722C2.68466 7.11609 2.69285 6.85381 2.73056 6.70628C2.77154 6.54399 2.88628 6.30794 2.99119 6.17025C3.45838 5.55553 4.42225 5.02278 5.41071 4.83591C5.72544 4.7769 6.17131 4.77034 6.50899 4.82116ZM11.566 4.87197C11.625 4.89656 11.6316 4.90312 11.6316 4.95885C11.6349 5.40636 11.625 6.42925 11.6169 6.47187C11.6152 6.48662 11.53 6.48826 11.4939 6.47514C11.471 6.46695 11.4677 6.37843 11.4677 5.65553C11.4677 5.13753 11.4742 4.84575 11.4841 4.84575C11.4923 4.84575 11.53 4.85722 11.566 4.87197ZM12.2824 5.77191L12.3414 5.7965L12.3299 7.15379C12.3168 8.88318 12.3152 8.934 12.2529 9.08317C12.1512 9.32741 12.1562 9.37659 12.166 8.30453C12.1693 7.7685 12.1775 7.22591 12.1807 7.09969C12.184 6.97347 12.1873 6.61776 12.1889 6.30794C12.1889 5.9342 12.1939 5.74732 12.2053 5.74732C12.2152 5.74732 12.2496 5.7588 12.2824 5.77191ZM2.42402 6.18008C2.43385 6.31286 2.43058 6.32597 2.38304 6.43089L2.33058 6.54235L2.31091 6.37843C2.27977 6.11615 2.27977 6.10468 2.34206 6.06534C2.36992 6.04567 2.39943 6.03255 2.40435 6.03583C2.40927 6.03911 2.4191 6.10468 2.42402 6.18008ZM1.41097 7.16854C1.42572 7.30296 1.54047 8.1947 1.59948 8.63238C1.688 9.30938 1.69456 9.4061 1.65522 9.36512C1.6503 9.3602 1.6126 9.13235 1.57326 8.85859C1.31754 7.0915 1.31917 7.10297 1.34048 7.08986C1.38474 7.06035 1.3995 7.07674 1.41097 7.16854ZM2.59122 7.91931C2.60106 7.96029 2.64859 8.40452 2.64859 8.45862C2.64859 8.50452 2.58958 8.54714 2.56335 8.52091C2.55516 8.51271 2.53385 8.37338 2.51746 8.21273C2.49942 8.05045 2.48139 7.88161 2.47647 7.83735L2.46664 7.75539L2.52401 7.82096C2.5568 7.85702 2.5863 7.90128 2.59122 7.91931ZM3.91408 8.5373C3.93212 8.5537 3.94359 8.61926 3.95834 8.7963C3.98293 9.11595 3.98621 9.09136 3.919 9.09136C3.85015 9.09136 3.85179 9.09628 3.82884 8.80778C3.80589 8.51435 3.80589 8.51763 3.85015 8.51763C3.87146 8.51763 3.89933 8.52747 3.91408 8.5373ZM5.21236 8.56189C5.21564 8.57828 5.22383 8.67664 5.23039 8.77991C5.23531 8.88318 5.25006 9.11595 5.26317 9.29627C5.30907 9.95852 5.31071 10.0421 5.28285 10.0421C5.2517 10.0421 5.24842 10.0175 5.21236 9.55035C5.19924 9.35692 5.17466 9.05202 5.15826 8.87335C5.14351 8.69467 5.13368 8.5455 5.13859 8.54222C5.15662 8.52255 5.20416 8.5373 5.21236 8.56189ZM2.1306 8.87662C2.14043 8.89138 2.20272 9.41593 2.27977 10.1323C2.30272 10.3487 2.32567 10.5568 2.33058 10.5962L2.33878 10.6667L2.2978 10.6404C2.26665 10.6191 2.25518 10.5978 2.25518 10.5601C2.25518 10.4568 2.18469 9.77656 2.1306 9.3602C2.09945 9.12415 2.07486 8.91597 2.07486 8.8963C2.07486 8.86187 2.1142 8.84876 2.1306 8.87662ZM11.5906 9.56183L11.5791 10.247L11.5382 10.3077C11.4447 10.4454 11.4496 10.4716 11.4546 9.70444L11.4578 9.00121L11.5185 8.93892C11.5513 8.90613 11.5841 8.87826 11.5906 8.87826C11.5955 8.87826 11.5955 9.18644 11.5906 9.56183ZM10.0743 10.6486C10.0825 11.601 10.0809 11.6748 10.0547 11.7043C10.0383 11.7223 10.0235 11.7338 10.0186 11.7289C10.0071 11.7158 9.99073 9.63887 10.0038 9.62739C10.0104 9.62084 10.0268 9.61756 10.0415 9.6192C10.0629 9.62412 10.0678 9.7405 10.0743 10.6486ZM4.72059 9.99622C4.73206 10.0979 4.77304 10.5847 4.78944 10.8142C4.79927 10.9683 4.79927 10.9732 4.76321 10.9847C4.74354 10.9912 4.72059 10.9896 4.71403 10.9814C4.70256 10.9699 4.66649 10.606 4.62223 10.0454L4.61076 9.91098H4.66158C4.70911 9.91098 4.71239 9.91426 4.72059 9.99622ZM3.43215 10.57C3.44362 10.5814 3.45182 10.6224 3.45182 10.6634C3.45182 10.706 3.47149 10.9273 3.4928 11.1568C3.55509 11.7846 3.56001 11.8699 3.53214 11.8535C3.48952 11.8289 3.45182 11.7912 3.46002 11.7813C3.46329 11.7748 3.45674 11.6928 3.44362 11.5994C3.43215 11.5043 3.4174 11.3502 3.41084 11.2552C3.40428 11.1601 3.38953 10.9863 3.37642 10.8699C3.34527 10.5831 3.34691 10.5503 3.38297 10.5503C3.39936 10.5503 3.42067 10.5585 3.43215 10.57ZM4.20751 11.6732C4.21242 11.7092 4.22226 11.8436 4.22882 11.9715C4.24029 12.2174 4.23537 12.2354 4.16817 12.1846C4.14849 12.1698 4.13538 12.1076 4.11571 11.9207C4.08129 11.583 4.07965 11.5961 4.14358 11.6027C4.19111 11.6076 4.19767 11.6141 4.20751 11.6732Z" fill="#7799BB"/>
<path d="M3.6223 5.60635C3.45182 5.68011 3.4387 5.91124 3.59935 5.99321C3.71573 6.05222 3.83376 6.02435 3.89441 5.92272C4.00916 5.73585 3.82228 5.51947 3.6223 5.60635Z" fill="#7799BB"/>
<path d="M4.7337 5.76372C4.57634 5.86043 4.57634 6.09321 4.7337 6.18992C4.88943 6.28336 5.09106 6.16041 5.09106 5.97354C5.09106 5.79323 4.88451 5.67192 4.7337 5.76372Z" fill="#7799BB"/>
</svg>
