<svg width="14" height="14" viewBox="0 0 14 14" fill="none" xmlns="http://www.w3.org/2000/svg">
<path d="M6.14017 0.673976C6.10902 0.677254 6.00903 0.688729 5.91887 0.696925C4.63699 0.831342 3.37478 1.37393 2.34534 2.23617C2.15518 2.39353 1.72243 2.82629 1.56506 3.01644C0.712658 4.03441 0.21433 5.17696 0.0307357 6.52932C-0.0102452 6.8293 -0.0102452 7.84235 0.0307357 8.14233C0.21433 9.4947 0.712658 10.6372 1.56506 11.6552C1.72243 11.8454 2.15518 12.2781 2.34534 12.4355C3.3633 13.2879 4.50585 13.7862 5.85822 13.9698C6.1582 14.0108 7.17124 14.0108 7.47122 13.9698C8.82359 13.7862 9.96614 13.2879 10.9841 12.4355C11.1743 12.2781 11.607 11.8454 11.7644 11.6552C12.6168 10.6372 13.1151 9.4947 13.2987 8.14233C13.3397 7.84235 13.3397 6.8293 13.2987 6.52932C13.1151 5.17696 12.6168 4.03441 11.7644 3.01644C11.607 2.82629 11.1743 2.39353 10.9841 2.23617C9.96942 1.38704 8.8154 0.882159 7.48106 0.703483C7.33681 0.683812 7.12699 0.675615 6.73849 0.672337C6.44178 0.669058 6.17131 0.670697 6.14017 0.673976ZM6.22213 1.38213C6.22213 1.57392 6.23524 1.99028 6.25327 2.38534C6.26311 2.57877 6.27458 2.8558 6.2795 3.00005C6.29753 3.51149 6.35163 4.85403 6.35982 4.97369L6.36802 5.09335L6.29425 5.08516C6.25327 5.08188 6.21557 5.07204 6.20901 5.06713C6.2041 5.06057 6.19262 4.94746 6.18606 4.81468C6.15656 4.23112 6.05984 1.96733 6.05001 1.63621L6.04017 1.2723L6.08607 1.26574C6.11066 1.26246 6.15164 1.25754 6.17787 1.25591L6.22213 1.25427V1.38213ZM7.79088 1.34278C7.79251 1.34442 7.79743 1.83947 7.80235 2.44271C7.80891 3.04759 7.8171 3.59018 7.82202 3.64919C7.82694 3.70984 7.8253 3.7623 7.8171 3.76557C7.81055 3.77049 7.76957 3.77049 7.72858 3.76557L7.65318 3.75902L7.64171 3.282C7.63515 3.01808 7.62695 2.7263 7.62367 2.63122C7.61056 2.34108 7.59909 1.3559 7.60892 1.33131C7.61548 1.31328 7.63351 1.31164 7.70236 1.32311C7.74989 1.33295 7.78924 1.34114 7.79088 1.34278ZM3.99932 1.89193C4.00916 1.90668 4.0862 2.8099 4.18128 3.99179C4.21243 4.3934 4.24357 4.76059 4.24849 4.80649C4.25668 4.89009 4.25505 4.89337 4.20259 4.92615C4.17308 4.94418 4.14358 4.95894 4.13702 4.95894C4.1321 4.95894 4.12227 4.91632 4.11735 4.86386C4.0944 4.65076 4.00588 3.62132 3.94359 2.87711C3.90753 2.43943 3.87474 2.04766 3.86982 2.00504C3.86163 1.93291 3.86327 1.92635 3.90589 1.9034C3.95834 1.87554 3.98785 1.87062 3.99932 1.89193ZM8.51214 2.22141C8.55804 2.23781 8.56296 2.246 8.57279 2.33944C8.58918 2.50336 8.58427 3.28692 8.56623 3.28692C8.5187 3.28692 8.42034 3.23118 8.41215 3.20004C8.40723 3.18037 8.40231 2.9476 8.40231 2.68368C8.40231 2.15093 8.39575 2.18207 8.51214 2.22141ZM5.48447 2.29846C5.48447 2.34272 5.49595 2.58696 5.50906 2.84432C5.52217 3.10168 5.53693 3.42789 5.54348 3.56887C5.55496 3.85409 5.55824 3.84426 5.44841 3.85081C5.39431 3.85245 5.39431 3.85245 5.39104 3.77049C5.38776 3.72459 5.37956 3.58198 5.36973 3.45084C5.36153 3.3197 5.34186 3.03611 5.32874 2.81974C5.31563 2.60336 5.29924 2.38862 5.29432 2.34272C5.28448 2.26076 5.28612 2.25748 5.33038 2.24109C5.35661 2.23125 5.40251 2.22305 5.43202 2.22305C5.48447 2.22141 5.48447 2.22141 5.48447 2.29846ZM10.0317 2.52303L10.0874 2.54598L10.0989 2.76564C10.1038 2.8853 10.1071 3.1443 10.1038 3.33937L10.0989 3.69673L10.0301 3.6623L9.96122 3.62952L9.95631 3.08529C9.95303 2.78531 9.95467 2.53123 9.95794 2.51976C9.9645 2.49517 9.9645 2.49517 10.0317 2.52303ZM7.03847 2.73777C7.0483 2.74761 7.07125 3.54264 7.07289 3.94589L7.07453 4.1885L6.99749 4.17702C6.95323 4.1721 6.91716 4.16719 6.91552 4.16555C6.91061 4.16227 6.86143 2.9476 6.86143 2.82957V2.70827L6.94503 2.7181C6.99257 2.72466 7.03355 2.73286 7.03847 2.73777ZM10.8136 2.85416C10.8333 2.87711 10.8366 3.2361 10.8415 5.2163C10.8464 7.48992 10.8464 7.54893 10.8169 7.54893C10.7989 7.54893 10.7743 7.53909 10.7595 7.52762C10.7349 7.50959 10.7317 7.31124 10.7235 5.36875C10.7169 4.19177 10.7087 3.12299 10.7038 2.99349L10.694 2.75744L10.7415 2.79187C10.7694 2.81154 10.8005 2.83941 10.8136 2.85416ZM9.34323 3.1902C9.35143 3.19676 9.35962 3.2902 9.36126 3.39675C9.36946 3.75902 9.3711 5.98018 9.3629 5.98674C9.35962 5.99002 9.33012 5.98182 9.29733 5.96871L9.23832 5.94412V4.54913V3.15578L9.28422 3.16561C9.30881 3.17217 9.33504 3.18201 9.34323 3.1902ZM4.81894 3.282C4.82386 3.32626 4.83206 3.42625 4.83697 3.50821C4.84189 3.58854 4.85337 3.77213 4.8632 3.91474C4.88287 4.20325 4.87959 4.22128 4.78616 4.22128C4.73698 4.22128 4.73042 4.21636 4.72387 4.16719C4.70747 4.07047 4.6501 3.26397 4.6583 3.25085C4.66649 3.23938 4.75173 3.20987 4.79107 3.20659C4.80091 3.20496 4.81402 3.23938 4.81894 3.282ZM2.10765 3.7C2.12568 3.87376 2.16174 4.23767 2.18797 4.50815C2.21584 4.77862 2.23879 5.00811 2.23879 5.01795C2.23879 5.03762 2.11256 5.09991 2.09945 5.0868C2.09125 5.0786 1.92733 3.62788 1.92733 3.56231C1.92733 3.52297 2.05355 3.3574 2.06994 3.37544C2.07486 3.37871 2.09125 3.52461 2.10765 3.7ZM8.53509 3.87212L8.58263 3.89999L8.58427 4.25407C8.5859 4.4475 8.58918 4.66387 8.58918 4.73436C8.59246 4.88189 8.57443 4.90648 8.48591 4.87534L8.43509 4.8573V4.71633C8.43509 4.63765 8.43018 4.40979 8.42362 4.20817L8.41378 3.84426H8.45149C8.47116 3.84426 8.50886 3.85737 8.53509 3.87212ZM2.82727 4.50815C2.85678 4.82288 2.90432 5.35399 2.93546 5.6884L2.99119 6.29491L2.92726 6.35884L2.86497 6.42277L2.8535 6.29327C2.84694 6.22115 2.81416 5.88674 2.77973 5.54906C2.74531 5.21138 2.69613 4.72125 2.67154 4.46061L2.62565 3.98851L2.68958 3.9295C2.74695 3.8754 2.75351 3.87376 2.76498 3.90327C2.77154 3.91966 2.7994 4.19177 2.82727 4.50815ZM1.59948 4.7065C1.63555 5.02942 1.73062 5.88838 1.81258 6.61456C1.89455 7.34075 1.97159 8.0407 1.98634 8.17184C1.99946 8.30298 2.02241 8.50132 2.03552 8.61443C2.05847 8.80622 2.05847 8.81934 2.03224 8.83901C1.9929 8.86851 1.97651 8.86523 1.97651 8.83081C1.97651 8.81606 1.96175 8.69148 1.94372 8.55706C1.91422 8.33248 1.86504 7.95218 1.75521 7.09814C1.73226 6.92602 1.688 6.58342 1.65686 6.3359C1.62407 6.08837 1.57653 5.71954 1.55031 5.51628C1.52408 5.31301 1.47982 4.96549 1.45195 4.74092C1.42245 4.51798 1.40441 4.31964 1.40933 4.29833C1.42081 4.25407 1.51752 4.09998 1.52736 4.10981C1.53064 4.11473 1.56342 4.38193 1.59948 4.7065ZM1.09788 5.41301C1.12247 5.60971 1.16836 5.96871 1.19951 6.21295C1.23066 6.45556 1.27 6.75882 1.28803 6.88504L1.31917 7.11453L1.28475 7.14404C1.26508 7.16043 1.24541 7.16699 1.23885 7.16043C1.2323 7.15387 1.21918 7.0883 1.20935 7.01618C1.19951 6.94405 1.13886 6.52277 1.07329 6.08181L0.956904 5.27859L0.994606 5.16712C1.01428 5.10647 1.03559 5.05729 1.0405 5.05729C1.04706 5.05729 1.07165 5.21794 1.09788 5.41301ZM10.0973 5.19827C10.1202 5.22122 10.1235 5.32285 10.1235 6.07526V6.92602H10.0776C9.97762 6.92602 9.97926 6.95061 9.9727 6.01952L9.96778 5.17204H10.0202C10.0481 5.17204 10.0842 5.18351 10.0973 5.19827ZM6.50899 5.49169C6.87946 5.54742 7.20239 5.65069 7.52204 5.81462C7.72858 5.92117 7.82694 5.99493 8.05643 6.21459C8.39739 6.5408 8.60721 6.82603 8.80392 7.22928C9.09079 7.81612 9.20226 8.33576 9.34323 9.72911C9.40716 10.3537 9.49076 11.4864 9.50879 11.9503C9.51371 12.0847 9.52519 12.306 9.53502 12.442C9.55305 12.7306 9.57436 12.6912 9.32028 12.8142C8.96785 12.9846 8.62852 13.1027 8.18101 13.2125C7.63351 13.3469 7.27943 13.3895 6.73849 13.3912L6.34507 13.3928L6.34835 13.2043C6.34835 13.101 6.35818 12.8601 6.36802 12.6715C6.4172 11.7585 6.40736 10.6061 6.34343 9.9668C6.30737 9.59961 6.23688 9.15374 6.19754 9.05539C6.18934 9.03408 6.22705 9.01604 6.38933 8.96031C6.68603 8.85704 6.94339 8.72754 6.98273 8.66361C7.05322 8.54231 6.927 8.36855 6.76635 8.36855C6.73849 8.36855 6.65489 8.39805 6.57784 8.43248C6.21065 8.60132 5.47464 8.79967 5.05007 8.84392C4.75665 8.87507 4.30094 8.85704 3.98457 8.79967C3.81245 8.76852 3.50428 8.65213 3.24692 8.51936C2.95021 8.36527 2.76826 8.16036 2.71416 7.91776C2.68466 7.78662 2.69285 7.52434 2.73056 7.37681C2.77154 7.21452 2.88628 6.97848 2.99119 6.84078C3.45838 6.22607 4.42225 5.69331 5.41071 5.50644C5.72544 5.44743 6.17131 5.44087 6.50899 5.49169ZM11.566 5.54251C11.625 5.56709 11.6316 5.57365 11.6316 5.62938C11.6349 6.0769 11.625 7.09978 11.6169 7.1424C11.6152 7.15715 11.53 7.15879 11.4939 7.14568C11.471 7.13748 11.4677 7.04896 11.4677 6.32606C11.4677 5.80806 11.4742 5.51628 11.4841 5.51628C11.4923 5.51628 11.53 5.52775 11.566 5.54251ZM12.2824 6.44245L12.3414 6.46703L12.3299 7.82432C12.3168 9.55371 12.3152 9.60453 12.2529 9.7537C12.1512 9.99795 12.1562 10.0471 12.166 8.97506C12.1693 8.43903 12.1775 7.89645 12.1807 7.77023C12.184 7.644 12.1873 7.28829 12.1889 6.97848C12.1889 6.60473 12.1939 6.41786 12.2053 6.41786C12.2152 6.41786 12.2496 6.42933 12.2824 6.44245ZM2.42402 6.85061C2.43385 6.98339 2.43058 6.99651 2.38304 7.10142L2.33058 7.21289L2.31091 7.04896C2.27977 6.78668 2.27977 6.77521 2.34206 6.73587C2.36992 6.7162 2.39943 6.70308 2.40435 6.70636C2.40927 6.70964 2.4191 6.77521 2.42402 6.85061ZM1.41097 7.83907C1.42572 7.97349 1.54047 8.86523 1.59948 9.30291C1.688 9.97991 1.69456 10.0766 1.65522 10.0356C1.6503 10.0307 1.6126 9.80288 1.57326 9.52913C1.31754 7.76203 1.31917 7.7735 1.34048 7.76039C1.38474 7.73088 1.3995 7.74728 1.41097 7.83907ZM2.59122 8.58984C2.60106 8.63082 2.64859 9.07506 2.64859 9.12915C2.64859 9.17505 2.58958 9.21767 2.56335 9.19144C2.55516 9.18325 2.53385 9.04391 2.51746 8.88327C2.49942 8.72098 2.48139 8.55214 2.47647 8.50788L2.46664 8.42592L2.52401 8.49149C2.5568 8.52755 2.5863 8.57181 2.59122 8.58984ZM3.91408 9.20784C3.93212 9.22423 3.94359 9.2898 3.95834 9.46683C3.98293 9.78648 3.98621 9.7619 3.919 9.7619C3.85015 9.7619 3.85179 9.76681 3.82884 9.47831C3.80589 9.18489 3.80589 9.18816 3.85015 9.18816C3.87146 9.18816 3.89933 9.198 3.91408 9.20784ZM5.21236 9.23242C5.21564 9.24882 5.22383 9.34717 5.23039 9.45044C5.23531 9.55371 5.25006 9.78649 5.26317 9.9668C5.30907 10.6291 5.31071 10.7127 5.28285 10.7127C5.2517 10.7127 5.24842 10.6881 5.21236 10.2209C5.19924 10.0275 5.17466 9.72256 5.15826 9.54388C5.14351 9.3652 5.13368 9.21603 5.13859 9.21275C5.15662 9.19308 5.20416 9.20784 5.21236 9.23242ZM2.1306 9.54716C2.14043 9.56191 2.20272 10.0865 2.27977 10.8028C2.30272 11.0192 2.32567 11.2274 2.33058 11.2667L2.33878 11.3372L2.2978 11.311C2.26665 11.2897 2.25518 11.2684 2.25518 11.2307C2.25518 11.1274 2.18469 10.4471 2.1306 10.0307C2.09945 9.79468 2.07486 9.5865 2.07486 9.56683C2.07486 9.5324 2.1142 9.51929 2.1306 9.54716ZM11.5906 10.2324L11.5791 10.9176L11.5382 10.9782C11.4447 11.1159 11.4496 11.1421 11.4546 10.375L11.4578 9.67174L11.5185 9.60945C11.5513 9.57666 11.5841 9.5488 11.5906 9.5488C11.5955 9.5488 11.5955 9.85697 11.5906 10.2324ZM10.0743 11.3192C10.0825 12.2716 10.0809 12.3453 10.0547 12.3748C10.0383 12.3929 10.0235 12.4043 10.0186 12.3994C10.0071 12.3863 9.99073 10.3094 10.0038 10.2979C10.0104 10.2914 10.0268 10.2881 10.0415 10.2897C10.0629 10.2946 10.0678 10.411 10.0743 11.3192ZM4.72059 10.6668C4.73206 10.7684 4.77304 11.2552 4.78944 11.4847C4.79927 11.6388 4.79927 11.6437 4.76321 11.6552C4.74354 11.6618 4.72059 11.6601 4.71403 11.6519C4.70256 11.6405 4.66649 11.2766 4.62223 10.7159L4.61076 10.5815H4.66158C4.70911 10.5815 4.71239 10.5848 4.72059 10.6668ZM3.43215 11.2405C3.44362 11.252 3.45182 11.2929 3.45182 11.3339C3.45182 11.3765 3.47149 11.5978 3.4928 11.8273C3.55509 12.4552 3.56001 12.5404 3.53214 12.524C3.48952 12.4994 3.45182 12.4617 3.46002 12.4519C3.46329 12.4453 3.45674 12.3634 3.44362 12.2699C3.43215 12.1749 3.4174 12.0208 3.41084 11.9257C3.40428 11.8306 3.38953 11.6569 3.37642 11.5405C3.34527 11.2536 3.34691 11.2208 3.38297 11.2208C3.39936 11.2208 3.42067 11.229 3.43215 11.2405ZM4.20751 12.3437C4.21242 12.3798 4.22226 12.5142 4.22882 12.642C4.24029 12.8879 4.23537 12.9059 4.16817 12.8551C4.14849 12.8404 4.13538 12.7781 4.11571 12.5912C4.08129 12.2535 4.07965 12.2666 4.14358 12.2732C4.19111 12.2781 4.19767 12.2847 4.20751 12.3437Z" fill="#414868"/>
<path d="M3.6223 6.27688C3.45182 6.35064 3.43871 6.58178 3.59935 6.66374C3.71574 6.72275 3.83376 6.69488 3.89441 6.59325C4.00916 6.40638 3.82229 6.19 3.6223 6.27688Z" fill="#414868"/>
<path d="M4.7337 6.43425C4.57634 6.53097 4.57634 6.76374 4.7337 6.86045C4.88943 6.95389 5.09106 6.83095 5.09106 6.64407C5.09106 6.46376 4.88451 6.34246 4.7337 6.43425Z" fill="#414868"/>
</svg>
