<svg width="11" height="11" viewBox="0 0 11 11" fill="none" xmlns="http://www.w3.org/2000/svg">
<path d="M5.81721 7.31693C4.85433 7.31693 4.07096 6.53357 4.07096 5.57068C4.07096 4.6078 4.85433 3.82443 5.81721 3.82443C6.78008 3.82443 7.56344 4.6078 7.56344 5.57068C7.56344 6.53357 6.78008 7.31693 5.81721 7.31693ZM2.61174 10.3555C2.08351 10.3555 1.65376 9.92572 1.65376 9.39748C1.65376 8.86924 2.08351 8.43949 2.61174 8.43949C3.13998 8.43949 3.56973 8.86924 3.56973 9.39748C3.56973 9.92572 3.13998 10.3555 2.61174 10.3555M0.80899 1.79395C0.80899 1.16016 1.32462 0.644531 1.9584 0.644531C2.59206 0.644531 3.1076 1.16016 3.1076 1.79395C3.1076 2.42761 2.59206 2.94314 1.9584 2.94314C1.32462 2.94314 0.80899 2.42761 0.80899 1.79395ZM9.66268 2.58887C10.0357 2.58887 10.3392 2.89236 10.3392 3.26541C10.3392 3.63857 10.0357 3.94217 9.66268 3.94217C9.28952 3.94217 8.98592 3.63857 8.98592 3.26541C8.98592 2.89236 9.28952 2.58887 9.66268 2.58887ZM8.70748 4.17688C8.94826 4.42909 9.28733 4.5867 9.66268 4.5867C10.3911 4.5867 10.9838 3.99397 10.9838 3.26541C10.9838 2.53696 10.3911 1.94434 9.66268 1.94434C8.93412 1.94434 8.34139 2.53696 8.34139 3.26541C8.34139 3.38632 8.35806 3.50337 8.38861 3.61472L7.68831 4.08422C7.24994 3.53356 6.57413 3.1799 5.81721 3.1799C5.2534 3.1799 4.73466 3.3762 4.32542 3.70386L3.3796 2.88647C3.61289 2.58369 3.75213 2.20488 3.75213 1.79395C3.75213 0.804762 2.94748 0 1.9584 0C0.969221 0 0.164459 0.804762 0.164459 1.79395C0.164459 2.783 0.969221 3.58768 1.9584 3.58768C2.30241 3.58768 2.62399 3.49014 2.89731 3.32153L3.88025 4.17098C3.59491 4.5647 3.42643 5.04835 3.42643 5.57068C3.42643 6.17162 3.64937 6.72143 4.01678 7.1419L3.35936 7.98065C3.13598 7.86231 2.88163 7.79496 2.61174 7.79496C1.72811 7.79496 1.00922 8.51385 1.00922 9.39748C1.00922 10.2811 1.72811 11 2.61174 11C3.49537 11 4.21426 10.2811 4.21426 9.39748C4.21426 9.01624 4.0802 8.66583 3.85709 8.39044L4.50278 7.56667C4.88019 7.81604 5.33199 7.96147 5.81721 7.96147C7.13547 7.96147 8.20797 6.88896 8.20797 5.57068C8.20797 5.24021 8.14055 4.92519 8.01878 4.63863L8.70748 4.17688Z" fill="#AB7F58"/>
<path d="M9.72221 9.96963C9.38186 9.96963 9.10497 9.69274 9.10497 9.35238C9.10497 9.01216 9.38186 8.73535 9.72221 8.73535C10.0624 8.73535 10.3392 9.01216 10.3392 9.35238C10.3392 9.69274 10.0624 9.96963 9.72221 9.96963ZM9.72221 8.09082C9.02646 8.09082 8.46043 8.65676 8.46043 9.35238C8.46043 10.0481 9.02646 10.6142 9.72221 10.6142C10.4178 10.6142 10.9838 10.0481 10.9838 9.35238C10.9838 8.65676 10.4178 8.09082 9.72221 8.09082Z" fill="#AB7F58"/>
</svg>
