<svg width="18" height="11" viewBox="0 0 18 11" fill="none" xmlns="http://www.w3.org/2000/svg">
<path fill-rule="evenodd" clip-rule="evenodd" d="M4.98506 7.82724C5.02517 7.82724 5.06338 7.8348 5.09868 7.84845C5.06046 7.87061 5.03453 7.91204 5.03453 7.95941C5.03453 8.03021 5.0919 8.0875 5.1627 8.0875C5.21118 8.0875 5.25326 8.06057 5.27508 8.02081C5.29041 8.05787 5.29899 8.09853 5.29899 8.14121C5.29899 8.3146 5.15841 8.45514 4.98506 8.45514C4.81172 8.45514 4.67109 8.3146 4.67109 8.14121C4.67109 7.96778 4.81172 7.82724 4.98506 7.82724ZM4.98506 8.67826C4.68891 8.67826 4.44793 8.43737 4.44793 8.14121C4.44793 7.84506 4.68891 7.60412 4.98506 7.60412C5.28117 7.60412 5.52211 7.84506 5.52211 8.14121C5.52211 8.43737 5.28117 8.67826 4.98506 8.67826ZM14.6387 5.15854C13.1136 9.19989 9.66917 11 5.60837 11C3.68966 11 2.15895 10.3401 1.17997 9.23969L1.18719 9.23493C1.46926 9.24923 1.72165 9.25408 1.97788 9.25408C2.21215 9.25408 2.44132 9.25163 2.65357 9.23969C2.67204 9.23866 2.69514 9.23609 2.71347 9.23493C2.71364 9.23488 2.77896 9.23063 2.74701 9.23012C3.28642 9.19684 3.70452 9.12187 4.09441 9.01061C4.0945 9.01057 4.09458 9.01057 4.09467 9.01052C4.16552 8.99026 4.23422 8.96892 4.30005 8.94612C4.37369 8.92057 4.41268 8.84018 4.38717 8.76654C4.36167 8.69286 4.28133 8.65378 4.20764 8.67942C3.71242 8.851 3.05909 8.94547 2.2584 8.9632H2.25818C1.85077 8.97222 1.4054 8.96149 0.922378 8.93044H0.922335C0.822415 8.79703 0.729923 8.65838 0.645332 8.51479L0.511618 8.27029C0.107642 7.47608 -0.0692256 6.54828 0.0246403 5.54071H11.774C12.7393 5.54071 13.6819 5.18049 14.1293 4.78312C13.3277 4.13134 13.4071 2.58316 13.918 1.9924C14.3614 2.34867 15.0764 3.09912 14.9534 4.05444C15.5114 3.77396 16.4804 3.63535 17.2339 4.0702C16.7608 4.99366 15.7209 5.26954 14.6387 5.15854ZM1.61933 5.25555H3.20818V3.66661H1.61933V5.25555ZM3.45259 5.25555H5.04161V3.66661H3.45259V5.25555ZM3.45259 3.4222H5.04161V1.8333H3.45259V3.4222ZM5.28598 5.25555H6.87492V3.66661H5.28598V5.25555ZM5.28598 3.4222H6.87492V1.8333H5.28598V3.4222ZM7.11929 5.25555H8.70822V3.66661H7.11929V5.25555ZM7.11929 3.4222H8.70822V1.8333H7.11929V3.4222ZM7.11929 1.58894H8.70822V0H7.11929V1.58894ZM8.95259 5.25555H10.5415V3.66661H8.95259V5.25555Z" fill="#0065A9"/>
</svg>
