<svg width="8" height="16" viewBox="0 0 8 16" fill="none" xmlns="http://www.w3.org/2000/svg">
<path d="M4.27183 0.434001C4.13041 0.434001 3.98899 0.504713 3.84756 0.646134C3.7415 0.822911 0.594873 5.24233 0.594873 8.3536C0.594873 10.5456 1.72624 11.8184 2.75155 12.4902L3.28188 10.4042C3.35259 10.1214 3.77685 10.1921 3.77685 10.4749L3.77685 13.0912L3.77685 13.5862L3.77685 15.1418C3.77685 15.4247 3.98898 15.6368 4.27183 15.6368C4.41325 15.5661 4.51931 15.5307 4.62538 15.4247C4.73145 15.3186 4.7668 15.2125 4.7668 15.0711L4.7668 13.0912C5.19107 12.9498 5.89817 12.5962 6.56992 11.9245C7.48916 11.0052 7.98414 9.80317 7.98414 8.38895C7.98414 4.99484 4.80216 0.82291 4.66074 0.610778C4.55467 0.504712 4.41325 0.434001 4.27183 0.434001Z" fill="#79AB01"/>
</svg>
