<svg width="8" height="16" viewBox="0 0 8 16" fill="none" xmlns="http://www.w3.org/2000/svg">
<path d="M3.81353 0.212138C3.67211 0.212138 3.53069 0.28285 3.38927 0.424271C3.2832 0.601048 0.136575 5.02047 0.136575 8.13174C0.136575 10.3238 1.26795 11.5966 2.29325 12.2683L2.82358 10.1823C2.89429 9.8995 3.31856 9.97021 3.31856 10.2531L3.31856 12.8694L3.31856 13.3643L3.31855 14.92C3.31855 15.2028 3.53069 15.4149 3.81353 15.4149C3.95495 15.3442 4.06102 15.3089 4.16708 15.2028C4.27315 15.0967 4.3085 14.9907 4.3085 14.8493L4.3085 12.8694C4.73277 12.7279 5.43988 12.3744 6.11163 11.7026C7.03087 10.7834 7.52584 9.5813 7.52584 8.16709C7.52584 4.77298 4.34386 0.601047 4.20244 0.388915C4.09637 0.282849 3.95495 0.212138 3.81353 0.212138Z" fill="#4D5273"/>
</svg>
