<svg width="14" height="12" viewBox="0 0 14 12" fill="none" xmlns="http://www.w3.org/2000/svg">
<path d="M4.16036 4.29931L6.75218 2.80294C6.81704 2.76548 6.89699 2.76548 6.96185 2.80294L9.55372 4.29931C9.61852 4.33677 9.65855 4.40596 9.65855 4.48089V7.47363C9.65855 7.5485 9.61852 7.61775 9.55372 7.65526L6.96185 9.15164C6.89699 9.1891 6.81704 9.1891 6.75218 9.15164L4.16036 7.65526C4.0955 7.6178 4.05553 7.54855 4.05553 7.47363V4.48089C4.05558 4.40596 4.09556 4.33677 4.16036 4.29931Z" fill="#8080F2"/>
<path d="M13.5762 5.73198L10.4762 0.338839C10.3636 0.143839 10.1556 0 9.93045 0H3.73034C3.50513 0 3.29706 0.143839 3.18445 0.338839L0.0844548 5.72009C-0.0281516 5.91514 -0.0281516 6.1613 0.0844548 6.35636L3.18445 11.7053C3.29706 11.9003 3.50513 12 3.73034 12H9.93039C10.1556 12 10.3636 11.9033 10.4762 11.7082L13.5762 6.35057C13.6889 6.15563 13.6889 5.92698 13.5762 5.73198ZM11.0093 8.32537C11.0093 8.40466 10.9615 8.478 10.8928 8.5177L6.94407 10.7959C6.87539 10.8356 6.78936 10.8356 6.72068 10.7959L2.7689 8.5177C2.70022 8.478 2.65217 8.40471 2.65217 8.32537V3.76886C2.65217 3.68952 2.69953 3.61623 2.76826 3.57654L6.71682 1.2983C6.7855 1.25861 6.87143 1.25861 6.94011 1.2983L10.8922 3.57654C10.9609 3.61623 11.0093 3.68952 11.0093 3.76886V8.32537Z" fill="#4B32C3"/>
</svg>
