<svg width="14" height="12" viewBox="0 0 14 12" fill="none" xmlns="http://www.w3.org/2000/svg">
<path d="M12.5168 1.08644C14.4615 5.83345 12.5168 8.38566 10.8716 9.79284C11.2736 11.2 9.67105 11.4903 9.06234 10.798C7.27041 11.4159 3.62985 11.3958 1.02134 8.78771C-0.385831 7.38053 0.711766 4.25017 4.43877 2.15388C7.65517 0.344659 10.8716 -0.660466 12.5168 1.08644Z" fill="#FFDB1E"/>
<path d="M4.43877 2.15393C7.192 0.345912 10.4796 -0.411148 11.8236 0.758817C13.8869 2.55598 7.45414 6.62151 5.04184 7.58161C2.42851 8.62171 3.83569 10.999 2.42851 10.999C1.22236 10.999 1.42339 9.39083 0.34469 7.88314C-0.29256 6.9926 1.28669 4.22368 4.43877 2.15393Z" fill="white"/>
<path d="M4.32843 1.98588C3.79136 2.33853 3.28789 2.7218 2.82782 3.11984L2.60144 3.32002C0.634536 5.09785 -0.453922 7.11252 0.181214 8.00011C0.240649 8.08318 0.297272 8.16832 0.351414 8.25573C0.493041 8.48441 0.614879 8.72298 0.731514 8.99244L0.81651 9.19666L1.11785 9.99355C1.44717 10.8469 1.7654 11.2 2.42852 11.2C3.03362 11.2 3.24402 10.913 3.3931 10.1734L3.46225 9.81167L3.50474 9.60495L3.53054 9.494L3.5563 9.39704L3.58375 9.30763L3.6146 9.21933L3.65057 9.1257C3.877 8.55567 4.28485 8.12671 5.00059 7.81638L5.11618 7.76837C6.50696 7.21484 8.71728 5.89302 10.2389 4.63924L10.4497 4.4625C10.5527 4.37456 10.6521 4.28728 10.7478 4.20069L10.9342 4.02846C12.3858 2.65823 12.8745 1.47418 12.0113 0.657725L11.9556 0.607176C10.566 -0.602427 7.2523 0.0658103 4.32843 1.98588ZM11.6916 0.910429C12.3698 1.50112 11.971 2.49255 10.6713 3.72377L10.4885 3.89313C10.4571 3.9216 10.4252 3.95019 10.3929 3.9789L10.1935 4.15255C10.1253 4.2109 10.0552 4.26971 9.98326 4.32895C8.5465 5.51279 6.47335 6.76417 5.11538 7.33431L4.96751 7.39482C4.07621 7.74955 3.55586 8.27506 3.27692 8.97728L3.21848 9.13229L3.18619 9.22989L3.15705 9.33091C3.15235 9.34841 3.1477 9.36634 3.14308 9.38485L3.11516 9.50389L3.06987 9.72324L2.99945 10.0923L2.96877 10.2366C2.86575 10.6838 2.74914 10.798 2.42852 10.798C1.99956 10.798 1.78757 10.5834 1.52857 9.93932L1.22535 9.13827L1.17333 9.00631C1.02728 8.64777 0.876237 8.33954 0.693218 8.04404C0.63444 7.94914 0.572882 7.85658 0.508184 7.76616C0.160438 7.28019 0.602217 6.18472 1.56861 4.98884L1.72988 4.79411C2.44828 3.94717 3.41867 3.06424 4.54911 2.32195C7.33851 0.490184 10.4809 -0.1435 11.6916 0.910429Z" fill="#FFDB1E"/>
<path d="M10.2826 1.05711C12.1501 1.55967 10.1358 3.34679 8.55254 4.48901C7.05209 5.57133 5.8966 6.18164 5.3671 6.43091C5.21995 6.50047 4.71698 5.52549 4.71698 6.02886C4.71698 6.19652 4.43555 6.92865 4.34147 6.96403C3.79267 7.16988 2.64361 7.48267 1.99551 7.48267C0.591951 7.48267 1.22237 5.57133 3.20729 3.81517C3.56592 3.49796 3.80152 3.55585 4.12517 3.55585C3.90927 3.24507 3.91047 3.18717 4.28719 2.93428C5.96254 1.80814 8.05722 1.05631 8.94655 0.915588C9.0937 0.921217 9.27623 1.05631 9.27623 1.16848C9.44107 1.11219 10.1185 1.01248 10.2826 1.05671V1.05711Z" fill="#FFE600"/>
<path d="M4.55818 4.16015C4.9542 3.85982 5.21915 3.75408 5.40208 3.14457C5.62965 3.19322 5.74021 3.11241 5.92073 2.86273C6.05099 3.05009 6.58693 3.10718 6.90696 3.14457C6.61949 3.32589 6.48199 3.48712 6.32318 3.99129C5.73458 3.74563 5.04989 3.86987 4.55818 4.16015Z" fill="white"/>
</svg>
