<svg width="14" height="14" viewBox="0 0 14 14" fill="none" xmlns="http://www.w3.org/2000/svg">
<path d="M13.0795 6.07161L7.25665 0.252242C7.17702 0.172292 7.08238 0.108854 6.97817 0.0655683C6.87396 0.0222822 6.76223 0 6.64938 0C6.53654 0 6.42481 0.0222822 6.3206 0.0655683C6.21639 0.108854 6.12175 0.172292 6.04211 0.252242L4.83452 1.46331L6.3683 2.99363C6.5492 2.93237 6.74366 2.92312 6.92956 2.96693C7.11545 3.01074 7.28532 3.10585 7.41983 3.24144C7.55433 3.37703 7.64807 3.54765 7.69039 3.7339C7.73271 3.92014 7.72189 4.11452 7.65918 4.29492L9.13398 5.76971C9.35452 5.69365 9.59446 5.69547 9.81382 5.77486C10.0332 5.85425 10.2187 6.00643 10.3395 6.20602C10.4602 6.40562 10.509 6.64057 10.4775 6.87173C10.4461 7.10289 10.3363 7.31628 10.1666 7.47635C9.99691 7.63641 9.77747 7.73348 9.54487 7.75138C9.31227 7.76927 9.08057 7.70691 8.88837 7.57469C8.69617 7.44246 8.5551 7.24836 8.48866 7.02473C8.42222 6.80111 8.43442 6.56147 8.52324 6.34575L7.14561 4.96812V8.59438C7.35444 8.69828 7.52136 8.87059 7.61857 9.08262C7.71578 9.29465 7.73739 9.53359 7.67982 9.75962C7.62224 9.98565 7.48895 10.1851 7.30216 10.3248C7.11537 10.4645 6.88635 10.536 6.65326 10.5273C6.42017 10.5186 6.19709 10.4304 6.02119 10.2772C5.84529 10.124 5.72718 9.91517 5.68656 9.68549C5.64593 9.4558 5.68524 9.21913 5.79792 9.01491C5.91061 8.81069 6.08987 8.65125 6.30584 8.56315V4.90566C6.181 4.85471 6.0675 4.77953 5.9719 4.68445C5.8763 4.58937 5.80049 4.47628 5.74886 4.35173C5.69723 4.22717 5.67081 4.09362 5.67111 3.95878C5.67141 3.82395 5.69844 3.69052 5.75063 3.56619L4.24113 2.0567L0.250505 6.04732C0.0900939 6.20802 0 6.4258 0 6.65285C0 6.87991 0.0900939 7.09769 0.250505 7.25839L6.07681 13.0778C6.15645 13.1577 6.25109 13.2211 6.3553 13.2644C6.45951 13.3077 6.57124 13.33 6.68408 13.33C6.79693 13.33 6.90866 13.3077 7.01287 13.2644C7.11708 13.2211 7.21172 13.1577 7.29135 13.0778L13.083 7.28268C13.2434 7.12198 13.3335 6.9042 13.3335 6.67715C13.3335 6.45009 13.2434 6.23231 13.083 6.07161" fill="#9B4436"/>
</svg>
