<svg width="13" height="12" viewBox="0 0 13 12" fill="none" xmlns="http://www.w3.org/2000/svg">
<path d="M10.9815 5.78913C10.8259 5.78922 10.6726 5.82692 10.5347 5.89902C10.3968 5.97111 10.2784 6.07548 10.1896 6.20321L9.47741 6.07974C9.47741 6.05274 9.47741 6.02633 9.47741 5.99933C9.47754 5.69286 9.41784 5.3893 9.30167 5.1057L10.5077 4.37805C10.6872 4.51435 10.9085 4.58373 11.1337 4.5742C11.3588 4.56467 11.5735 4.47683 11.7408 4.32585C11.9081 4.17487 12.0174 3.97023 12.0498 3.74725C12.0823 3.52427 12.0359 3.29696 11.9186 3.10456C11.8013 2.91215 11.6205 2.76674 11.4075 2.69341C11.1944 2.62009 10.9624 2.62346 10.7516 2.70295C10.5408 2.78244 10.3643 2.93305 10.2526 3.12878C10.141 3.32451 10.1012 3.55308 10.1402 3.77502L8.93985 4.49923C8.56947 4.0457 8.0443 3.74536 7.46559 3.65614V2.17441C7.7169 2.09055 7.93019 1.92001 8.06728 1.69329C8.20437 1.46658 8.25632 1.19849 8.21384 0.936974C8.17136 0.675463 8.03722 0.437597 7.83542 0.265931C7.63362 0.0942648 7.37732 0 7.11238 0C6.84745 0 6.59115 0.0942648 6.38935 0.265931C6.18755 0.437597 6.05341 0.675463 6.01093 0.936974C5.96845 1.19849 6.0204 1.46658 6.15749 1.69329C6.29458 1.92001 6.50787 2.09055 6.75918 2.17441V3.65614C6.36689 3.71605 5.99586 3.87326 5.67995 4.11343C5.36404 4.3536 5.11332 4.66907 4.95067 5.03104L2.74071 4.3522C2.78139 4.02085 2.70016 3.68601 2.51218 3.41012C2.3242 3.13423 2.0423 2.93613 1.71904 2.85274C1.39578 2.76936 1.05323 2.80638 0.755253 2.95692C0.457278 3.10745 0.22422 3.36122 0.099535 3.6709C-0.0251498 3.98059 -0.0329505 4.32505 0.0775873 4.64006C0.188125 4.95507 0.409456 5.21913 0.700312 5.383C0.991167 5.54687 1.33169 5.59936 1.6584 5.53069C1.9851 5.46203 2.27568 5.27689 2.47596 5.00979L4.76115 5.7116C4.71767 6.06037 4.75283 6.41446 4.86403 6.74787C4.97524 7.08129 5.15967 7.38558 5.4038 7.63842L4.40852 8.69803C4.15293 8.5843 3.86509 8.56578 3.59703 8.64581C3.32898 8.72585 3.09841 8.89915 2.94701 9.13439C2.79562 9.36963 2.7334 9.65128 2.77159 9.92841C2.80979 10.2055 2.94588 10.4599 3.15527 10.6454C3.36466 10.8309 3.63351 10.9354 3.91322 10.9399C4.19293 10.9444 4.46503 10.8487 4.68033 10.6701C4.89562 10.4915 5.03989 10.2417 5.08705 9.96596C5.13421 9.69021 5.08115 9.4067 4.93746 9.16667L5.96318 8.06973C6.30641 8.26032 6.69171 8.36239 7.08428 8.3667C7.47684 8.37101 7.86429 8.27743 8.21162 8.09443L9.23792 9.65484C9.00199 9.89028 8.85975 10.2035 8.83773 10.5361C8.81571 10.8687 8.9154 11.1979 9.11823 11.4624C9.32105 11.7269 9.61315 11.9086 9.94006 11.9736C10.267 12.0386 10.6064 11.9825 10.895 11.8158C11.1836 11.649 11.4016 11.383 11.5085 11.0673C11.6155 10.7516 11.6039 10.4077 11.476 10.0999C11.3481 9.79214 11.1126 9.54136 10.8135 9.39437C10.5143 9.24738 10.1719 9.21422 9.85014 9.30106L8.78134 7.67575C9.03678 7.42163 9.23102 7.1127 9.34933 6.77236L10.0259 6.88722C10.052 7.07062 10.1303 7.24265 10.2514 7.3828C10.3725 7.52295 10.5314 7.62532 10.7091 7.67769C10.8868 7.73007 11.0758 7.73024 11.2536 7.6782C11.4314 7.62616 11.5905 7.5241 11.7119 7.38417C11.8333 7.24425 11.9119 7.07237 11.9383 6.88902C11.9648 6.70567 11.9379 6.51858 11.861 6.35005C11.7841 6.18152 11.6604 6.03866 11.5045 5.9385C11.3487 5.83833 11.1674 5.78509 10.9821 5.78511L10.9815 5.78913Z" fill="#486600"/>
</svg>
