<svg width="12" height="12" viewBox="0 0 12 12" fill="none" xmlns="http://www.w3.org/2000/svg">
<path d="M8.31052 10.1285C6.82006 10.0603 5.37049 9.61956 4.09438 8.84648C3.19876 8.34426 2.38486 7.70855 1.68067 6.96122L1.96632 6.69843C2.64446 7.41597 3.42746 8.02657 4.28862 8.50942C6.31271 9.66686 8.50932 10.0519 9.64448 9.47319C9.56435 9.31725 9.53732 9.13942 9.56751 8.96671C9.59769 8.79401 9.68343 8.63588 9.8117 8.51636C9.93998 8.39685 10.1038 8.32248 10.2782 8.30456C10.4526 8.28664 10.6281 8.32615 10.7779 8.41708C10.9278 8.50802 11.0439 8.64541 11.1086 8.80836C11.1733 8.97132 11.183 9.15094 11.1362 9.31991C11.0895 9.48889 10.9889 9.63798 10.8496 9.74453C10.7104 9.85108 10.5402 9.90926 10.3649 9.91023C10.2021 9.91139 10.0427 9.86319 9.90785 9.77198C9.41469 10.0256 8.8647 10.1483 8.31052 10.1285V10.1285ZM10.3615 8.70023C10.2805 8.70136 10.2016 8.7264 10.1348 8.77222C10.068 8.81803 10.0163 8.88257 9.98606 8.95772C9.95584 9.03287 9.94852 9.11527 9.96501 9.19457C9.9815 9.27387 10.0211 9.34653 10.0787 9.4034C10.1364 9.46028 10.2096 9.49883 10.2891 9.51423C10.3686 9.52962 10.4509 9.52116 10.5256 9.48991C10.6004 9.45866 10.6642 9.40601 10.7091 9.33859C10.754 9.27117 10.7779 9.19199 10.7779 9.11099C10.7779 9.05659 10.767 9.00274 10.746 8.95256C10.7249 8.90239 10.6942 8.85688 10.6554 8.81868C10.6167 8.78047 10.5708 8.75033 10.5203 8.73C10.4698 8.70967 10.4159 8.69955 10.3615 8.70023V8.70023ZM0.859156 5.86091C0.324998 4.9377 0.230735 4.08134 0.602646 3.44835C1.10024 2.59484 2.32052 2.27434 3.95042 2.56799L3.88129 2.95132C2.44278 2.69138 1.34304 2.95132 0.938566 3.6443C0.643208 4.15104 0.734614 4.86915 1.19565 5.6661L0.859156 5.86091Z" fill="#8D33A4"/>
<path d="M0.798035 9.90962C0.62332 9.90923 0.453537 9.85164 0.314638 9.74566C0.175739 9.63967 0.0753647 9.49112 0.028857 9.32271C-0.0176507 9.1543 -0.00773328 8.97529 0.0570937 8.81305C0.121921 8.6508 0.238091 8.51425 0.387847 8.42426C0.284444 6.9766 1.78294 5.08049 4.10125 3.75509C4.99952 3.23268 5.97246 2.85082 6.98627 2.62279L7.06682 3.00327C6.0926 3.22321 5.15767 3.59059 4.29434 4.09272C2.18056 5.30043 0.746619 7.03773 0.772899 8.31286C0.985021 8.30937 1.18984 8.39029 1.3423 8.53782C1.49475 8.68535 1.58236 8.8874 1.58585 9.09953C1.58933 9.31165 1.50841 9.51647 1.36088 9.66892C1.21335 9.82138 1.0113 9.90899 0.799178 9.91247L0.798035 9.90962ZM0.798035 8.69905C0.717048 8.70018 0.6382 8.72522 0.571407 8.77104C0.504614 8.81685 0.452856 8.88139 0.422641 8.95654C0.392426 9.03168 0.385102 9.11409 0.401591 9.19339C0.418079 9.27269 0.457644 9.34534 0.515311 9.40222C0.572977 9.45909 0.646171 9.49765 0.725691 9.51304C0.805211 9.52843 0.887505 9.51997 0.96223 9.48872C1.03695 9.45747 1.10077 9.40483 1.14566 9.33741C1.19055 9.26999 1.2145 9.1908 1.21451 9.10981C1.21444 9.0554 1.20357 9.00155 1.18255 8.95138C1.16152 8.9012 1.13075 8.85569 1.09202 8.81749C1.05328 8.77929 1.00735 8.74915 0.956891 8.72882C0.906429 8.70849 0.852435 8.69837 0.798035 8.69905V8.69905ZM9.66391 6.76408L9.36856 6.511C10.3089 5.41069 10.63 4.34009 10.2255 3.65111C9.93471 3.15238 9.27601 2.8713 8.37165 2.85988L8.37679 2.47083C9.4234 2.48454 10.1992 2.83417 10.5614 3.45516C11.0602 4.3081 10.7328 5.5141 9.66391 6.76408Z" fill="#8D33A4"/>
<path d="M5.58546 12C4.59141 12 3.7002 11.1145 3.14319 9.5703L3.50881 9.43833C4.0007 10.7986 4.77708 11.6092 5.58546 11.6092C5.93171 11.567 6.26133 11.4366 6.54287 11.2307C6.82442 11.0248 7.04847 10.7501 7.19365 10.4329L7.52614 10.6352C6.99255 11.5155 6.30357 12 5.58546 12ZM8.126 9.27722L7.7558 9.16011C8.0357 8.23403 8.17456 7.27108 8.1677 6.30365C8.1677 3.94021 7.3856 1.84757 6.28244 1.19916C6.18555 1.36728 6.03085 1.49445 5.84715 1.55697C5.66345 1.61949 5.46329 1.61309 5.28396 1.53898C5.10463 1.46486 4.95836 1.32807 4.8724 1.15411C4.78645 0.980139 4.76667 0.780856 4.81675 0.593386C4.86683 0.405916 4.98336 0.243047 5.14462 0.135123C5.30588 0.0271987 5.50088 -0.0184194 5.69328 0.00676885C5.88568 0.0319571 6.06237 0.126234 6.19041 0.272032C6.31846 0.417831 6.38913 0.605208 6.38927 0.799252V0.810678C7.67068 1.4848 8.55504 3.70827 8.55504 6.30079C8.56282 7.30889 8.41817 8.31237 8.126 9.27722V9.27722ZM5.58546 0.391921C5.50447 0.393047 5.42563 0.418092 5.35883 0.463906C5.29204 0.50972 5.24028 0.574259 5.21007 0.649407C5.17985 0.724556 5.17253 0.80696 5.18902 0.88626C5.2055 0.965559 5.24507 1.03821 5.30274 1.09509C5.3604 1.15197 5.4336 1.19052 5.51312 1.20591C5.59264 1.22131 5.67493 1.21284 5.74966 1.18159C5.82438 1.15034 5.8882 1.0977 5.93308 1.03028C5.97797 0.962861 6.00192 0.883675 6.00193 0.80268C6.00186 0.748276 5.991 0.694427 5.96997 0.64425C5.94895 0.594073 5.91818 0.548566 5.87944 0.510363C5.84071 0.47216 5.79478 0.442021 5.74432 0.42169C5.69385 0.401359 5.63986 0.391241 5.58546 0.391921V0.391921Z" fill="#8D33A4"/>
<path d="M5.58547 7.05202C5.4139 7.0521 5.24744 6.99367 5.11355 6.88638C4.97967 6.77908 4.88638 6.62934 4.84908 6.46188C4.82816 6.36619 4.82637 6.26731 4.84382 6.17093C4.86128 6.07455 4.89762 5.98258 4.95077 5.9003C5.03162 5.77538 5.14757 5.67713 5.28407 5.61788C5.42056 5.55862 5.57152 5.54102 5.71799 5.56726C5.86446 5.5935 5.99992 5.66243 6.10735 5.76538C6.21479 5.86834 6.28941 6.00074 6.32187 6.14596C6.34304 6.2415 6.34501 6.3403 6.32765 6.43661C6.31029 6.53293 6.27395 6.62483 6.22075 6.70696C6.16701 6.7904 6.0973 6.86238 6.01562 6.91875C5.93395 6.97513 5.84193 7.01479 5.74486 7.03546V7.03546C5.69243 7.04639 5.63903 7.05195 5.58547 7.05202V7.05202Z" fill="#8D33A4"/>
</svg>
