<svg width="11" height="11" viewBox="0 0 11 11" fill="none" xmlns="http://www.w3.org/2000/svg">
<path d="M9.69901 5.4175C9.69846 5.102 9.59348 4.79556 9.40046 4.54599C9.20744 4.29643 8.93724 4.11778 8.63202 4.03792L10.0015 0H3.21498L4.58814 4.05075C4.2917 4.13716 4.03125 4.31732 3.84583 4.56422C3.6604 4.81112 3.55999 5.11147 3.55964 5.42025C3.55964 5.89829 3.79798 6.32179 4.16143 6.58258C4.01522 6.78871 3.84879 6.97971 3.6646 7.15275C3.3258 7.47543 2.92932 7.73151 2.49585 7.90762C2.1136 7.64958 1.94814 7.19446 2.09756 6.78654C2.42273 6.68554 2.701 6.47147 2.88202 6.18308C3.06304 5.89469 3.13485 5.55103 3.08445 5.21428C3.03405 4.87754 2.86477 4.56996 2.60725 4.34721C2.34972 4.12446 2.02097 4.00124 1.68048 3.99987C1.30222 4.00036 0.939589 4.15084 0.672119 4.41831C0.404649 4.68578 0.254171 5.04841 0.253686 5.42666C0.253686 5.81533 0.412727 6.17191 0.66756 6.42675C0.64556 6.47121 0.623102 6.51612 0.600644 6.56379C0.387519 7.00333 0.145519 7.50016 0.0529357 8.0575C-0.131773 9.17216 0.170727 10.0668 0.900394 10.5733C1.29531 10.8518 1.76693 11.0009 2.25018 11C3.08756 11 3.93777 10.5797 4.75956 10.1718C5.34577 9.88212 5.95077 9.57962 6.54614 9.43295C6.76614 9.37887 6.99531 9.34725 7.23731 9.31195C7.72772 9.24183 8.23418 9.16895 8.68931 8.90404C8.94922 8.7551 9.17341 8.55111 9.34617 8.30639C9.51893 8.06166 9.63607 7.78211 9.68939 7.48733C9.76914 7.03175 9.68939 6.57341 9.48589 6.17191C9.62247 5.95191 9.69901 5.69433 9.69901 5.41704V5.4175ZM9.07797 5.4175C9.07797 5.85979 8.71818 6.21958 8.27589 6.21958C8.10933 6.21912 7.94704 6.1669 7.81146 6.07016C7.67587 5.97342 7.57371 5.83693 7.5191 5.67958C7.46448 5.52223 7.46012 5.3518 7.50661 5.19186C7.5531 5.03192 7.64815 4.89039 7.7786 4.78683L7.78181 4.78362C7.80747 4.76437 7.83589 4.74512 7.86431 4.72633C7.86431 4.72633 7.86797 4.72633 7.86797 4.72312C7.88081 4.71671 7.89318 4.70708 7.90602 4.70021C7.90922 4.70021 7.91243 4.69746 7.91564 4.69746C7.92847 4.69104 7.94452 4.68462 7.9601 4.67821C7.97614 4.67179 7.99218 4.66583 8.00502 4.65942C8.00822 4.65942 8.01097 4.65621 8.01418 4.65621C8.02702 4.653 8.03985 4.64658 8.05268 4.64337C8.05589 4.64337 8.06185 4.64016 8.06552 4.64016C8.0811 4.63696 8.09393 4.63375 8.10997 4.631H8.11318L8.16085 4.62091C8.16406 4.62091 8.17002 4.62091 8.17368 4.61771C8.18652 4.61771 8.19889 4.6145 8.21172 4.6145H8.22777C8.24381 4.6145 8.25985 4.61129 8.27864 4.61129H8.31989C8.33272 4.61129 8.34281 4.61129 8.35518 4.6145H8.3616C8.38681 4.61771 8.41247 4.62091 8.43814 4.62733C8.61895 4.66607 8.78105 4.76556 8.89746 4.90924C9.01387 5.05292 9.07757 5.23212 9.07797 5.41704V5.4175ZM4.10368 0.637083H9.11326L7.96331 4.02875C7.91564 4.03792 7.86797 4.05396 7.82031 4.07L6.61031 1.60187L5.39664 4.05396C5.34898 4.03837 5.29764 4.02875 5.24677 4.01912L4.10368 0.636625V0.637083ZM6.38068 5.14021C6.3221 4.84622 6.17154 4.57849 5.95077 4.37571L6.60985 3.04471L7.27535 4.40458C7.07827 4.60166 6.93481 4.85375 6.87752 5.14021H6.38022H6.38068ZM4.78523 4.63696C4.80081 4.63375 4.81364 4.63054 4.82968 4.62779H4.83885C4.85214 4.62412 4.86452 4.62412 4.87735 4.62091H4.89018C4.90302 4.62091 4.91264 4.61771 4.92502 4.61771H5.04923C5.06206 4.61771 5.07168 4.62091 5.08131 4.62091C5.08772 4.62091 5.09048 4.62091 5.09735 4.62412C5.10973 4.62733 5.11935 4.62733 5.13218 4.63054C5.13539 4.63054 5.1386 4.63054 5.14502 4.63375L5.18947 4.64292H5.19268C5.20552 4.64658 5.21835 4.64979 5.23072 4.65621C5.23393 4.65621 5.23714 4.65942 5.24356 4.65942C5.25318 4.66262 5.26602 4.66583 5.27564 4.67179C5.27885 4.67179 5.28206 4.675 5.28481 4.675C5.29764 4.68141 5.31048 4.68462 5.32331 4.69104H5.32652C5.34123 4.6966 5.35511 4.70416 5.36777 4.7135H5.37097C5.38381 4.71992 5.39664 4.72908 5.40947 4.7355C5.41268 4.7355 5.41268 4.73871 5.41543 4.73871C5.42827 4.74512 5.43835 4.75475 5.45073 4.76116L5.45393 4.76437C5.49197 4.79279 5.52727 4.82487 5.5621 4.8565L5.56531 4.85971C5.70724 5.00921 5.78604 5.20769 5.78531 5.41383C5.77827 5.62198 5.69064 5.81926 5.5409 5.96402C5.39116 6.10878 5.19104 6.1897 4.98277 6.1897C4.7745 6.1897 4.57437 6.10878 4.42463 5.96402C4.2749 5.81926 4.18726 5.62198 4.18023 5.41383C4.17972 5.23535 4.23904 5.06185 4.34871 4.92103C4.45837 4.78021 4.61206 4.68019 4.78523 4.63696V4.63696ZM1.65114 4.6145C2.09389 4.6145 2.45368 4.97475 2.45368 5.41704C2.45368 5.85933 2.09389 6.21958 1.6516 6.21958C1.20931 6.21958 0.848602 5.85979 0.848602 5.4175C0.848602 4.97521 1.20885 4.6145 1.65114 4.6145V4.6145ZM9.05918 7.37596C9.02296 7.57971 8.94223 7.77296 8.82277 7.94195C8.7033 8.11093 8.54803 8.25148 8.36802 8.35358C8.0206 8.55433 7.59389 8.61804 7.14472 8.68175C6.89217 8.7141 6.64133 8.75861 6.39306 8.81512C5.73077 8.97783 5.09414 9.29637 4.47631 9.60208C3.68614 9.9935 2.94089 10.3629 2.25018 10.3629C1.89599 10.3651 1.55027 10.2547 1.26294 10.0476C0.562144 9.56358 0.596977 8.65608 0.679935 8.15925C0.756477 7.69404 0.969602 7.25816 1.17356 6.84062C1.18639 6.81541 1.19602 6.79296 1.20885 6.76729C1.27852 6.79296 1.35185 6.81221 1.42839 6.82504C1.30739 7.50016 1.65114 8.19729 2.32031 8.5415L2.44131 8.6052L2.57148 8.55754C3.12881 8.36 3.64489 8.03825 4.10048 7.60833C4.35206 7.37374 4.57443 7.10967 4.76277 6.82183C4.8361 6.83421 4.90943 6.83741 4.98277 6.83741C5.29805 6.83668 5.60423 6.73168 5.8536 6.53876C6.10297 6.34585 6.28153 6.07586 6.36143 5.77087H6.89631C6.97569 6.07632 7.15423 6.34678 7.40391 6.53981C7.65359 6.73283 7.96029 6.83751 8.27589 6.83741C8.53989 6.83741 8.78464 6.76408 8.99547 6.64033C9.07797 6.87866 9.10364 7.12754 9.05918 7.37596Z" fill="#198754"/>
</svg>
