<svg width="15" height="13" viewBox="0 0 15 13" fill="none" xmlns="http://www.w3.org/2000/svg">
<path d="M7.30479 7.79135C8.02521 7.79135 8.60922 7.20734 8.60922 6.48692C8.60922 5.76651 8.02521 5.1825 7.30479 5.1825C6.58438 5.1825 6.00037 5.76651 6.00037 6.48692C6.00037 7.20734 6.58438 7.79135 7.30479 7.79135Z" fill="#673AB8"/>
<path d="M7.30479 9.47765C5.73694 9.51557 4.17302 9.30423 2.67147 8.85153C1.97784 8.63164 1.3309 8.28527 0.763351 7.8299C0.546779 7.67433 0.366425 7.47376 0.234662 7.24194C0.1029 7.01011 0.0228481 6.75253 0 6.48686C0 5.62437 0.947535 4.7791 2.53476 4.22603C4.07646 3.73595 5.68726 3.49844 7.30479 3.52268C8.90073 3.50038 10.49 3.73361 12.0122 4.2135C12.6802 4.42647 13.3052 4.75611 13.8582 5.18713C14.0711 5.33544 14.2487 5.52874 14.3786 5.75335C14.5084 5.97796 14.5873 6.22838 14.6096 6.48686C14.6096 7.38326 13.5504 8.29166 11.8442 8.85622C10.3717 9.29418 8.84079 9.50376 7.30479 9.47765V9.47765ZM7.30479 4.14672C5.75728 4.12603 4.21634 4.35183 2.73982 4.81563C1.27886 5.3254 0.624038 6.02248 0.624038 6.48529C0.624038 6.9695 1.32791 7.73076 2.87339 8.25932C4.30986 8.69022 5.80554 8.89081 7.30479 8.85361C8.77431 8.87989 10.2392 8.68105 11.6485 8.26401C13.253 7.73233 13.9835 6.97002 13.9835 6.48686C13.9571 6.32106 13.8967 6.16251 13.806 6.02124C13.7153 5.87998 13.5963 5.75905 13.4565 5.66611C12.9617 5.28373 12.4034 4.99159 11.8071 4.80311C10.3509 4.34591 8.83096 4.12432 7.30479 4.14672V4.14672Z" fill="#673AB8"/>
<path d="M4.34112 12.9929C4.09771 12.9984 3.85718 12.9394 3.64403 12.8217C2.89686 12.3907 2.63806 11.1479 2.95165 9.49647C3.29739 7.91608 3.89647 6.40201 4.72567 5.0129V5.0129C5.50349 3.6193 6.49926 2.35913 7.67524 1.28015C8.19344 0.807792 8.79123 0.430989 9.44091 0.167211C9.67589 0.0570861 9.93223 0 10.1917 0C10.4512 0 10.7076 0.0570861 10.9426 0.167211C11.7195 0.614891 11.9767 1.9861 11.6141 3.74604C11.2577 5.24068 10.6741 6.67183 9.88389 7.9896C9.13345 9.36674 8.16903 10.6159 7.02667 11.6905C6.48966 12.1814 5.86643 12.5686 5.18848 12.8327C4.91706 12.9334 4.63058 12.9876 4.34112 12.9929V12.9929ZM5.26622 5.32283C4.47527 6.65299 3.90109 8.10058 3.56525 9.61126C3.27671 11.1322 3.55377 12.0469 3.95658 12.2796C4.37399 12.5212 5.38727 12.2921 6.61761 11.2173C7.70812 10.1878 8.62863 8.99203 9.3449 7.67445C10.102 6.41464 10.6617 5.04636 11.0047 3.61716C11.3459 1.96054 11.0511 0.946215 10.6326 0.705157C10.4758 0.645063 10.3082 0.618162 10.1404 0.626155C9.97266 0.634148 9.80838 0.676862 9.65796 0.751595C9.07968 0.990225 8.54802 1.329 8.08743 1.75235C6.96389 2.78587 6.01271 3.99228 5.26987 5.32596L5.26622 5.32283Z" fill="#673AB8"/>
<path d="M10.2669 12.9997C9.55989 12.9997 8.66192 12.5718 7.72691 11.7678C6.53033 10.679 5.51772 9.40384 4.72829 7.99173V7.99173C3.90949 6.62174 3.31516 5.12958 2.96784 3.57181C2.81721 2.88646 2.7893 2.17982 2.8854 1.48472C2.90762 1.22687 2.98613 0.977027 3.11541 0.752817C3.24469 0.528607 3.42158 0.335489 3.63362 0.18708C4.40949 -0.262164 5.72592 0.199603 7.06948 1.39237C8.18638 2.44749 9.13485 3.66766 9.88182 5.01033C10.7001 6.34833 11.3007 7.80782 11.6611 9.33424C11.8182 10.0447 11.8424 10.7782 11.7325 11.4975C11.7064 11.7628 11.6232 12.0193 11.4887 12.2494C11.3541 12.4795 11.1714 12.6778 10.953 12.8306C10.7433 12.9468 10.5065 13.0052 10.2669 12.9997V12.9997ZM5.26832 7.67762C6.02564 9.02715 6.99293 10.2475 8.13389 11.293C9.30735 12.3026 10.2382 12.5197 10.6384 12.2843C11.0558 12.0417 11.3637 11.0514 11.0464 9.44903C10.6989 7.9917 10.1228 6.59855 9.3397 5.3213C8.62687 4.03625 7.72156 2.86787 6.65519 1.85675C5.39042 0.733896 4.36462 0.482925 3.94668 0.725026C3.81642 0.830884 3.70952 0.962601 3.63273 1.11186C3.55595 1.26112 3.51094 1.42468 3.50057 1.59221C3.41761 2.21212 3.44463 2.8418 3.5804 3.45232C3.91449 4.94205 4.48449 6.36882 5.26885 7.67867L5.26832 7.67762Z" fill="#673AB8"/>
</svg>
