<svg width="17" height="11" viewBox="0 0 17 11" fill="none" xmlns="http://www.w3.org/2000/svg">
<path d="M15.788 0H1.22264C0.898976 0.00195234 0.589127 0.131392 0.36026 0.36026C0.131393 0.589127 0.00195283 0.898976 4.91962e-07 1.22264V9.39836C-0.000290019 9.72369 0.128093 10.0359 0.357141 10.267C0.586189 10.498 0.897313 10.6291 1.22264 10.6316H15.7773C16.1016 10.6316 16.4126 10.5028 16.6419 10.2735C16.8712 10.0442 17 9.73325 17 9.40899V1.22264C17.0011 1.06266 16.9706 0.904038 16.9102 0.755888C16.8498 0.607739 16.7608 0.472983 16.6481 0.359366C16.5355 0.245749 16.4015 0.155512 16.2539 0.0938392C16.1063 0.0321669 15.9479 0.000276251 15.788 0V0ZM9.56846 8.5053H7.44214V5.31581L5.84739 7.35709L4.25265 5.31581V8.5053H2.12633V2.12633H4.25265L5.84739 4.25265L7.44214 2.12633H9.56846V8.5053ZM12.7473 9.03688L10.1 5.31581H11.6948V2.12633H13.8211V5.31581H15.4159L12.7473 9.03688Z" fill="#EA7130"/>
</svg>
