<svg width="13" height="13" viewBox="0 0 13 13" fill="none" xmlns="http://www.w3.org/2000/svg">
<path fill-rule="evenodd" clip-rule="evenodd" d="M7.64678 0C7.55754 0.00101467 7.46907 0.0167002 7.38492 0.0464285C8.13289 0.537643 7.25492 1.25079 7.66349 1.85714C7.63491 1.65417 7.66711 1.44728 7.75603 1.2626C7.84494 1.07791 7.98658 0.923711 8.16307 0.819464C8.29539 0.709429 8.37989 0.669964 8.35157 0.487964C8.30699 0.189893 7.90957 0 7.64678 0ZM8.71464 0.192214C8.61157 0.713607 8.48249 0.732643 8.10039 1.06832C7.9512 1.1857 7.84589 1.34989 7.80142 1.53444C7.75695 1.71898 7.77591 1.91312 7.85524 2.08557C6.27667 1.47271 4.25332 1.10221 2.76992 2.16264C2.23646 2.54382 1.91053 3.09121 1.25264 3.31454C0.827352 3.45986 0.409495 3.41714 0.143924 3.83871C0.0464573 3.96045 -0.0044581 4.11292 0.000306503 4.26879C0.00507111 4.42466 0.0652041 4.57373 0.169924 4.68929C0.248852 4.77054 0.402066 4.82254 0.465209 4.90518C0.501888 4.95161 0.500959 4.99804 0.535781 5.05979C0.597173 5.20377 0.686127 5.33437 0.797638 5.44421C0.865424 5.50039 1.10035 5.55518 1.14028 5.61507C1.18996 5.68982 1.05996 5.9865 1.16907 6.03293C1.24289 6.06682 1.45785 5.6875 1.47874 5.65407C1.43603 5.95261 1.37985 6.48236 1.71553 6.04129C1.87478 5.83189 1.88453 5.76271 2.15242 5.71629C2.68114 5.62573 3.22289 5.64575 3.74348 5.77508C4.26407 5.90441 4.75221 6.14025 5.17708 6.4677C5.60195 6.79516 5.95434 7.20712 6.212 7.67761C6.46966 8.14809 6.627 8.66687 6.6741 9.20121C6.62396 8.96907 6.32078 8.59764 6.03849 8.68586C5.91824 8.723 5.87367 8.93054 5.79474 9.05079C5.6951 9.20336 5.57211 9.33935 5.43028 9.45379C5.4545 9.22871 5.44322 9.00122 5.39685 8.77964C5.31235 9.12693 5.14289 9.70311 4.71621 9.60979C4.57407 9.58808 4.44089 9.52687 4.33187 9.43312C4.22285 9.33937 4.14238 9.21686 4.09964 9.07957C4.04439 8.72671 4.41721 8.31304 3.81782 8.28379C2.61532 8.22482 2.89342 9.99329 3.60332 10.4543C3.44017 10.4724 3.28102 10.5167 3.13207 10.5857C3.58265 10.8476 4.09037 10.9954 4.61109 11.0164C5.13181 11.0374 5.64977 10.9309 6.11998 10.7062C6.59018 10.4815 6.9984 10.1453 7.30914 9.72696C7.61989 9.3086 7.82377 8.82068 7.90307 8.30561C8.06843 9.05909 7.9622 9.84678 7.60314 10.5295C7.45285 10.815 7.26033 11.076 7.03207 11.304C6.89278 11.4432 6.617 11.5965 6.52646 11.7409C7.08993 11.6664 7.64057 11.5151 8.16307 11.2914C7.62224 12.0284 6.90343 12.6162 6.07378 13C6.96463 12.9369 7.82578 12.6531 8.57958 12.1742C9.33337 11.6952 9.95611 11.0362 10.3916 10.2565C10.2528 11.0363 9.94458 11.7762 9.4886 12.4238C10.1019 12.0132 10.6237 11.4803 11.0212 10.8585C11.4187 10.2366 11.6833 9.53928 11.7984 8.81029C11.9125 9.34396 11.9452 9.89182 11.8955 10.4353C12.3994 9.73533 12.7399 8.93123 12.8919 8.08222C13.0438 7.23322 13.0033 6.36093 12.7734 5.52964C12.5975 4.88347 12.3336 4.26452 11.9892 3.69014C11.856 3.46632 11.7101 3.25023 11.5524 3.04293C11.4906 2.96261 11.1605 2.66871 11.1605 2.57864C11.1577 2.58762 11.1554 2.58762 11.1535 2.57864C11.1535 4.095 9.52853 5.04446 8.16771 4.65075C8.69449 4.6094 9.19141 4.38958 9.57635 4.0276C9.96129 3.66562 10.2112 3.18314 10.2849 2.65989C10.347 2.13077 10.2247 1.59642 9.9388 1.14691C9.65285 0.697398 9.22021 0.36022 8.71464 0.192214Z" fill="#900728"/>
</svg>
