<svg width="12" height="12" viewBox="0 0 12 12" fill="none" xmlns="http://www.w3.org/2000/svg">
<path d="M8.2541 12C8.12414 12 7.99519 11.9772 7.87308 11.9327L0.739234 9.34275C0.600564 9.29246 0.473175 9.21532 0.364361 9.11573C0.255547 9.01614 0.167447 8.89607 0.105103 8.76238C0.042759 8.6287 0.007397 8.48403 0.00104159 8.33666C-0.00531382 8.18929 0.0174621 8.04211 0.0680654 7.90355L2.68588 0.736277C2.78819 0.457529 2.9967 0.230627 3.26583 0.105178C3.53496 -0.0202708 3.84281 -0.0340609 4.12208 0.0668227L11.2564 2.65678C11.395 2.70707 11.5224 2.78422 11.6312 2.8838C11.74 2.98339 11.8281 3.10347 11.8905 3.23715C11.9528 3.37084 11.9882 3.51551 11.9945 3.66288C12.0009 3.81025 11.9781 3.95742 11.9275 4.09598L11.7025 4.71186C11.673 4.79409 11.6222 4.86705 11.5553 4.92335C11.4885 4.97964 11.408 5.01728 11.3219 5.03244C11.2375 5.04843 11.1503 5.04183 11.0693 5.0133C10.9882 4.98478 10.9162 4.93535 10.8603 4.87001C10.718 4.70708 10.5423 4.57678 10.345 4.48802C10.1477 4.39926 9.93361 4.35413 9.7173 4.3557H9.71173C9.32725 4.34927 8.9559 4.49552 8.67906 4.7624C8.40222 5.02928 8.24247 5.39502 8.23481 5.77947C8.24481 6.16307 8.4062 6.52712 8.68372 6.79212C8.96125 7.05712 9.33236 7.20153 9.71601 7.19381H9.72158C9.81824 7.19352 9.91467 7.1842 10.0096 7.16595C10.0949 7.149 10.1831 7.15534 10.2651 7.1843C10.3471 7.21326 10.4198 7.26377 10.4755 7.33053C10.533 7.3981 10.5716 7.47971 10.5873 7.56703C10.603 7.65436 10.5954 7.7443 10.565 7.82769L9.30842 11.2684C9.22832 11.4833 9.08437 11.6686 8.89591 11.7994C8.70745 11.9302 8.48349 12.0002 8.2541 12ZM3.74064 0.373263C3.58723 0.37333 3.43754 0.42046 3.31178 0.508292C3.18601 0.596124 3.09021 0.720428 3.03732 0.864425L0.419079 8.03385C0.385407 8.1262 0.370272 8.22429 0.37454 8.3225C0.378808 8.42071 0.402395 8.51711 0.443953 8.6062C0.48551 8.69528 0.544222 8.7753 0.616731 8.84168C0.68924 8.90805 0.774123 8.95948 0.866525 8.99303L8.0008 11.5808C8.18701 11.6481 8.3923 11.6389 8.57173 11.5552C8.75117 11.4715 8.89015 11.3202 8.95827 11.1343L10.2149 7.69355C10.2225 7.67229 10.2243 7.64942 10.2202 7.62723C10.2162 7.60504 10.2064 7.5843 10.1917 7.56711C10.1787 7.55098 10.1615 7.53873 10.142 7.5317C10.1225 7.52467 10.1015 7.52313 10.0812 7.52725C9.96322 7.54994 9.84341 7.56157 9.7233 7.56197H9.71644C9.23408 7.56956 8.7683 7.38602 8.42078 7.05143C8.07326 6.71683 7.8722 6.25834 7.86151 5.77604C7.86862 5.29229 8.06732 4.8311 8.41401 4.49364C8.76071 4.15619 9.22709 3.97002 9.71087 3.97597H9.71773C9.98799 3.97465 10.2554 4.03171 10.5015 4.14326C10.7477 4.25481 10.9669 4.41821 11.1441 4.62229C11.1576 4.638 11.175 4.64986 11.1946 4.65664C11.2141 4.66341 11.2352 4.66487 11.2555 4.66086C11.2773 4.65713 11.2977 4.64766 11.3147 4.63342C11.3316 4.61919 11.3445 4.6007 11.3519 4.57985L11.5769 3.9644C11.6107 3.87202 11.6259 3.77389 11.6216 3.67564C11.6174 3.57738 11.5938 3.48092 11.5523 3.39179C11.5107 3.30265 11.452 3.22259 11.3794 3.15619C11.3069 3.08978 11.2219 3.03833 11.1295 3.00479L3.99479 0.418265C3.91334 0.388564 3.82733 0.373334 3.74064 0.373263V0.373263Z" fill="black"/>
<path d="M9.71686 6.64266C9.48549 6.64306 9.26344 6.55153 9.09955 6.3882C8.93567 6.22488 8.84337 6.00314 8.84297 5.77177C8.84258 5.5404 8.93411 5.31834 9.09743 5.15445C9.26075 4.99057 9.48249 4.89827 9.71386 4.89788C9.82852 4.89665 9.94225 4.91843 10.0483 4.96194C10.1544 5.00544 10.2507 5.06979 10.3315 5.15117C10.4538 5.27278 10.5374 5.42793 10.5716 5.59701C10.6058 5.76609 10.5891 5.94152 10.5237 6.10113C10.4582 6.26073 10.3469 6.39736 10.2039 6.49375C10.0608 6.59014 9.89237 6.64195 9.71986 6.64266H9.71686V6.64266ZM9.71686 5.33418C9.60357 5.33773 9.49611 5.38523 9.41723 5.46663C9.33835 5.54802 9.29423 5.65692 9.29423 5.77027C9.29423 5.88361 9.33835 5.99251 9.41723 6.07391C9.49611 6.1553 9.60357 6.2028 9.71686 6.20636C9.83016 6.2028 9.93762 6.1553 10.0165 6.07391C10.0954 5.99251 10.1395 5.88361 10.1395 5.77027C10.1395 5.65692 10.0954 5.54802 10.0165 5.46663C9.93762 5.38523 9.83016 5.33773 9.71686 5.33418Z" fill="black"/>
<path d="M8.26481 11.6674C8.17622 11.6674 8.08832 11.6519 8.00508 11.6216L0.837376 9.01789C0.647359 8.94828 0.492762 8.80606 0.407571 8.62249C0.322381 8.43893 0.313569 8.22905 0.383073 8.03899L3.00903 0.832287C3.0786 0.642479 3.22051 0.487947 3.40371 0.402489C3.58691 0.317031 3.7965 0.307604 3.98664 0.376269L11.1543 2.97994C11.2487 3.01407 11.3355 3.06649 11.4096 3.13418C11.4837 3.20188 11.5437 3.28352 11.5863 3.37445C11.6288 3.46537 11.6529 3.56379 11.6574 3.66407C11.6618 3.76435 11.6464 3.86451 11.6121 3.95884L11.3828 4.58543C11.3744 4.60835 11.3602 4.62868 11.3415 4.6444C11.3228 4.66011 11.3004 4.67066 11.2764 4.675C11.2523 4.67933 11.2276 4.6773 11.2046 4.66911C11.1816 4.66091 11.1612 4.64684 11.1453 4.62829C10.9683 4.42338 10.749 4.25924 10.5025 4.14716C10.256 4.03507 9.98809 3.9777 9.71729 3.97898C9.23411 3.97141 8.76764 4.15575 8.42016 4.49158C8.07268 4.82741 7.87255 5.28732 7.86365 5.77048C7.87255 6.25364 8.07268 6.71355 8.42016 7.04938C8.76764 7.38521 9.23411 7.56955 9.71729 7.56198C9.84042 7.56202 9.96328 7.55025 10.0842 7.52683C10.1085 7.52205 10.1336 7.52382 10.157 7.53197C10.1804 7.54011 10.2013 7.55434 10.2174 7.57318C10.2335 7.59203 10.2442 7.61481 10.2486 7.6392C10.253 7.66359 10.2508 7.68871 10.2423 7.71198L8.98269 11.1664C8.92867 11.3133 8.83087 11.4402 8.7025 11.5297C8.57412 11.6193 8.42135 11.6674 8.26481 11.6674ZM3.72606 0.485988C3.60138 0.486033 3.47973 0.524369 3.37755 0.595809C3.27537 0.66725 3.1976 0.768349 3.15475 0.885432L0.527507 8.09257C0.500178 8.16753 0.487889 8.24715 0.491344 8.32687C0.494799 8.40659 0.513929 8.48484 0.547642 8.55716C0.581355 8.62949 0.628989 8.69445 0.687822 8.74836C0.746655 8.80226 0.815533 8.84404 0.890521 8.87131L8.05823 11.475C8.20959 11.5298 8.37651 11.5224 8.52241 11.4543C8.66831 11.3863 8.78127 11.2632 8.83654 11.112L10.0867 7.68327C9.96495 7.70521 9.84146 7.71625 9.71772 7.71627C9.19324 7.72383 8.68716 7.52312 8.31043 7.15813C7.93371 6.79313 7.71709 6.29365 7.70807 5.76919C7.7172 5.24481 7.93387 4.74544 8.31058 4.38054C8.68729 4.01564 9.19331 3.81498 9.71772 3.82255C10.0064 3.82133 10.292 3.88162 10.5555 3.99942C10.8191 4.11722 11.0545 4.28982 11.2461 4.50572L11.4646 3.90569C11.5194 3.75439 11.5119 3.58754 11.4438 3.44177C11.3756 3.296 11.2524 3.18324 11.1012 3.12823L3.9335 0.522418C3.86701 0.498235 3.7968 0.485905 3.72606 0.485988V0.485988Z" fill="#6873CF"/>
<path d="M7.78607 5.76961C7.7943 5.2655 8.00243 4.78531 8.36467 4.43464C8.72691 4.08397 9.21361 3.89154 9.71772 3.89968C9.99977 3.8984 10.2788 3.95823 10.5355 4.07505C10.7922 4.19187 11.0206 4.36292 11.2049 4.57642C11.212 4.58463 11.2211 4.59083 11.2313 4.59442C11.2415 4.598 11.2525 4.59884 11.2631 4.59684C11.2737 4.59484 11.2837 4.59008 11.2919 4.58304C11.3001 4.57599 11.3063 4.56691 11.3099 4.5567L11.5379 3.93139C11.5688 3.84677 11.5826 3.75691 11.5787 3.66693C11.5748 3.57696 11.5532 3.48864 11.5151 3.40701C11.4771 3.32538 11.4233 3.25205 11.3569 3.1912C11.2906 3.13035 11.2128 3.08317 11.1282 3.05236L3.96049 0.449544C3.79014 0.387701 3.60222 0.395814 3.43783 0.472109C3.27343 0.548403 3.14593 0.686675 3.08318 0.856702L0.454216 8.06555C0.423396 8.15017 0.409547 8.24004 0.413458 8.33001C0.41737 8.41998 0.438966 8.50831 0.477014 8.58993C0.515061 8.67156 0.568815 8.74489 0.635205 8.80575C0.701595 8.8666 0.779322 8.91378 0.863946 8.94459L8.03165 11.5483C8.20239 11.6103 8.39076 11.602 8.5554 11.5252C8.72004 11.4485 8.84751 11.3096 8.90983 11.139L10.1694 7.68454C10.1732 7.67424 10.1741 7.66313 10.1722 7.65234C10.1703 7.64155 10.1655 7.63147 10.1584 7.62311C10.1513 7.61476 10.1421 7.60843 10.1318 7.60476C10.1215 7.6011 10.1104 7.60023 10.0996 7.60225C9.97378 7.62675 9.8459 7.63909 9.71772 7.63911C9.21368 7.64725 8.72705 7.45488 8.36482 7.1043C8.00259 6.75372 7.79442 6.27364 7.78607 5.76961V5.76961Z" fill="url(#paint0_linear_1793_2059)"/>
<path d="M11.0595 6.05987L10.841 6.50787L11.4762 6.81769L11.6947 6.36969L11.0595 6.05987Z" fill="black"/>
<defs>
<linearGradient id="paint0_linear_1793_2059" x1="5.99586" y1="0.407971" x2="5.99586" y2="11.5898" gradientUnits="userSpaceOnUse">
<stop stop-color="#808DFF"/>
<stop offset="0.298" stop-color="#838FFF"/>
<stop offset="0.478" stop-color="#8B96FF"/>
<stop offset="0.626" stop-color="#99A2FF"/>
<stop offset="0.756" stop-color="#ADB2FF"/>
<stop offset="0.875" stop-color="#C7C8FF"/>
<stop offset="0.9" stop-color="#CECDFF"/>
</linearGradient>
</defs>
</svg>
