<svg width="13" height="10" viewBox="0 0 13 10" fill="none" xmlns="http://www.w3.org/2000/svg">
<path d="M11.9232 0.361023H8.76778C7.68224 0.361023 6.7389 1.11261 6.50164 2.17336C6.26235 1.11261 5.32104 0.361023 4.23551 0.361023H1.0825C0.484484 0.361023 -0.000999451 0.846101 -0.000999451 1.44453V6.99245C-0.000999451 7.59047 0.484078 8.07595 1.0825 8.07595H3.10691C5.41367 8.07595 6.10188 8.62644 6.43136 9.76885C6.4472 9.83223 6.54877 9.83223 6.56664 9.76885C6.89856 8.62684 7.58677 8.07595 9.89109 8.07595H11.9155C12.5135 8.07595 12.999 7.59087 12.999 6.99245V1.44696C12.999 0.850976 12.5184 0.365898 11.9224 0.361429L11.9232 0.361023ZM5.4612 6.35096C5.4612 6.39402 5.42748 6.42978 5.38239 6.42978H1.76421C1.72155 6.42978 1.6854 6.39606 1.6854 6.35096V5.83419C1.6854 5.79154 1.71912 5.75538 1.76421 5.75538H5.38442C5.42708 5.75538 5.46323 5.7891 5.46323 5.83419V6.35096H5.4612ZM5.4612 4.97657C5.4612 5.01923 5.42748 5.05539 5.38239 5.05539H1.76421C1.72155 5.05539 1.6854 5.02167 1.6854 4.97657V4.45981C1.6854 4.41674 1.71912 4.38099 1.76421 4.38099H5.38442C5.42708 4.38099 5.46323 4.41471 5.46323 4.45981V4.97657H5.4612ZM5.4612 3.60219C5.4612 3.64484 5.42748 3.681 5.38239 3.681H1.76421C1.72155 3.681 1.6854 3.64728 1.6854 3.60219V3.08542C1.6854 3.04276 1.71912 3.00661 1.76421 3.00661H5.38442C5.42708 3.00661 5.46323 3.04033 5.46323 3.08542V3.60219H5.4612ZM11.3138 6.34893C11.3138 6.39159 11.2801 6.42774 11.235 6.42774H7.61683C7.57418 6.42774 7.53802 6.39402 7.53802 6.34893V5.83216C7.53802 5.78951 7.57174 5.75335 7.61683 5.75335H11.237C11.2801 5.75335 11.3159 5.78707 11.3159 5.83216V6.34893H11.3138ZM11.3138 4.97454C11.3138 5.01761 11.2801 5.05336 11.235 5.05336H7.61683C7.57418 5.05336 7.53802 5.01964 7.53802 4.97454V4.45778C7.53802 4.41512 7.57174 4.37896 7.61683 4.37896H11.237C11.2801 4.37896 11.3159 4.41268 11.3159 4.45778V4.97454H11.3138ZM11.3138 3.59975C11.3138 3.64241 11.2801 3.67856 11.235 3.67856H7.61683C7.57418 3.67856 7.53802 3.64484 7.53802 3.59975V3.08501C7.53802 3.04236 7.57174 3.0062 7.61683 3.0062H11.237C11.2801 3.0062 11.3159 3.03992 11.3159 3.08501V3.59975H11.3138Z" fill="#7799BB"/>
</svg>
