<svg width="11" height="12" viewBox="0 0 11 12" fill="none" xmlns="http://www.w3.org/2000/svg">
<path d="M6.99989 4H9.49989C9.63249 3.99997 9.75965 3.94727 9.85339 3.8535L10.8534 2.8535C10.9471 2.75974 10.9998 2.63258 10.9998 2.5C10.9998 2.36742 10.9471 2.24026 10.8534 2.1465L9.85339 1.1465C9.75965 1.05273 9.63249 1.00003 9.49989 1H6.99989V4Z" fill="#007055"/>
<path d="M6.99989 11H5.99989V0.5C5.99989 0.367392 5.94721 0.240215 5.85345 0.146447C5.75968 0.0526784 5.6325 0 5.49989 0C5.36728 0 5.24011 0.0526784 5.14634 0.146447C5.05257 0.240215 4.99989 0.367392 4.99989 0.5V3H1.49989C1.3673 3.00003 1.24014 3.05273 1.14639 3.1465L0.146393 4.1465C0.0526577 4.24026 0 4.36742 0 4.5C0 4.63258 0.0526577 4.75974 0.146393 4.8535L1.14639 5.8535C1.24014 5.94727 1.3673 5.99997 1.49989 6H4.99989V11H3.99989C3.86728 11 3.74011 11.0527 3.64634 11.1464C3.55257 11.2402 3.49989 11.3674 3.49989 11.5C3.49989 11.6326 3.55257 11.7598 3.64634 11.8536C3.74011 11.9473 3.86728 12 3.99989 12H6.99989C7.1325 12 7.25968 11.9473 7.35345 11.8536C7.44721 11.7598 7.49989 11.6326 7.49989 11.5C7.49989 11.3674 7.44721 11.2402 7.35345 11.1464C7.25968 11.0527 7.1325 11 6.99989 11Z" fill="#007055"/>
<path d="M9.85339 5.1465C9.75965 5.05273 9.63249 5.00003 9.49989 5H6.99989V8H9.49989C9.63249 7.99997 9.75965 7.94727 9.85339 7.8535L10.8534 6.8535C10.9471 6.75974 10.9998 6.63258 10.9998 6.5C10.9998 6.36742 10.9471 6.24026 10.8534 6.1465L9.85339 5.1465Z" fill="#007055"/>
</svg>
