<svg width="11" height="12" viewBox="0 0 11 12" fill="none" xmlns="http://www.w3.org/2000/svg">
<path d="M5.1191 7.1655C4.91275 7.26031 4.68667 7.38386 4.23409 7.63224C4.06249 7.72876 3.88317 7.82529 3.71629 7.91623C3.70471 7.90465 3.6927 7.89007 3.68112 7.87805C2.78581 6.9214 1.1299 6.24574 1.20025 4.96091C1.22642 4.49288 1.3873 3.26424 4.38037 1.77221C6.84365 0.558161 8.80371 0.894491 9.14218 1.64051C9.62866 2.70398 8.09158 4.68292 5.54766 4.96992C5.26611 5.02702 4.97532 5.02013 4.6968 4.94973C4.41827 4.87934 4.15912 4.74725 3.93851 4.56323C3.80381 4.41695 3.78364 4.40837 3.73388 4.43754C3.65194 4.48044 3.70471 4.61299 3.73388 4.68893C3.83092 4.86462 3.9622 5.01907 4.11996 5.14316C4.27771 5.26724 4.45875 5.35843 4.65235 5.41135C5.65345 5.62773 6.69722 5.52434 7.63642 5.11577C9.17822 4.51905 10.382 2.86013 10.0293 1.46934C9.67542 0.0592435 7.33484 -0.405784 5.12038 0.380988C3.73357 0.848329 2.45228 1.58401 1.34954 2.54611C0.12949 3.68723 -0.0635563 4.67906 0.0153782 5.09432C0.299371 6.56877 2.33194 7.52843 3.14702 8.23926C3.10412 8.26286 3.06809 8.28216 3.03591 8.30061C2.62923 8.50267 1.07885 9.31303 0.692328 10.1702C0.253469 11.1414 0.762682 11.8377 1.09901 11.9312C1.60586 12.0526 2.13797 12.0127 2.62104 11.817C3.10411 11.6214 3.51401 11.2797 3.79351 10.8398C4.03086 10.475 4.17661 10.0583 4.21836 9.62513C4.26011 9.19193 4.19663 8.75506 4.03332 8.35166C4.12967 8.2748 4.23243 8.20634 4.34048 8.14703C4.54811 8.02434 4.74587 7.90336 4.92133 7.80984C5.52208 7.52845 6.17769 7.38356 6.84107 7.38557C8.23358 7.54945 8.50856 8.41815 8.4558 8.78409C8.43111 8.91391 8.37891 9.03695 8.30269 9.14491C8.22647 9.25288 8.12801 9.34326 8.01394 9.40998C7.91741 9.47133 7.88524 9.49192 7.89382 9.53568C7.9054 9.60003 7.95216 9.59703 8.0341 9.58544C8.24331 9.51932 8.42764 9.39146 8.56285 9.21865C8.69806 9.04585 8.77784 8.83619 8.7917 8.61721C8.8346 7.75922 8.01651 6.81801 6.56823 6.82659C6.13457 6.82734 5.70525 6.91288 5.30442 7.07841C5.24007 7.10501 5.17758 7.13361 5.11695 7.16421L5.1191 7.1655ZM3.04921 10.5284C2.58676 11.0316 1.94327 11.2216 1.66528 11.0607C1.36499 10.8891 1.48382 10.1448 2.05137 9.61247C2.38752 9.3096 2.75083 9.03834 3.13672 8.8021C3.20408 8.7592 3.3036 8.70258 3.42329 8.63051C3.44388 8.61892 3.45547 8.61292 3.45547 8.61292L3.52582 8.57002C3.62704 8.9094 3.63625 9.26958 3.55251 9.61368C3.46876 9.95779 3.29507 10.2735 3.04921 10.5284V10.5284Z" fill="#CD6799"/>
</svg>
