<svg width="13" height="11" viewBox="0 0 13 11" fill="none" xmlns="http://www.w3.org/2000/svg">
<path d="M13 3.25041V1.08374H10.8333V1.62541H8.58975C8.47152 1.16088 8.20189 0.748994 7.82345 0.454809C7.44501 0.160624 6.97933 0.000915527 6.5 0.000915527C6.02067 0.000915527 5.55499 0.160624 5.17655 0.454809C4.79811 0.748994 4.52848 1.16088 4.41025 1.62541H2.16667V1.08374H0V3.25041H2.16667V2.70874H4.41025C4.44295 2.83762 4.48775 2.96312 4.54404 3.08358C3.61314 3.44488 2.80013 4.05631 2.19472 4.8504C1.5893 5.6445 1.21501 6.5904 1.11313 7.58374H0.541667C0.398008 7.58374 0.260233 7.64081 0.158651 7.74239C0.0570683 7.84397 0 7.98175 0 8.12541L0 10.2921C0 10.4357 0.0570683 10.5735 0.158651 10.6751C0.260233 10.7767 0.398008 10.8337 0.541667 10.8337H2.70833C2.85199 10.8337 2.98977 10.7767 3.09135 10.6751C3.19293 10.5735 3.25 10.4357 3.25 10.2921V8.12541C3.25 7.98175 3.19293 7.84397 3.09135 7.74239C2.98977 7.64081 2.85199 7.58374 2.70833 7.58374H2.20404C2.31112 6.74531 2.66061 5.95636 3.20964 5.31371C3.75867 4.67105 4.48336 4.20264 5.29479 3.96595C5.65101 4.20569 6.07063 4.33375 6.5 4.33375C6.92938 4.33375 7.34899 4.20569 7.70521 3.96595C8.51664 4.20264 9.24133 4.67105 9.79036 5.31371C10.3394 5.95636 10.6889 6.74531 10.796 7.58374H10.2917C10.148 7.58374 10.0102 7.64081 9.90865 7.74239C9.80707 7.84397 9.75 7.98175 9.75 8.12541V10.2921C9.75 10.4357 9.80707 10.5735 9.90865 10.6751C10.0102 10.7767 10.148 10.8337 10.2917 10.8337H12.4583C12.602 10.8337 12.7398 10.7767 12.8414 10.6751C12.9429 10.5735 13 10.4357 13 10.2921V8.12541C13 7.98175 12.9429 7.84397 12.8414 7.74239C12.7398 7.64081 12.602 7.58374 12.4583 7.58374H11.8869C11.785 6.5904 11.4107 5.6445 10.8053 4.8504C10.1999 4.05631 9.38686 3.44488 8.45596 3.08358C8.51225 2.96312 8.55705 2.83762 8.58975 2.70874H10.8333V3.25041H13ZM6.5 1.08374C6.71426 1.08374 6.92371 1.14728 7.10187 1.26632C7.28002 1.38536 7.41887 1.55455 7.50087 1.7525C7.58286 1.95046 7.60432 2.16828 7.56252 2.37842C7.52072 2.58857 7.41754 2.7816 7.26603 2.93311C7.11453 3.08462 6.92149 3.18779 6.71135 3.22959C6.5012 3.27139 6.28338 3.24994 6.08543 3.16795C5.88747 3.08595 5.71828 2.9471 5.59924 2.76894C5.4802 2.59079 5.41667 2.38134 5.41667 2.16708C5.41667 1.87976 5.5308 1.60421 5.73397 1.40104C5.93713 1.19788 6.21268 1.08374 6.5 1.08374Z" fill="#FFB13B"/>
</svg>
