<svg width="12" height="12" viewBox="0 0 12 12" fill="none" xmlns="http://www.w3.org/2000/svg">
<path d="M12 5.99947C12 9.3136 9.3136 12 6 12C2.6864 12 0 9.3136 0 5.99947C0 2.68587 2.6864 0 6 0C9.3136 0 12 2.68587 12 5.99947V5.99947ZM8.62331 2.21932C8.01361 2.24052 7.48184 2.57665 7.0858 3.04109C6.64681 3.55059 6.35522 4.15499 6.14527 4.77211C5.76937 4.46408 5.47937 4.06539 4.87603 3.89096C4.40947 3.75683 3.92012 3.81196 3.46947 4.14757C3.25581 4.30715 3.10895 4.54785 3.0395 4.77423C2.85818 5.36273 3.2293 5.88654 3.39843 6.07475L3.7669 6.4692C3.84271 6.54661 4.02562 6.74861 3.93656 7.03861C3.84006 7.35407 3.45993 7.55766 3.07078 7.43784C2.89688 7.38376 2.64664 7.2544 2.70284 7.07255C2.72563 6.99779 2.77918 6.94159 2.80834 6.87744C2.83432 6.82177 2.84704 6.78042 2.855 6.75603C2.92604 6.52328 2.82902 6.22108 2.58037 6.14421C2.34815 6.07316 2.11063 6.12936 2.01838 6.42838C1.91393 6.76822 2.07617 7.38429 2.94672 7.65309C3.96678 7.96642 4.82937 7.4108 4.95184 6.68711C5.02925 6.23381 4.82407 5.89609 4.44871 5.46293L4.14332 5.12521C3.95776 4.93965 3.89467 4.62472 4.08607 4.38243C4.24777 4.17779 4.47839 4.09084 4.85535 4.19316C5.4062 4.34214 5.65167 4.72493 6.06097 5.03296C5.89184 5.58752 5.78157 6.14421 5.68136 6.64416L5.61986 7.01635C5.32668 8.55227 5.10347 9.39525 4.5224 9.87983C4.40523 9.96306 4.23823 10.0877 3.98586 10.0967C3.85385 10.1009 3.8109 10.0097 3.80878 9.96996C3.80613 9.87718 3.88407 9.83476 3.93603 9.79288C4.01343 9.75046 4.13113 9.67995 4.12318 9.45569C4.11469 9.18954 3.89414 8.95891 3.57604 8.97004C3.33746 8.978 2.97429 9.20226 2.98807 9.61315C3.00239 10.0373 3.39737 10.3554 3.99381 10.3347C4.31245 10.3241 5.02448 10.1942 5.7259 9.36078C6.54237 8.40488 6.77034 7.309 6.94265 6.50685L7.13405 5.44809C7.24061 5.46081 7.3546 5.46929 7.47866 5.47247C8.49501 5.49421 9.00345 4.96722 9.0114 4.58443C9.01617 4.35274 8.85924 4.12424 8.63921 4.12954C8.48175 4.13431 8.284 4.23876 8.23681 4.45666C8.19069 4.67032 8.56022 4.8633 8.27074 5.05045C8.06556 5.18353 7.69709 5.27737 7.17858 5.20102L7.27295 4.67986C7.4654 3.69161 7.70292 2.47592 8.60316 2.44676C8.6689 2.44358 8.90907 2.44941 8.91438 2.60847C8.91597 2.66148 8.90324 2.67527 8.84068 2.79668C8.77706 2.89105 8.75373 2.97164 8.75638 3.06442C8.7654 3.31678 8.95732 3.48272 9.2346 3.47265C9.60626 3.46046 9.71282 3.09888 9.70699 2.91279C9.69161 2.47592 9.23089 2.1997 8.62225 2.21932H8.62331Z" fill="#414868"/>
</svg>
