<svg width="12" height="12" viewBox="0 0 12 12" fill="none" xmlns="http://www.w3.org/2000/svg">
<path d="M6 12C9.31371 12 12 9.31371 12 6C12 2.68629 9.31371 0 6 0C2.68629 0 0 2.68629 0 6C0 9.31371 2.68629 12 6 12Z" fill="#7799BB"/>
<path d="M8.6112 2.21702C8.00252 2.23825 7.4712 2.57369 7.07575 3.03782C6.63785 3.54662 6.34652 4.15013 6.13661 4.76619C5.76111 4.45843 5.47145 4.06003 4.86905 3.88631C4.40344 3.75265 3.9144 3.80785 3.46468 4.14293C3.25163 4.30206 3.10486 4.54262 3.03508 4.76877C2.85434 5.3564 3.22504 5.87942 3.39341 6.06717L3.76154 6.4617C3.83741 6.53905 4.02018 6.74083 3.93083 7.03013C3.83428 7.34471 3.45508 7.54834 3.06609 7.42834C2.89237 7.37536 2.64277 7.24594 2.69871 7.06373C2.72178 6.98914 2.77514 6.93339 2.80375 6.86896C2.82997 6.81357 2.84252 6.77203 2.85046 6.74766C2.92154 6.5156 2.82443 6.21376 2.57594 6.13714C2.34406 6.06606 2.10683 6.12237 2.01489 6.42089C1.91058 6.76003 2.07286 7.37554 2.94221 7.6436C3.96074 7.95653 4.82234 7.40194 4.94455 6.67862C5.02154 6.22557 4.81698 5.88902 4.44221 5.45609L4.13686 5.11843C3.95188 4.93363 3.88837 4.61868 4.07981 4.37665C4.24135 4.17246 4.47138 4.08533 4.84818 4.18779C5.39815 4.33714 5.64332 4.71874 6.05243 5.0265C5.88351 5.58053 5.77311 6.13659 5.67323 6.63523L5.61231 7.00705C5.31988 8.54083 5.09668 9.38305 4.51661 9.86656C4.39975 9.94963 4.23268 10.0741 3.98086 10.0827C3.84886 10.0868 3.80621 9.99597 3.80437 9.95646C3.80123 9.86379 3.87932 9.82133 3.9312 9.7796C4.00874 9.73733 4.12597 9.66717 4.11803 9.4425C4.10954 9.17702 3.88966 8.9468 3.57175 8.95733C3.3336 8.96545 2.97064 9.18957 2.98431 9.59979C2.99852 10.0235 3.39341 10.341 3.9888 10.3209C4.30708 10.31 5.01784 10.1804 5.71828 9.34779C6.53354 8.39333 6.76154 7.29911 6.93305 6.49825L7.12449 5.44096C7.23083 5.4537 7.34455 5.46219 7.46825 5.46514C8.48363 5.48656 8.99151 4.96059 8.99908 4.57806C9.00406 4.34656 8.84714 4.11874 8.62745 4.12391C8.47015 4.12834 8.27261 4.23302 8.22517 4.4505C8.17883 4.66391 8.54825 4.85646 8.25951 5.04348C8.0544 5.17622 7.68665 5.26982 7.1688 5.19376L7.26295 4.67333C7.45514 3.68637 7.69218 2.47234 8.59145 2.4428C8.65698 2.43948 8.8968 2.44576 8.90234 2.60434C8.904 2.65733 8.89089 2.6708 8.82886 2.79209C8.76572 2.88662 8.74191 2.96711 8.74486 3.0596C8.75354 3.3116 8.94517 3.4772 9.22228 3.46723C9.59335 3.45523 9.70006 3.09394 9.69397 2.9084C9.67901 2.47253 9.21951 2.19708 8.6112 2.21702Z" fill="white"/>
</svg>
