<svg width="15" height="14" viewBox="0 0 15 14" fill="none" xmlns="http://www.w3.org/2000/svg">
<path d="M10.8534 3.05903C11.1985 3.13934 11.5122 3.32007 11.7548 3.57842C11.8883 3.71778 12.0043 3.87289 12.1002 4.04033C12.105 4.05842 11.4781 4.47936 11.0981 4.71511C11.0843 4.72415 11.0295 4.66455 10.9678 4.57302C10.8985 4.45339 10.8 4.35329 10.6816 4.28209C10.5631 4.21089 10.4285 4.17092 10.2903 4.16592C9.85343 4.13612 9.57192 4.36495 9.57405 4.74704C9.57029 4.84086 9.59159 4.93399 9.63578 5.01684C9.7321 5.21587 9.91037 5.33613 10.4707 5.5772C11.5026 6.02102 11.9443 6.31371 12.2189 6.73039C12.373 6.99326 12.4678 7.28663 12.4966 7.58997C12.5255 7.89331 12.4877 8.19929 12.386 8.48651C12.2461 8.80201 12.0242 9.07428 11.7434 9.27502C11.4627 9.47576 11.1333 9.59764 10.7895 9.62799C10.4243 9.66998 10.0554 9.66622 9.69112 9.61681C9.13321 9.52515 8.61927 9.25737 8.22449 8.85263C8.07546 8.68462 7.94931 8.49763 7.84932 8.29653C7.89159 8.26566 7.93606 8.23791 7.98236 8.21351C8.04622 8.17679 8.28889 8.03737 8.51771 7.90486L8.93173 7.66486L9.01847 7.79311C9.1645 8.00217 9.35042 8.18031 9.56553 8.31728C9.78295 8.43662 10.0292 8.49319 10.2769 8.48069C10.5246 8.46819 10.764 8.38712 10.9683 8.2465C11.0729 8.14382 11.1382 8.0077 11.1528 7.86184C11.1674 7.71599 11.1303 7.56963 11.0481 7.44827C10.9358 7.28862 10.707 7.15292 10.0572 6.87194C9.54772 6.69955 9.0838 6.4141 8.70024 6.03699C8.51729 5.82856 8.38215 5.58263 8.30432 5.31645C8.24687 5.01323 8.23842 4.70277 8.27931 4.39688C8.35533 4.04401 8.53824 3.72313 8.80315 3.47794C9.06805 3.23274 9.40208 3.07514 9.75977 3.02657C10.1239 2.9824 10.4925 2.99335 10.8534 3.05903ZM7.46936 3.6609L7.47415 4.25107H5.59776V9.58169H4.27056V4.25107H2.39471V3.67208C2.38962 3.47362 2.39494 3.27503 2.41067 3.07713C2.41759 3.06808 3.55907 3.06329 4.94321 3.06595L7.46245 3.07287L7.46936 3.6609Z" fill="#00A7FC"/>
<path d="M0 6.21028C0.981298 6.21028 1.11753 5.55945 1.11753 4.97461C1.1085 4.50575 1.07136 4.03785 1.00631 3.57344C0.94294 3.11389 0.906867 2.65099 0.898282 2.18717C0.898282 0.651361 1.72792 0 2.90292 0H3.19295V0.919036H2.94443C2.12863 0.919036 1.85297 1.45119 1.85297 2.35586C1.85798 2.75266 1.89035 3.14863 1.94983 3.54098C2.01073 3.96101 2.04309 4.38469 2.04668 4.80911C2.05998 5.87768 1.67417 6.41143 1.05048 6.61259V6.64505C1.6731 6.82865 2.06158 7.39646 2.04668 8.46503C2.04384 8.88947 2.01147 9.31321 1.94983 9.73316C1.89028 10.1314 1.85792 10.5332 1.85297 10.9358C1.85297 11.8698 2.17227 12.3876 2.94443 12.3876H3.19295V13.3039H2.90239C1.75559 13.3039 0.89775 12.7031 0.89775 11.0157C0.906986 10.5576 0.943771 10.1006 1.00791 9.64695C1.07226 9.19962 1.10887 8.74873 1.11753 8.29687C1.11753 7.77908 0.97917 7.0612 0 7.0612V6.21028Z" fill="#00A7FC"/>
<path d="M14.8669 7.06013C13.8856 7.06013 13.7494 7.77748 13.7494 8.29527C13.7587 8.74782 13.7954 9.19939 13.8595 9.64748C13.9245 10.101 13.9616 10.5581 13.9707 11.0162C13.9707 12.7015 13.0996 13.3045 11.9661 13.3045H11.6755V12.3849H11.9108C12.685 12.3684 13.016 11.8671 13.016 10.9332C13.016 10.5325 12.9628 10.1477 12.9192 9.7305C12.8529 9.31088 12.8161 8.88713 12.809 8.46237C12.809 7.39433 13.1964 6.82598 13.8042 6.64239V6.61046C13.1964 6.40931 12.809 5.87502 12.809 4.80698C12.8169 4.38226 12.8537 3.95857 12.9192 3.53885C12.9714 3.14569 13.0037 2.75015 13.016 2.35373C13.016 1.45279 12.7255 0.935001 11.9246 0.916907H11.6761V0H11.9528C13.1278 0 13.9707 0.650829 13.9707 2.18664C13.9615 2.64966 13.9244 3.1117 13.8595 3.57024C13.7954 4.03474 13.7586 4.5026 13.7494 4.97142C13.7494 5.55679 13.8877 6.20655 14.8669 6.20655V7.06013Z" fill="#00A7FC"/>
</svg>
