<svg width="10" height="12" viewBox="0 0 10 12" fill="none" xmlns="http://www.w3.org/2000/svg">
<path d="M3.90249 0.0035693C2.52228 -0.0440214 1.14224 0.384295 0 1.28852L0.761441 1.71683C1.66572 1.05056 2.8078 0.76502 3.90249 0.812611V0.0035693Z" fill="url(#paint0_linear_1777_1931)"/>
<path d="M7.94765 1.812C6.99581 0.812599 5.75845 0.19392 4.42596 0.0511475V0.86019C5.56821 1.05055 6.56761 1.57405 7.37661 2.38309L7.94765 1.812Z" fill="url(#paint1_linear_1777_1931)"/>
<path d="M9.66093 5.71447C9.61337 4.4771 9.13745 3.23974 8.32845 2.19275L7.75725 2.76384C8.42357 3.66807 8.80437 4.66747 8.85193 5.71447H9.66093Z" fill="url(#paint2_linear_1777_1931)"/>
<path d="M8.32845 9.80723C9.13745 8.76023 9.61337 7.52288 9.66093 6.28552H8.85193C8.80437 7.33252 8.42357 8.33192 7.75725 9.23614L8.32845 9.80723Z" fill="url(#paint3_linear_1777_1931)"/>
<path d="M4.42596 11.9488C5.71089 11.8061 6.99581 11.1874 7.94765 10.188L7.37661 9.61688C6.56761 10.4735 5.52049 10.997 4.42596 11.1398V11.9488Z" fill="url(#paint4_linear_1777_1931)"/>
<path d="M0 10.7115C1.14224 11.6157 2.52228 12.044 3.90249 11.9964V11.1874C2.8078 11.235 1.71328 10.9494 0.761441 10.2831L0 10.7115Z" fill="url(#paint5_linear_1777_1931)"/>
<path d="M3.68516 2.69238C4.19381 2.69238 4.66328 2.77901 5.09358 2.95227C5.52387 3.11994 5.89274 3.35467 6.20019 3.65648C6.51312 3.95828 6.75624 4.31317 6.92955 4.72117C7.10286 5.12358 7.18944 5.55952 7.18944 6.02899C7.18944 6.49846 7.10286 6.93719 6.92955 7.34519C6.75624 7.74759 6.51312 8.0997 6.20019 8.4015C5.89274 8.7033 5.52387 8.94083 5.09358 9.11409C4.66328 9.28176 4.19381 9.36559 3.68516 9.36559C3.17103 9.36559 2.69866 9.28176 2.26836 9.11409C1.84355 8.94083 1.47758 8.7033 1.17013 8.4015C0.862685 8.0997 0.622468 7.74759 0.449156 7.34519C0.275845 6.93719 0.18927 6.49846 0.18927 6.02899C0.18927 5.55952 0.275845 5.12358 0.449156 4.72117C0.622468 4.31317 0.862685 3.95828 1.17013 3.65648C1.47758 3.35467 1.84355 3.11994 2.26836 2.95227C2.69866 2.77901 3.17103 2.69238 3.68516 2.69238ZM3.68516 4.28523C3.44478 4.28523 3.21569 4.32994 2.99772 4.41937C2.78539 4.5032 2.59806 4.62336 2.43603 4.77986C2.274 4.93635 2.14535 5.12079 2.05039 5.33316C1.95543 5.54554 1.90787 5.77749 1.90787 6.02899C1.90787 6.28049 1.95543 6.51244 2.05039 6.72481C2.14535 6.93719 2.274 7.12162 2.43603 7.27812C2.59806 7.43462 2.78539 7.55756 2.99772 7.64699C3.21569 7.73083 3.44478 7.77274 3.68516 7.77274C3.92554 7.77274 4.15189 7.73083 4.36422 7.64699C4.58219 7.55756 4.77227 7.43462 4.93429 7.27812C5.10196 7.12162 5.23336 6.93719 5.32831 6.72481C5.42327 6.51244 5.47083 6.28049 5.47083 6.02899C5.47083 5.77749 5.42327 5.54554 5.32831 5.33316C5.23336 5.12079 5.10196 4.93635 4.93429 4.77986C4.77227 4.62336 4.58219 4.5032 4.36422 4.41937C4.15189 4.32994 3.92554 4.28523 3.68516 4.28523Z" fill="black"/>
<defs>
<linearGradient id="paint0_linear_1777_1931" x1="4.83047" y1="-6.6221e-09" x2="4.83047" y2="12" gradientUnits="userSpaceOnUse">
<stop stop-color="#1E90FF"/>
<stop offset="1" stop-color="#FF1E56"/>
</linearGradient>
<linearGradient id="paint1_linear_1777_1931" x1="4.83046" y1="-1.0176e-05" x2="4.83046" y2="12" gradientUnits="userSpaceOnUse">
<stop stop-color="#1E90FF"/>
<stop offset="1" stop-color="#FF1E56"/>
</linearGradient>
<linearGradient id="paint2_linear_1777_1931" x1="4.83046" y1="1.4331e-05" x2="4.83046" y2="12" gradientUnits="userSpaceOnUse">
<stop stop-color="#1E90FF"/>
<stop offset="1" stop-color="#FF1E56"/>
</linearGradient>
<linearGradient id="paint3_linear_1777_1931" x1="4.83046" y1="-2.12962e-05" x2="4.83046" y2="12" gradientUnits="userSpaceOnUse">
<stop stop-color="#1E90FF"/>
<stop offset="1" stop-color="#FF1E56"/>
</linearGradient>
<linearGradient id="paint4_linear_1777_1931" x1="4.83047" y1="-1.16234e-05" x2="4.83047" y2="12" gradientUnits="userSpaceOnUse">
<stop stop-color="#1E90FF"/>
<stop offset="1" stop-color="#FF1E56"/>
</linearGradient>
<linearGradient id="paint5_linear_1777_1931" x1="4.83047" y1="-1.92069e-05" x2="4.83047" y2="12" gradientUnits="userSpaceOnUse">
<stop stop-color="#1E90FF"/>
<stop offset="1" stop-color="#FF1E56"/>
</linearGradient>
</defs>
</svg>
