<svg width="13" height="9" viewBox="0 0 13 9" fill="none" xmlns="http://www.w3.org/2000/svg">
<path d="M10.8738 0.0769224C11.3175 0.180148 11.7207 0.41249 12.0325 0.744631C12.2043 0.924386 12.3534 1.12446 12.4766 1.34041C12.4824 1.36386 11.677 1.90491 11.1886 2.20671C11.1709 2.2187 11.1006 2.14208 11.0208 2.02428C10.9316 1.87091 10.8049 1.74266 10.6527 1.65151C10.5005 1.56036 10.3277 1.50928 10.1503 1.50304C9.58896 1.46446 9.22722 1.75844 9.22983 2.24997C9.22498 2.37073 9.25251 2.49059 9.30958 2.59712C9.43311 2.85253 9.66246 3.00577 10.3828 3.31799C11.7088 3.88875 12.278 4.26509 12.6294 4.79988C12.8279 5.13778 12.9502 5.51501 12.9877 5.90515C13.0252 6.29529 12.9769 6.6889 12.8462 7.05841C12.6666 7.46364 12.3818 7.81342 12.0214 8.07144C11.661 8.32945 11.2382 8.4863 10.7967 8.5257C10.3274 8.57954 9.85323 8.57463 9.38516 8.51111C8.66819 8.3933 8.00772 8.04919 7.50035 7.52909C7.30864 7.31322 7.14634 7.07293 7.01768 6.81447C7.07178 6.77423 7.12875 6.73799 7.18813 6.70606C7.27048 6.65914 7.58219 6.47984 7.87616 6.30939L8.40992 5.99665L8.52146 6.15927C8.70933 6.42794 8.94848 6.65681 9.22513 6.83272C9.50454 6.98597 9.82102 7.05859 10.1393 7.04249C10.4575 7.02638 10.7651 6.92218 11.0276 6.7415C11.163 6.60952 11.2476 6.4341 11.2667 6.24598C11.2858 6.05786 11.238 5.86903 11.1318 5.71257C10.988 5.50668 10.694 5.33363 9.85844 4.97137C9.20327 4.75045 8.60652 4.38427 8.11281 3.90022C7.87769 3.63228 7.70405 3.31614 7.60408 2.97398C7.53015 2.58418 7.51924 2.18505 7.57176 1.7918C7.66985 1.33928 7.90468 0.927857 8.24443 0.613275C8.58419 0.298694 9.01244 0.0961672 9.47116 0.0331384C9.93826 -0.0226782 10.4111 -0.00791854 10.8738 0.0769224ZM6.52511 0.849922L6.53084 1.60781H4.1175V8.46107H2.41565V1.60937H0.00230999V0.865038C-0.00410847 0.610136 0.00285095 0.355072 0.0231596 0.100899C0.0320207 0.0889106 1.49931 0.0831771 3.2783 0.0863045L6.51573 0.0951657L6.52511 0.849922Z" fill="#00A7FC"/>
</svg>
