<svg width="12" height="12" viewBox="0 0 12 12" fill="none" xmlns="http://www.w3.org/2000/svg">
<path d="M10.8157 9.6037C10.2017 9.74238 9.6236 10.0084 9.11889 10.3846C8.34027 10.8732 7.49902 11.2542 6.6181 11.5169C6.51009 11.643 6.36076 11.7265 6.1968 11.7526C5.28069 11.8829 4.35841 11.9655 3.43371 11.9999C2.93527 12.0038 2.62969 11.8713 2.54483 11.6673C2.50987 11.5847 2.49176 11.4959 2.49155 11.4062C2.49134 11.3165 2.50904 11.2277 2.5436 11.1449C2.57817 11.0621 2.62891 10.9871 2.69285 10.9241C2.7568 10.8612 2.83265 10.8117 2.91598 10.7785C2.83808 10.7307 2.76438 10.6763 2.69569 10.616C2.6224 10.5427 2.54483 10.3957 2.52168 10.4497C2.42525 10.6854 2.37468 11.2615 2.11581 11.5212C1.76009 11.8808 1.08721 11.7608 0.689484 11.552C0.252756 11.3202 0.720342 10.775 0.720342 10.775C0.682907 10.794 0.642035 10.8053 0.600159 10.8081C0.558283 10.811 0.516259 10.8054 0.47659 10.7917C0.436921 10.778 0.400417 10.7564 0.369252 10.7283C0.338087 10.7002 0.312899 10.6661 0.295186 10.628C0.0675733 10.248 -0.0325903 9.80512 0.00931968 9.36412C0.119128 8.88064 0.382018 8.44549 0.758915 8.12337C0.699549 7.48123 0.7963 6.83427 1.04092 6.23759C1.36401 5.6156 1.82864 5.07816 2.3974 4.66854C2.3974 4.66854 1.5668 3.74837 1.87624 2.9212C2.07724 2.38033 2.15824 2.38419 2.22425 2.36061C2.45761 2.28868 2.67079 2.16286 2.84655 1.99332C3.08302 1.73298 3.37707 1.53152 3.70523 1.40502C4.03339 1.27852 4.38658 1.23047 4.73661 1.26472C4.73661 1.26472 5.24063 -0.257612 5.70221 0.0381116C5.95757 0.430049 6.17745 0.843989 6.35923 1.27501C6.35923 1.27501 6.90825 0.954426 6.96997 1.074C7.28565 1.91259 7.36322 2.82215 7.19412 3.70208C6.99461 4.54654 6.61444 5.33773 6.0798 6.02116C6.02194 6.11759 6.74453 6.42317 7.20055 7.68707C7.62185 8.84425 7.24683 9.81285 7.31284 9.92085C7.32441 9.94014 7.32827 9.94785 7.32827 9.94785C7.32827 9.94785 7.81128 9.98643 8.7816 9.38726C9.31844 8.99515 9.95236 8.75742 10.6147 8.69981C10.7335 8.67609 10.8568 8.69984 10.9583 8.76597C11.0598 8.83211 11.1314 8.93536 11.1576 9.05362C11.1839 9.17187 11.1629 9.29572 11.0989 9.39862C11.035 9.50152 10.9333 9.57529 10.8157 9.60413V9.6037Z" fill="#414868"/>
</svg>
