<svg width="14" height="11" viewBox="0 0 14 11" fill="none" xmlns="http://www.w3.org/2000/svg">
<path fill-rule="evenodd" clip-rule="evenodd" d="M5.33333 0H1.33333C0.593333 0 0 0.593333 0 1.33333V9.33333C0 10.0647 0.602 10.6667 1.33333 10.6667H12C12.7313 10.6667 13.3333 10.0647 13.3333 9.33333V2.66667C13.3333 1.92667 12.7333 1.33333 12 1.33333H6.66667L5.33333 0Z" fill="#007ACC"/>
<path d="M9.45833 3V4.99967L7.729 3.99967" fill="#B2CDE5"/>
<path d="M11.1873 3.99967L9.45833 4.99967V3" fill="#B2CDE5"/>
<path d="M11.1873 3.99969V6.00003L9.45833 4.99969" fill="#4C89C3"/>
<path d="M7.729 3.99969V6.00003L9.45833 4.99969" fill="#0057A9"/>
<path d="M9.45833 4.99969V7.00003L7.729 6.00003" fill="#0057A9"/>
<path d="M9.459 4.99969L9.45833 7.00003L11.1873 6.0007" fill="#4C89C3"/>
<path d="M11.1873 6V8L9.45833 7" fill="#B2CDE5"/>
<path d="M7.729 6V8L9.45833 7" fill="#B2CDE5"/>
<path d="M9.45833 7V9L7.729 8" fill="#4C89C3"/>
<path d="M9.459 7L9.45833 9L11.1873 8.00067" fill="#0057A9"/>
<path d="M7.729 6V8L6 7" fill="#B2CDE5"/>
<path d="M6 7V9L7.729 8" fill="#0057A9"/>
<path d="M7.729 8V10L6 9" fill="#0057A9"/>
<path d="M7.72967 8L7.729 10L9.45833 9.00067" fill="#4C89C3"/>
<path d="M12.9167 7.00067L11.1873 8L11.1883 6" fill="#B2CDE5"/>
<path d="M12.9167 7V9L11.1873 8" fill="#4C89C3"/>
<path d="M11.1873 8V10L9.45833 9" fill="#0057A9"/>
<path d="M11.1883 8L11.1873 10L12.9167 9.00067" fill="#4C89C3"/>
</svg>
