<svg width="14" height="11" viewBox="0 0 14 11" fill="none" xmlns="http://www.w3.org/2000/svg">
<path fill-rule="evenodd" clip-rule="evenodd" d="M5.33333 0H1.33333C0.593333 0 0 0.593333 0 1.33333V9.33333C0 10.0647 0.602 10.6667 1.33333 10.6667H12C12.7313 10.6667 13.3333 10.0647 13.3333 9.33333V2.66667C13.3333 1.92667 12.7333 1.33333 12 1.33333H6.66667L5.33333 0Z" fill="#003D7D"/>
<path d="M9.02539 5.79501L6.65707 7.90018C6.61834 7.93465 6.57319 7.96114 6.52421 7.97815C6.47523 7.99516 6.42338 8.0024 6.37162 7.99932C6.31986 7.99629 6.2692 7.98309 6.22255 7.96047C6.17589 7.93786 6.13415 7.90627 6.0997 7.86752C6.06525 7.82877 6.03878 7.78361 6.02179 7.73462C6.0048 7.68563 5.99763 7.63378 6.00069 7.58202C6.00374 7.53026 6.01697 7.47961 6.0396 7.43296C6.06224 7.38632 6.09384 7.34459 6.13261 7.31016L8.16903 5.5L6.13261 3.68984C6.09384 3.65541 6.06224 3.61368 6.0396 3.56703C6.01697 3.52039 6.00374 3.46974 6.00069 3.41798C5.99763 3.36622 6.0048 3.31437 6.02179 3.26538C6.03878 3.21639 6.06525 3.17123 6.0997 3.13248C6.13415 3.09373 6.17589 3.06214 6.22255 3.03953C6.2692 3.01691 6.31986 3.00371 6.37162 3.00068C6.42338 2.99764 6.47523 3.00484 6.52421 3.02185C6.57319 3.03886 6.61834 3.06535 6.65707 3.09982L9.02539 5.20499C9.06706 5.24202 9.1004 5.28745 9.12324 5.3383C9.14607 5.38915 9.15788 5.44426 9.15788 5.5C9.15788 5.55574 9.14607 5.61085 9.12324 5.6617C9.1004 5.71255 9.06706 5.75798 9.02539 5.79501ZM12.1839 7.21045H9.02611C8.92143 7.21045 8.82103 7.25204 8.74701 7.32606C8.67298 7.40009 8.6314 7.50048 8.6314 7.60517C8.6314 7.70986 8.67298 7.81026 8.74701 7.88428C8.82103 7.9583 8.92143 7.99989 9.02611 7.99989H12.1839C12.2886 7.99989 12.389 7.9583 12.463 7.88428C12.537 7.81026 12.5786 7.70986 12.5786 7.60517C12.5786 7.50048 12.537 7.40009 12.463 7.32606C12.389 7.25204 12.2886 7.21045 12.1839 7.21045Z" fill="#B2CDE5"/>
</svg>
