<svg width="14" height="11" viewBox="0 0 14 11" fill="none" xmlns="http://www.w3.org/2000/svg">
<path fill-rule="evenodd" clip-rule="evenodd" d="M5.33333 0H1.33333C0.593333 0 0 0.593333 0 1.33333V9.33333C0 10.0647 0.602 10.6667 1.33333 10.6667H12C12.7313 10.6667 13.3333 10.0647 13.3333 9.33333V2.66667C13.3333 1.92667 12.7333 1.33333 12 1.33333H6.66667L5.33333 0Z" fill="#673AB8"/>
<path d="M9.37144 7.59599C9.70394 7.59599 9.97348 7.32645 9.97348 6.99395C9.97348 6.66145 9.70394 6.39191 9.37144 6.39191C9.03894 6.39191 8.7694 6.66145 8.7694 6.99395C8.7694 7.32645 9.03894 7.59599 9.37144 7.59599Z" fill="#B2CDE5"/>
<path d="M9.37144 8.37429C8.64782 8.39179 7.92601 8.29425 7.23298 8.08531C6.91285 7.98382 6.61426 7.82396 6.35232 7.61379C6.25236 7.54199 6.16912 7.44941 6.10831 7.34242C6.04749 7.23542 6.01055 7.11654 6 6.99392C6 6.59585 6.43732 6.20573 7.16989 5.95046C7.88144 5.72427 8.62489 5.61465 9.37144 5.62584C10.108 5.61555 10.8415 5.72319 11.5441 5.94468C11.8524 6.04297 12.1409 6.19511 12.3961 6.39405C12.4944 6.4625 12.5763 6.55171 12.6363 6.65538C12.6962 6.75905 12.7326 6.87462 12.7429 6.99392C12.7429 7.40765 12.254 7.82691 11.4666 8.08747C10.7869 8.28961 10.0804 8.38634 9.37144 8.37429V8.37429ZM9.37144 5.91386C8.65721 5.90431 7.946 6.00852 7.26453 6.22258C6.59024 6.45786 6.28802 6.77959 6.28802 6.9932C6.28802 7.21668 6.61288 7.56803 7.32618 7.81198C7.98917 8.01086 8.67948 8.10344 9.37144 8.08627C10.0497 8.0984 10.7258 8.00663 11.3762 7.81414C12.1168 7.56875 12.4539 7.21692 12.4539 6.99392C12.4418 6.9174 12.4139 6.84422 12.372 6.77902C12.3301 6.71382 12.2752 6.65801 12.2107 6.61512C11.9823 6.43863 11.7246 6.3038 11.4495 6.2168C10.7773 6.00579 10.0758 5.90352 9.37144 5.91386V5.91386Z" fill="#B2CDE5"/>
<path d="M8.0036 9.9967C7.89126 9.99928 7.78024 9.97203 7.68187 9.91772C7.33702 9.7188 7.21757 9.14517 7.3623 8.38299C7.52188 7.65357 7.79838 6.95477 8.18108 6.31364V6.31364C8.54007 5.67045 8.99966 5.08883 9.54242 4.59084C9.78159 4.37283 10.0575 4.19892 10.3573 4.07717C10.4658 4.02635 10.5841 4 10.7039 4C10.8237 4 10.942 4.02635 11.0504 4.07717C11.409 4.2838 11.5277 4.91666 11.3604 5.72894C11.1958 6.41878 10.9265 7.07931 10.5618 7.68751C10.2154 8.32311 9.77032 8.89967 9.24309 9.39562C8.99523 9.62218 8.70759 9.80091 8.39469 9.92277C8.26942 9.96927 8.13719 9.99426 8.0036 9.9967V9.9967ZM8.43057 6.45669C8.06551 7.07061 7.80051 7.73873 7.6455 8.43597C7.51233 9.13795 7.64021 9.5601 7.82612 9.66751C8.01877 9.77901 8.48644 9.67329 9.05428 9.1772C9.5576 8.70206 9.98245 8.15017 10.313 7.54205C10.6624 6.9606 10.9208 6.32909 11.0791 5.66946C11.2366 4.90486 11.1005 4.43671 10.9074 4.32546C10.835 4.29772 10.7576 4.28531 10.6802 4.28899C10.6028 4.29268 10.5269 4.3124 10.4575 4.34689C10.1906 4.45703 9.94524 4.61339 9.73267 4.80878C9.21411 5.28579 8.7751 5.84259 8.43225 6.45813L8.43057 6.45669Z" fill="#B2CDE5"/>
<path d="M10.7386 9.99985C10.4123 9.99985 9.99781 9.80238 9.56626 9.43128C9.014 8.92876 8.54664 8.34023 8.18229 7.68848V7.68848C7.80438 7.05618 7.53007 6.36749 7.36977 5.64852C7.30025 5.33221 7.28736 5.00607 7.33172 4.68525C7.34197 4.56624 7.37821 4.45093 7.43788 4.34745C7.49755 4.24397 7.57919 4.15484 7.67705 4.08634C8.03515 3.879 8.64273 4.09212 9.26283 4.64263C9.77832 5.12961 10.2161 5.69276 10.5608 6.31245C10.9385 6.92999 11.2157 7.6036 11.382 8.30811C11.4545 8.63603 11.4657 8.97454 11.415 9.30654C11.403 9.42897 11.3646 9.54735 11.3025 9.65355C11.2404 9.75975 11.156 9.85127 11.0552 9.92182C10.9585 9.97546 10.8492 10.0024 10.7386 9.99985V9.99985ZM8.43153 7.54351C8.78106 8.16637 9.2275 8.72962 9.7541 9.21214C10.2957 9.67812 10.7253 9.7783 10.91 9.66969C11.1027 9.55771 11.2448 9.10064 11.0983 8.36109C10.9379 7.68847 10.6721 7.04548 10.3106 6.45598C9.98163 5.86288 9.56379 5.32363 9.07162 4.85696C8.48788 4.33872 8.01444 4.22288 7.82154 4.33462C7.76142 4.38348 7.71208 4.44427 7.67664 4.51316C7.6412 4.58205 7.62043 4.65754 7.61564 4.73486C7.57735 5.02097 7.58983 5.3116 7.65249 5.59337C7.80668 6.28094 8.06976 6.93945 8.43177 7.54399L8.43153 7.54351Z" fill="#B2CDE5"/>
</svg>
