<svg width="14" height="11" viewBox="0 0 14 11" fill="none" xmlns="http://www.w3.org/2000/svg">
<path fill-rule="evenodd" clip-rule="evenodd" d="M5.33333 0H1.33333C0.593333 0 0 0.593333 0 1.33333V9.33333C0 10.0647 0.602 10.6667 1.33333 10.6667H12C12.7313 10.6667 13.3333 10.0647 13.3333 9.33333V2.66667C13.3333 1.92667 12.7333 1.33333 12 1.33333H6.66667L5.33333 0Z" fill="#9D7546"/>
<path d="M11.5151 8.79655L11.7079 8.60498C12.6002 8.63412 12.6139 8.60284 12.6532 8.51112L12.8983 7.91433L12.9165 7.85775L12.8966 7.80825C12.8861 7.78211 12.8537 7.70411 12.2966 7.17289V6.89345C12.9394 6.27416 12.9257 6.24244 12.8891 6.1518L12.645 5.54879C12.6084 5.45836 12.5944 5.423 11.7086 5.44722L11.5157 5.24793C11.5356 4.95437 11.5255 4.65956 11.4855 4.36806L11.4606 4.3117L10.8233 4.03312C10.7295 3.99027 10.6965 3.97484 10.0948 4.63013L9.82433 4.62606C9.20482 3.96477 9.17546 3.97677 9.08267 4.01427L8.49017 4.25384C8.39738 4.29134 8.36459 4.30463 8.40059 5.20464L8.20923 5.39536C7.31736 5.36622 7.30365 5.39793 7.26486 5.48922L7.01929 6.08623L7 6.14344L7.02014 6.19316C7.03064 6.21887 7.06172 6.29602 7.62015 6.82788V7.10646C6.97729 7.72575 6.99121 7.75747 7.02807 7.84833L7.27193 8.45198C7.30922 8.54434 7.32251 8.57712 8.20816 8.55398L8.40102 8.75434C8.38103 9.04744 8.39087 9.34181 8.43038 9.63292L8.45524 9.68971L9.0966 9.97C9.18982 10.009 9.22218 10.0229 9.82219 9.36999L10.0926 9.37342C10.713 10.0356 10.7447 10.0227 10.8353 9.98607L11.4266 9.74714C11.52 9.71007 11.5526 9.697 11.5151 8.79655ZM8.97403 7.39853C8.89926 7.20311 8.88386 6.98996 8.92978 6.78582C8.97569 6.58169 9.08087 6.39566 9.23213 6.25108C9.38338 6.10649 9.57396 6.0098 9.77996 5.97313C9.98596 5.93646 10.1982 5.96145 10.39 6.04496C10.5819 6.12846 10.7448 6.26677 10.8584 6.44252C10.9719 6.61828 11.031 6.82365 11.0283 7.03287C11.0255 7.24209 10.961 7.44584 10.8429 7.61855C10.7248 7.79126 10.5583 7.92524 10.3643 8.00368C10.0997 8.10718 9.80479 8.10161 9.54422 7.9882C9.28366 7.87478 9.07864 7.66276 8.97403 7.39853V7.39853Z" fill="#B2CDE5"/>
</svg>
