<svg width="14" height="11" viewBox="0 0 14 11" fill="none" xmlns="http://www.w3.org/2000/svg">
<path fill-rule="evenodd" clip-rule="evenodd" d="M5.33333 0H1.33333C0.593333 0 0 0.593333 0 1.33333V9.33333C0 10.0647 0.602 10.6667 1.33333 10.6667H12C12.7313 10.6667 13.3333 10.0647 13.3333 9.33333V2.66667C13.3333 1.92667 12.7333 1.33333 12 1.33333H6.66667L5.33333 0Z" fill="#8CAB51"/>
<path d="M7 6.74384C7.14139 6.74607 7.27938 6.70045 7.39159 6.6144C7.49535 6.5275 7.56632 6.40777 7.59276 6.27504C7.63431 6.03211 7.65222 5.78573 7.64623 5.53934C7.64823 5.19199 7.65448 4.96316 7.66498 4.85288C7.67609 4.7076 7.7114 4.5652 7.76943 4.43155C7.81365 4.33438 7.87796 4.24768 7.9581 4.17715C8.04262 4.10885 8.14078 4.05942 8.24599 4.03221C8.37298 4.00706 8.50244 3.99658 8.63183 4.00098H8.80675V4.49077H8.71004C8.5567 4.47126 8.40187 4.51332 8.27947 4.60773C8.18886 4.76607 8.15162 4.94937 8.17327 5.13051C8.18162 5.47516 8.17019 5.82 8.13903 6.16333C8.11634 6.34761 8.05059 6.52396 7.94711 6.67812C7.83258 6.81747 7.68665 6.92769 7.52128 6.99974C7.7344 7.08144 7.91106 7.23699 8.01908 7.43806C8.14191 7.74447 8.19468 8.07447 8.17352 8.40391C8.17352 8.80957 8.17768 9.05114 8.18601 9.12861C8.1892 9.23936 8.2342 9.3448 8.31196 9.42374C8.43239 9.49301 8.57162 9.52249 8.70979 9.50795H8.8065V9.9985H8.63158C8.48217 10.0054 8.33262 9.98852 8.18851 9.94852C8.05884 9.90316 7.9443 9.82271 7.85765 9.71612C7.76553 9.59799 7.70676 9.45733 7.68747 9.30878C7.65567 9.04062 7.6419 8.77063 7.64623 8.50062C7.65296 8.24078 7.63505 7.9809 7.59276 7.72444C7.5659 7.59166 7.49502 7.47182 7.39159 7.38433C7.27978 7.29736 7.14163 7.25117 7 7.25338V6.74384Z" fill="#B2CDE5"/>
<path d="M12.9905 7.25242C12.8489 7.2502 12.7108 7.2964 12.5989 7.38336C12.4955 7.47086 12.4246 7.59069 12.3978 7.72347C12.3556 7.98019 12.3379 8.24033 12.3448 8.5004C12.3488 8.77043 12.3347 9.04042 12.3026 9.30857C12.2833 9.45711 12.2245 9.59777 12.1324 9.7159C12.0457 9.82249 11.9312 9.90295 11.8015 9.9483C11.6574 9.9883 11.5079 10.0052 11.3585 9.99828H11.1835V9.50873H11.2802C11.4184 9.52327 11.5576 9.4938 11.6781 9.42452C11.7563 9.34535 11.8015 9.2394 11.8045 9.12814C11.8128 9.05117 11.817 8.80961 11.817 8.40344C11.7959 8.074 11.8486 7.744 11.9715 7.43759C12.0796 7.23672 12.2562 7.08135 12.4692 6.99977C12.3043 6.92766 12.1587 6.81754 12.0444 6.6784C11.9409 6.52425 11.8752 6.34789 11.8525 6.16362C11.8213 5.82028 11.8099 5.47544 11.8183 5.13079C11.8399 4.94965 11.8027 4.76635 11.7121 4.60801C11.5897 4.5136 11.4348 4.47155 11.2815 4.49106H11.1848V4.00101H11.3597C11.4888 3.99668 11.6179 4.00716 11.7445 4.03225C11.8495 4.05963 11.9474 4.10913 12.0317 4.17744C12.1118 4.24796 12.1761 4.33466 12.2203 4.43183C12.2784 4.56548 12.3137 4.70788 12.3248 4.85316C12.3351 4.96345 12.3414 5.19227 12.3435 5.53962C12.3373 5.78624 12.3551 6.03288 12.3965 6.27607C12.4231 6.40853 12.4941 6.52797 12.5977 6.61468C12.7099 6.70073 12.8479 6.74635 12.9893 6.74413L12.9905 7.25242Z" fill="#B2CDE5"/>
</svg>
