<svg width="14" height="11" viewBox="0 0 14 11" fill="none" xmlns="http://www.w3.org/2000/svg">
<path fill-rule="evenodd" clip-rule="evenodd" d="M5.33333 0H1.33333C0.593333 0 0 0.593333 0 1.33333V9.33333C0 10.0647 0.602 10.6667 1.33333 10.6667H12C12.7313 10.6667 13.3333 10.0647 13.3333 9.33333V2.66667C13.3333 1.92667 12.7333 1.33333 12 1.33333H6.66667L5.33333 0Z" fill="#0065A9"/>
<path fill-rule="evenodd" clip-rule="evenodd" d="M6.71913 8.2694C6.741 8.2694 6.76185 8.27353 6.7811 8.28097C6.76025 8.29306 6.74611 8.31566 6.74611 8.34149C6.74611 8.38012 6.7774 8.41136 6.81602 8.41136C6.84246 8.41136 6.86542 8.39668 6.87731 8.37499C6.88568 8.3952 6.89036 8.41738 6.89036 8.44066C6.89036 8.53524 6.81368 8.6119 6.71913 8.6119C6.62457 8.6119 6.54787 8.53524 6.54787 8.44066C6.54787 8.34606 6.62457 8.2694 6.71913 8.2694ZM6.71913 8.7336C6.55759 8.7336 6.42614 8.6022 6.42614 8.44066C6.42614 8.27912 6.55759 8.1477 6.71913 8.1477C6.88064 8.1477 7.01206 8.27912 7.01206 8.44066C7.01206 8.6022 6.88064 8.7336 6.71913 8.7336ZM11.9848 6.81375C11.1529 9.01812 9.27409 10 7.05911 10C6.01254 10 5.17761 9.64003 4.64362 9.03983L4.64756 9.03723C4.80141 9.04503 4.93908 9.04768 5.07884 9.04768C5.20663 9.04768 5.33163 9.04634 5.4474 9.03983C5.45747 9.03927 5.47008 9.03787 5.48008 9.03723C5.48017 9.03721 5.51579 9.03489 5.49837 9.03461C5.79259 9.01646 6.02065 8.97556 6.23331 8.91488C6.23336 8.91486 6.23341 8.91485 6.23346 8.91483C6.2721 8.90378 6.30958 8.89214 6.34548 8.8797C6.38565 8.86576 6.40692 8.82192 6.393 8.78175C6.37909 8.74156 6.33527 8.72025 6.29508 8.73423C6.02496 8.82782 5.6686 8.87935 5.23185 8.88902H5.23174C5.00951 8.89394 4.76658 8.88808 4.50312 8.87115H4.50309C4.44859 8.79838 4.39814 8.72275 4.352 8.64443L4.27906 8.51107C4.05871 8.07786 3.96224 7.57179 4.01344 7.0222H10.4222C10.9487 7.0222 11.4629 6.82572 11.7069 6.60898C11.2696 6.25346 11.313 5.409 11.5916 5.08676C11.8335 5.28109 12.2235 5.69043 12.1564 6.21151C12.4607 6.05852 12.9893 5.98292 13.4003 6.22011C13.1423 6.72381 12.575 6.8743 11.9848 6.81375ZM4.88327 6.86666H5.74992V5.99997H4.88327V6.86666ZM5.88323 6.86666H6.74997V5.99997H5.88323V6.86666ZM5.88323 5.86665H6.74997V4.99998H5.88323V5.86665ZM6.88326 6.86666H7.74996V5.99997H6.88326V6.86666ZM6.88326 5.86665H7.74996V4.99998H6.88326V5.86665ZM7.88325 6.86666H8.74994V5.99997H7.88325V6.86666ZM7.88325 5.86665H8.74994V4.99998H7.88325V5.86665ZM7.88325 4.86669H8.74994V4H7.88325V4.86669ZM8.88323 6.86666H9.74992V5.99997H8.88323V6.86666Z" fill="#B2CDE5"/>
</svg>
