<svg width="14" height="11" viewBox="0 0 14 11" fill="none" xmlns="http://www.w3.org/2000/svg">
<path fill-rule="evenodd" clip-rule="evenodd" d="M5.33333 0H1.33333C0.593333 0 0 0.593333 0 1.33333V9.33333C0 10.0647 0.602 10.6667 1.33333 10.6667H12C12.7313 10.6667 13.3333 10.0647 13.3333 9.33333V2.66667C13.3333 1.92667 12.7333 1.33333 12 1.33333H6.66667L5.33333 0Z" fill="#CFAE03"/>
<path d="M12.7054 4.58201C13.7472 7.12504 12.7054 8.4923 11.824 9.24614C12.0394 9.99998 11.1809 10.1555 10.8548 9.78459C9.89484 10.1156 7.94455 10.1049 6.54714 8.70768C5.7933 7.95384 6.3813 6.27686 8.3779 5.15386C10.101 4.18463 11.824 3.64617 12.7054 4.58201Z" fill="#B2CDE5"/>
<path d="M8.3779 5.15387C9.85285 4.1853 11.614 3.77973 12.3341 4.4065C13.4394 5.36926 9.99328 7.54721 8.70098 8.06155C7.30099 8.61874 8.05483 9.8923 7.30099 9.8923C6.65484 9.8923 6.76253 9.03077 6.18466 8.22308C5.84328 7.74601 6.6893 6.26267 8.3779 5.15387Z" fill="white"/>
<path d="M8.31879 5.06386C8.03108 5.25278 7.76136 5.4581 7.5149 5.67134L7.39362 5.77857C6.33993 6.73098 5.75683 7.81027 6.09708 8.28576C6.12892 8.33026 6.15925 8.37587 6.18826 8.4227C6.26413 8.5452 6.3294 8.67301 6.39188 8.81736L6.43741 8.92676L6.59885 9.35367C6.77526 9.81082 6.94575 10 7.30099 10C7.62515 10 7.73786 9.84625 7.81773 9.45003L7.85477 9.25623L7.87753 9.14549L7.89135 9.08605L7.90515 9.03411L7.91986 8.98621L7.93639 8.93891L7.95566 8.88875C8.07696 8.58338 8.29545 8.35358 8.67888 8.18733L8.7408 8.16161C9.48586 7.86508 10.67 7.15696 11.4851 6.4853L11.598 6.39062C11.6532 6.34351 11.7065 6.29675 11.7577 6.25036L11.8576 6.15809C12.6352 5.42405 12.897 4.78974 12.4346 4.35235L12.4048 4.32527C11.6603 3.67727 9.88515 4.03526 8.31879 5.06386ZM12.2634 4.48773C12.6267 4.80417 12.413 5.33529 11.7167 5.99487L11.6188 6.0856C11.602 6.10085 11.5849 6.11617 11.5676 6.13155L11.4608 6.22457C11.4242 6.25583 11.3867 6.28733 11.3482 6.31907C10.5785 6.95327 9.46785 7.62365 8.74037 7.92908L8.66116 7.96149C8.18368 8.15153 7.90492 8.43305 7.75549 8.80924L7.72418 8.89228L7.70688 8.94456L7.69127 8.99868C7.68875 9.00806 7.68626 9.01766 7.68378 9.02758L7.66883 9.09135L7.64456 9.20886L7.60684 9.40655L7.5904 9.48388C7.53522 9.72345 7.47275 9.78462 7.30099 9.78462C7.07119 9.78462 6.95762 9.66968 6.81888 9.32462L6.65644 8.89548L6.62857 8.82479C6.55033 8.63272 6.46941 8.4676 6.37137 8.30929C6.33988 8.25845 6.3069 8.20887 6.27224 8.16043C6.08595 7.90009 6.32262 7.31323 6.84033 6.67258L6.92672 6.56826C7.31158 6.11455 7.83142 5.64155 8.43701 5.2439C9.93133 4.2626 11.6147 3.92313 12.2634 4.48773Z" fill="#B2CDE5"/>
<path d="M11.5085 4.56629C12.5089 4.83552 11.4299 5.7929 10.5817 6.4048C9.77789 6.98462 9.15888 7.31157 8.87522 7.4451C8.79639 7.48237 8.52695 6.96006 8.52695 7.22972C8.52695 7.31954 8.37618 7.71175 8.32578 7.7307C8.03178 7.84098 7.41621 8.00855 7.06902 8.00855C6.31711 8.00855 6.65484 6.98462 7.71818 6.04382C7.9103 5.87388 8.03652 5.9049 8.2099 5.9049C8.09424 5.73841 8.09489 5.70739 8.2967 5.57192C9.1942 4.96863 10.3163 4.56586 10.7928 4.49048C10.8716 4.49349 10.9694 4.56586 10.9694 4.62595C11.0577 4.5958 11.4206 4.54239 11.5085 4.56608V4.56629Z" fill="#B2CDE5"/>
<path d="M8.44188 6.22867C8.65403 6.06778 8.79597 6.01113 8.89396 5.68461C9.01587 5.71068 9.0751 5.66738 9.17181 5.53363C9.24159 5.634 9.5287 5.66458 9.70014 5.68461C9.54614 5.78175 9.47248 5.86812 9.38741 6.13821C9.07209 6.00661 8.70529 6.07317 8.44188 6.22867Z" fill="white"/>
</svg>
