<svg width="14" height="11" viewBox="0 0 14 11" fill="none" xmlns="http://www.w3.org/2000/svg">
<path fill-rule="evenodd" clip-rule="evenodd" d="M5.33333 0H1.33333C0.593333 0 0 0.593333 0 1.33333V9.33333C0 10.0647 0.602 10.6667 1.33333 10.6667H12C12.7313 10.6667 13.3333 10.0647 13.3333 9.33333V2.66667C13.3333 1.92667 12.7333 1.33333 12 1.33333H6.66667L5.33333 0Z" fill="#486600"/>
<path d="M12.4908 6.89457C12.413 6.89461 12.3363 6.91346 12.2674 6.94951C12.1984 6.98556 12.1392 7.03774 12.0948 7.10161L11.7387 7.03987C11.7387 7.02637 11.7387 7.01316 11.7387 6.99967C11.7388 6.84643 11.7089 6.69465 11.6508 6.55285L12.2539 6.18902C12.3436 6.25718 12.4543 6.29186 12.5668 6.2871C12.6794 6.28233 12.7868 6.23842 12.8704 6.16293C12.954 6.08744 13.0087 5.98511 13.0249 5.87363C13.0411 5.76214 13.0179 5.64848 12.9593 5.55228C12.9007 5.45608 12.8103 5.38337 12.7037 5.34671C12.5972 5.31005 12.4812 5.31173 12.3758 5.35148C12.2704 5.39122 12.1821 5.46652 12.1263 5.56439C12.0705 5.66226 12.0506 5.77654 12.0701 5.88751L11.4699 6.24961C11.2847 6.02285 11.0221 5.87268 10.7328 5.82807V5.0872C10.8585 5.04527 10.9651 4.96 11.0336 4.84665C11.1022 4.73329 11.1282 4.59924 11.1069 4.46849C11.0857 4.33773 11.0186 4.2188 10.9177 4.13297C10.8168 4.04713 10.6887 4 10.5562 4C10.4237 4 10.2956 4.04713 10.1947 4.13297C10.0938 4.2188 10.0267 4.33773 10.0055 4.46849C9.98423 4.59924 10.0102 4.73329 10.0787 4.84665C10.1473 4.96 10.2539 5.04527 10.3796 5.0872V5.82807C10.1834 5.85802 9.99793 5.93663 9.83997 6.05671C9.68202 6.1768 9.55666 6.33453 9.47534 6.51552L8.37036 6.1761C8.39069 6.01042 8.35008 5.84301 8.25609 5.70506C8.1621 5.56712 8.02115 5.46806 7.85952 5.42637C7.69789 5.38468 7.52661 5.40319 7.37763 5.47846C7.22864 5.55373 7.11211 5.68061 7.04977 5.83545C6.98743 5.99029 6.98352 6.16252 7.03879 6.32003C7.09406 6.47753 7.20473 6.60956 7.35016 6.6915C7.49558 6.77343 7.66585 6.79968 7.8292 6.76535C7.99255 6.73101 8.13784 6.63844 8.23798 6.5049L9.38057 6.8558C9.35884 7.03019 9.37641 7.20723 9.43202 7.37394C9.48762 7.54064 9.57984 7.69279 9.7019 7.81921L9.20426 8.34902C9.07647 8.29215 8.93254 8.28289 8.79852 8.32291C8.66449 8.36292 8.5492 8.44958 8.47351 8.5672C8.39781 8.68482 8.3667 8.82564 8.3858 8.9642C8.40489 9.10277 8.47294 9.22993 8.57763 9.32268C8.68233 9.41544 8.81676 9.46768 8.95661 9.46994C9.09647 9.47221 9.23252 9.42436 9.34016 9.33505C9.44781 9.24573 9.51994 9.12085 9.54352 8.98298C9.5671 8.84511 9.54057 8.70335 9.46873 8.58333L9.98159 8.03487C10.1532 8.13016 10.3459 8.18119 10.5421 8.18335C10.7384 8.18551 10.9321 8.13872 11.1058 8.04721L11.619 8.82742C11.501 8.94514 11.4299 9.10175 11.4189 9.26804C11.4079 9.43433 11.4577 9.59895 11.5591 9.7312C11.6605 9.86345 11.8066 9.9543 11.97 9.98681C12.1335 10.0193 12.3032 9.99126 12.4475 9.90788C12.5918 9.8245 12.7008 9.69148 12.7543 9.53363C12.8077 9.37578 12.8019 9.20387 12.738 9.04997C12.6741 8.89607 12.5563 8.77068 12.4067 8.69719C12.2572 8.62369 12.086 8.60711 11.9251 8.65053L11.3907 7.83788C11.5184 7.71082 11.6155 7.55635 11.6747 7.38618L12.0129 7.44361C12.026 7.53531 12.0651 7.62132 12.1257 7.6914C12.1863 7.76148 12.2657 7.81266 12.3546 7.83885C12.4434 7.86503 12.5379 7.86512 12.6268 7.8391C12.7157 7.81308 12.7952 7.76205 12.8559 7.69209C12.9166 7.62213 12.9559 7.53618 12.9692 7.44451C12.9824 7.35283 12.969 7.25929 12.9305 7.17502C12.8921 7.09076 12.8302 7.01933 12.7523 6.96925C12.6744 6.91917 12.5837 6.89254 12.4911 6.89256L12.4908 6.89457Z" fill="#B2CDE5"/>
</svg>
