<svg width="14" height="11" viewBox="0 0 14 11" fill="none" xmlns="http://www.w3.org/2000/svg">
<path fill-rule="evenodd" clip-rule="evenodd" d="M5.33333 0H1.33333C0.593333 0 0 0.593333 0 1.33333V9.33333C0 10.0647 0.602 10.6667 1.33333 10.6667H12C12.7313 10.6667 13.3333 10.0647 13.3333 9.33333V2.66667C13.3333 1.92667 12.7333 1.33333 12 1.33333H6.66667L5.33333 0Z" fill="#5C4300"/>
<path d="M11.0805 6.86913L11.518 6.43169C11.6755 6.49411 11.844 6.52422 12.0135 6.52021C12.1829 6.5162 12.3498 6.47817 12.5042 6.40836C12.5219 6.40031 12.5374 6.38808 12.5494 6.37272C12.5613 6.35737 12.5694 6.33935 12.5729 6.3202C12.5763 6.30105 12.5751 6.28135 12.5693 6.26278C12.5635 6.24421 12.5533 6.22732 12.5395 6.21356L11.7583 5.4323C11.7357 5.40974 11.7177 5.38294 11.7055 5.35344C11.6933 5.32394 11.687 5.29232 11.687 5.26039C11.687 5.22845 11.6933 5.19683 11.7055 5.16733C11.7177 5.13783 11.7357 5.11104 11.7583 5.08847L12.5386 4.30809C12.5526 4.29436 12.5629 4.27746 12.5689 4.25884C12.5749 4.24022 12.5762 4.22043 12.5729 4.20117C12.5695 4.18191 12.5616 4.16375 12.5497 4.14824C12.5377 4.13273 12.5223 4.12034 12.5045 4.11212C12.2779 4.00953 12.026 3.97633 11.7805 4.0167C11.5351 4.05707 11.3071 4.1692 11.1252 4.33895C10.9434 4.50871 10.8159 4.72849 10.7588 4.9706C10.7017 5.21271 10.7176 5.46631 10.8044 5.69943L10.357 6.14678L11.0805 6.86913Z" fill="#B2CDE5"/>
<path d="M10.2424 6.26022L9.63611 5.65393L8.91259 6.37745L9.51888 6.98374L10.2424 7.70725L12.4587 9.92359C12.4891 9.95398 12.5304 9.97104 12.5733 9.97104C12.6163 9.97104 12.6575 9.95398 12.688 9.92359L13.1823 9.42929C13.2126 9.39889 13.2297 9.35767 13.2297 9.31468C13.2297 9.2717 13.2126 9.23048 13.1823 9.20008L10.9659 6.98374L10.2424 6.26022Z" fill="#B2CDE5"/>
<path d="M12.8682 4.71517L12.2202 5.36315C12.1953 5.38803 12.1814 5.42175 12.1814 5.45691C12.1814 5.49207 12.1953 5.52579 12.2202 5.55067L12.7197 6.05022C12.7329 6.06343 12.7487 6.07372 12.7661 6.08042C12.7834 6.08711 12.8021 6.09006 12.8207 6.08907C12.8393 6.08808 12.8575 6.08317 12.874 6.07467C12.8906 6.06616 12.9052 6.05425 12.9169 6.03972C13.0583 5.86064 13.1484 5.64656 13.1777 5.42029C13.2071 5.19402 13.1745 4.96403 13.0834 4.75483C13.0747 4.73509 13.0613 4.71779 13.0444 4.70441C13.0274 4.69104 13.0075 4.68201 12.9863 4.6781C12.9651 4.67419 12.9432 4.67552 12.9226 4.68198C12.902 4.68844 12.8834 4.69983 12.8682 4.71517V4.71517Z" fill="#B2CDE5"/>
<path d="M7.90591 7.78663L8.68717 8.56789C8.70977 8.59046 8.72769 8.61725 8.73993 8.64675C8.75216 8.67625 8.75846 8.70787 8.75846 8.73981C8.75846 8.77174 8.75216 8.80336 8.73993 8.83286C8.72769 8.86236 8.70977 8.88916 8.68717 8.91172L7.90678 9.69211C7.89291 9.70594 7.8826 9.72293 7.87674 9.74162C7.87089 9.76031 7.86966 9.78015 7.87316 9.79942C7.87665 9.8187 7.88478 9.83684 7.89683 9.85228C7.90889 9.86772 7.92451 9.88 7.94236 9.88808C8.16858 9.9904 8.41999 10.0236 8.66502 9.98351C8.91004 9.94342 9.13776 9.83182 9.31957 9.66272C9.50137 9.49363 9.62916 9.27459 9.68688 9.0331C9.7446 8.79162 9.72967 8.53846 9.64398 8.30543L10.1272 7.82221L9.40369 7.09869L8.93242 7.57025C8.77423 7.50682 8.60485 7.47604 8.43446 7.47975C8.26406 7.48346 8.09618 7.52158 7.9409 7.59183C7.92321 7.59992 7.90774 7.61217 7.89582 7.62753C7.88389 7.6429 7.87587 7.66093 7.87243 7.68007C7.86899 7.69922 7.87024 7.71891 7.87607 7.73747C7.8819 7.75603 7.89214 7.7729 7.90591 7.78663V7.78663Z" fill="#B2CDE5"/>
<path d="M7.53001 7.97174C7.38863 8.15082 7.29847 8.3649 7.26915 8.59117C7.23983 8.81744 7.27243 9.04743 7.36349 9.25663C7.37222 9.27631 7.38561 9.29357 7.40252 9.3069C7.41942 9.32024 7.43932 9.32925 7.46049 9.33315C7.48166 9.33706 7.50347 9.33575 7.52402 9.32932C7.54456 9.3229 7.56324 9.31156 7.57841 9.29629L8.2264 8.6483C8.25125 8.62343 8.2652 8.5897 8.2652 8.55455C8.2652 8.51939 8.25125 8.48567 8.2264 8.46079L7.72714 7.96153C7.71402 7.9483 7.69826 7.93799 7.68088 7.93127C7.6635 7.92455 7.6449 7.92158 7.62629 7.92254C7.60768 7.9235 7.58949 7.92838 7.5729 7.93686C7.55631 7.94534 7.54169 7.95722 7.53001 7.97174V7.97174Z" fill="#B2CDE5"/>
<path d="M7.90095 6.87908C7.93819 6.91631 7.9887 6.93723 8.04137 6.93723C8.09403 6.93723 8.14454 6.91631 8.18178 6.87908L8.21911 6.84175C8.25635 6.80451 8.27727 6.754 8.27727 6.70133C8.27727 6.64867 8.25635 6.59816 8.21911 6.56091L8.14416 6.48597L8.29172 6.33841L7.59883 5.64551L7.45126 5.79307L7.37632 5.71812C7.33907 5.68089 7.28857 5.65997 7.2359 5.65997C7.18324 5.65997 7.13273 5.68089 7.09548 5.71812L7.05816 5.75545C7.02092 5.79269 7 5.8432 7 5.89587C7 5.94853 7.02092 5.99904 7.05816 6.03628L7.90095 6.87908Z" fill="#B2CDE5"/>
<path d="M8.97325 4.31273L9.65769 4.99717C10.4465 4.47225 10.8878 4.91231 10.2812 4.30602C9.86125 3.88637 9.33137 4.08468 8.97325 4.31273Z" fill="#B2CDE5"/>
<path d="M8.7624 4.33172C8.72516 4.29448 8.67465 4.27356 8.62199 4.27356C8.56932 4.27356 8.51881 4.29448 8.48157 4.33172L7.63878 5.17451C7.60154 5.21175 7.58062 5.26226 7.58062 5.31493C7.58062 5.36759 7.60154 5.4181 7.63878 5.45534L7.71372 5.53029L8.40662 6.22319L8.48157 6.29813C8.51502 6.33157 8.55931 6.35196 8.60646 6.35565C8.65361 6.35934 8.70053 6.34608 8.73878 6.31826C8.74716 6.31217 8.75506 6.30544 8.7624 6.29813L8.79827 6.26285L9.52179 5.53933L9.58012 5.481L9.60665 5.45447C9.64389 5.41722 9.66481 5.36672 9.66481 5.31405C9.66481 5.26139 9.64389 5.21088 9.60665 5.17363L9.525 5.09198L8.83793 4.40491L8.7624 4.33172Z" fill="#B2CDE5"/>
</svg>
