<svg width="14" height="11" viewBox="0 0 14 11" fill="none" xmlns="http://www.w3.org/2000/svg">
<path fill-rule="evenodd" clip-rule="evenodd" d="M5.33333 0H1.33333C0.593333 0 0 0.593333 0 1.33333V9.33333C0 10.0647 0.602 10.6667 1.33333 10.6667H12C12.7313 10.6667 13.3333 10.0647 13.3333 9.33333V2.66667C13.3333 1.92667 12.7333 1.33333 12 1.33333H6.66667L5.33333 0Z" fill="#68217A"/>
<path d="M11.1553 9.06423C10.41 9.03016 9.68524 8.80978 9.04719 8.42324C8.59938 8.17213 8.19243 7.85427 7.84034 7.48061L7.98316 7.34921C8.32223 7.70799 8.71373 8.01329 9.14431 8.25471C10.1564 8.83343 11.2547 9.02595 11.8222 8.7366C11.7822 8.65863 11.7687 8.56971 11.7838 8.48336C11.7988 8.397 11.8417 8.31794 11.9059 8.25818C11.97 8.19842 12.0519 8.16124 12.1391 8.15228C12.2263 8.14332 12.314 8.16307 12.389 8.20854C12.4639 8.25401 12.522 8.3227 12.5543 8.40418C12.5866 8.48566 12.5915 8.57547 12.5681 8.65996C12.5448 8.74444 12.4944 8.81899 12.4248 8.87227C12.3552 8.92554 12.2701 8.95463 12.1824 8.95511C12.101 8.9557 12.0214 8.9316 11.9539 8.88599C11.7073 9.01279 11.4323 9.07416 11.1553 9.06423V9.06423ZM12.1807 8.35012C12.1402 8.35068 12.1008 8.3632 12.0674 8.38611C12.034 8.40902 12.0081 8.44129 11.993 8.47886C11.9779 8.51643 11.9743 8.55764 11.9825 8.59729C11.9907 8.63694 12.0105 8.67326 12.0394 8.7017C12.0682 8.73014 12.1048 8.74942 12.1446 8.75711C12.1843 8.76481 12.2255 8.76058 12.2628 8.74495C12.3002 8.72933 12.3321 8.70301 12.3545 8.6693C12.377 8.63559 12.389 8.59599 12.389 8.5555C12.3889 8.52829 12.3835 8.50137 12.373 8.47628C12.3625 8.45119 12.3471 8.42844 12.3277 8.40934C12.3083 8.39024 12.2854 8.37517 12.2602 8.365C12.2349 8.35484 12.2079 8.34978 12.1807 8.35012V8.35012ZM7.42958 6.93046C7.1625 6.46885 7.11537 6.04067 7.30132 5.72417C7.55012 5.29742 8.16026 5.13717 8.97521 5.28399L8.94064 5.47566C8.22139 5.34569 7.67152 5.47566 7.46928 5.82215C7.3216 6.07552 7.36731 6.43457 7.59782 6.83305L7.42958 6.93046Z" fill="#B2CDE5"/>
<path d="M7.39902 8.95481C7.31166 8.95461 7.22677 8.92582 7.15732 8.87283C7.08787 8.81984 7.03768 8.74556 7.01443 8.66136C6.99117 8.57715 6.99613 8.48765 7.02855 8.40652C7.06096 8.3254 7.11905 8.25712 7.19392 8.21213C7.14222 7.4883 7.89147 6.54024 9.05062 5.87754C9.49976 5.61634 9.98623 5.42541 10.4931 5.31139L10.5334 5.50163C10.0463 5.61161 9.57884 5.7953 9.14717 6.04636C8.09028 6.65022 7.37331 7.51887 7.38645 8.15643C7.49251 8.15469 7.59492 8.19515 7.67115 8.26891C7.74738 8.34268 7.79118 8.4437 7.79292 8.54976C7.79467 8.65582 7.7542 8.75823 7.68044 8.83446C7.60668 8.91069 7.50565 8.95449 7.39959 8.95624L7.39902 8.95481ZM7.39902 8.34952C7.35852 8.35009 7.3191 8.36261 7.2857 8.38552C7.25231 8.40842 7.22643 8.44069 7.21132 8.47827C7.19621 8.51584 7.19255 8.55704 7.2008 8.59669C7.20904 8.63634 7.22882 8.67267 7.25766 8.70111C7.28649 8.72955 7.32309 8.74883 7.36285 8.75652C7.40261 8.76422 7.44375 8.75999 7.48111 8.74436C7.51848 8.72874 7.55039 8.70241 7.57283 8.6687C7.59527 8.63499 7.60725 8.5954 7.60725 8.5549C7.60722 8.5277 7.60179 8.50078 7.59127 8.47569C7.58076 8.4506 7.56538 8.42785 7.54601 8.40875C7.52664 8.38964 7.50368 8.37457 7.47845 8.36441C7.45321 8.35424 7.42622 8.34918 7.39902 8.34952V8.34952ZM11.832 7.38204L11.6843 7.2555C12.1545 6.70535 12.315 6.17005 12.1127 5.82556C11.9674 5.57619 11.638 5.43565 11.1858 5.42994L11.1884 5.23541C11.7117 5.24227 12.0996 5.41708 12.2807 5.72758C12.5301 6.15405 12.3664 6.75705 11.832 7.38204Z" fill="#B2CDE5"/>
<path d="M9.79273 10C9.29571 10 8.8501 9.55725 8.57159 8.78515L8.75441 8.71916C9.00035 9.39929 9.38854 9.80462 9.79273 9.80462C9.96585 9.78348 10.1307 9.71832 10.2714 9.61535C10.4122 9.51239 10.5242 9.37506 10.5968 9.21647L10.7631 9.31759C10.4963 9.75777 10.1518 10 9.79273 10ZM11.063 8.63861L10.8779 8.58005C11.0178 8.11701 11.0873 7.63554 11.0839 7.15182C11.0839 5.97011 10.6928 4.92379 10.1412 4.59958C10.0928 4.68364 10.0154 4.74723 9.92358 4.77848C9.83173 4.80974 9.73165 4.80655 9.64198 4.76949C9.55232 4.73243 9.47918 4.66404 9.4362 4.57705C9.39322 4.49007 9.38333 4.39043 9.40837 4.29669C9.43342 4.20296 9.49168 4.12152 9.57231 4.06756C9.65294 4.0136 9.75044 3.99079 9.84664 4.00338C9.94284 4.01598 10.0312 4.06312 10.0952 4.13602C10.1592 4.20892 10.1946 4.3026 10.1946 4.39963V4.40534C10.8353 4.7424 11.2775 5.85414 11.2775 7.1504C11.2814 7.65444 11.2091 8.15618 11.063 8.63861V8.63861ZM9.79273 4.19596C9.75224 4.19652 9.71281 4.20905 9.67942 4.23195C9.64602 4.25486 9.62014 4.28713 9.60503 4.3247C9.58993 4.36228 9.58626 4.40348 9.59451 4.44313C9.60275 4.48278 9.62253 4.51911 9.65137 4.54754C9.6802 4.57598 9.7168 4.59526 9.75656 4.60296C9.79632 4.61065 9.83747 4.60642 9.87483 4.5908C9.91219 4.57517 9.9441 4.54885 9.96654 4.51514C9.98899 4.48143 10.001 4.44184 10.001 4.40134C10.0009 4.37414 9.9955 4.34721 9.98499 4.32213C9.97447 4.29704 9.95909 4.27428 9.93972 4.25518C9.92035 4.23608 9.89739 4.22101 9.87216 4.21085C9.84693 4.20068 9.81993 4.19562 9.79273 4.19596V4.19596Z" fill="#B2CDE5"/>
<path d="M9.79274 7.52601C9.70695 7.52605 9.62372 7.49683 9.55678 7.44319C9.48984 7.38954 9.44319 7.31467 9.42454 7.23094C9.41408 7.1831 9.41319 7.13366 9.42191 7.08547C9.43064 7.03728 9.44881 6.99129 9.47538 6.95015C9.51581 6.88769 9.57379 6.83856 9.64203 6.80894C9.71028 6.77931 9.78576 6.77051 9.859 6.78363C9.93223 6.79675 9.99996 6.83121 10.0537 6.88269C10.1074 6.93417 10.1447 7.00037 10.1609 7.07298C10.1715 7.12075 10.1725 7.17015 10.1638 7.21831C10.1551 7.26646 10.137 7.31241 10.1104 7.35348C10.0835 7.3952 10.0486 7.43119 10.0078 7.45938C9.96697 7.48757 9.92096 7.5074 9.87243 7.51773V7.51773C9.84622 7.5232 9.81951 7.52597 9.79274 7.52601V7.52601Z" fill="#B2CDE5"/>
</svg>
