<svg width="14" height="11" viewBox="0 0 14 11" fill="none" xmlns="http://www.w3.org/2000/svg">
<path fill-rule="evenodd" clip-rule="evenodd" d="M5.33333 0H1.33333C0.593333 0 0 0.593333 0 1.33333V9.33333C0 10.0647 0.602 10.6667 1.33333 10.6667H12C12.7313 10.6667 13.3333 10.0647 13.3333 9.33333V2.66667C13.3333 1.92667 12.7333 1.33333 12 1.33333H6.66667L5.33333 0Z" fill="#910728"/>
<path fill-rule="evenodd" clip-rule="evenodd" d="M10.1175 3C10.0694 3.00055 10.0218 3.00899 9.9765 3.025C10.3792 3.2895 9.9065 3.6735 10.1265 4C10.1111 3.89071 10.1284 3.77931 10.1763 3.67986C10.2242 3.58041 10.3005 3.49738 10.3955 3.44125C10.4667 3.382 10.5122 3.36075 10.497 3.26275C10.473 3.10225 10.259 3 10.1175 3ZM10.6925 3.1035C10.637 3.38425 10.5675 3.3945 10.3617 3.57525C10.2814 3.63845 10.2247 3.72687 10.2008 3.82624C10.1768 3.9256 10.187 4.03014 10.2297 4.123C9.37975 3.793 8.29025 3.5935 7.4915 4.1645C7.20425 4.36975 7.02875 4.6645 6.6745 4.78475C6.4455 4.863 6.2205 4.84 6.0775 5.067C6.02502 5.13255 5.9976 5.21465 6.00017 5.29858C6.00273 5.38251 6.03511 5.46278 6.0915 5.525C6.134 5.56875 6.2165 5.59675 6.2505 5.64125C6.27025 5.66625 6.26975 5.69125 6.2885 5.7245C6.32155 5.80203 6.36945 5.87235 6.4295 5.9315C6.466 5.96175 6.5925 5.99125 6.614 6.0235C6.64075 6.06375 6.57075 6.2235 6.6295 6.2485C6.66925 6.26675 6.785 6.0625 6.79625 6.0445C6.77325 6.20525 6.743 6.4905 6.92375 6.253C7.0095 6.14025 7.01475 6.103 7.159 6.078C7.44369 6.02924 7.7354 6.04002 8.01572 6.10966C8.29604 6.1793 8.55888 6.30629 8.78766 6.48261C9.01643 6.65893 9.20618 6.88076 9.34492 7.1341C9.48366 7.38743 9.56839 7.66678 9.59375 7.9545C9.56675 7.8295 9.4035 7.6295 9.2515 7.677C9.18675 7.697 9.16275 7.80875 9.12025 7.8735C9.06659 7.95566 9.00037 8.02888 8.924 8.0905C8.93704 7.9693 8.93096 7.84681 8.906 7.7275C8.8605 7.9145 8.76925 8.22475 8.5395 8.1745C8.46296 8.16282 8.39125 8.12985 8.33255 8.07937C8.27384 8.02889 8.23051 7.96292 8.2075 7.889C8.17775 7.699 8.3785 7.47625 8.05575 7.4605C7.40825 7.42875 7.558 8.381 7.94025 8.62925C7.8524 8.63897 7.7667 8.66286 7.6865 8.7C7.92912 8.84099 8.20251 8.9206 8.48289 8.9319C8.76328 8.9432 9.04219 8.88586 9.29537 8.76486C9.54856 8.64386 9.76837 8.46286 9.93569 8.23759C10.103 8.01232 10.2128 7.7496 10.2555 7.47225C10.3445 7.87797 10.2873 8.30211 10.094 8.66975C10.0131 8.82344 9.90941 8.96402 9.7865 9.08675C9.7115 9.16175 9.563 9.24425 9.51425 9.322C9.81766 9.28188 10.1142 9.20046 10.3955 9.08C10.1043 9.47682 9.71723 9.79335 9.2705 10C9.75019 9.96604 10.2139 9.81323 10.6198 9.55534C11.0257 9.29744 11.361 8.94258 11.5955 8.52275C11.5208 8.94264 11.3548 9.34102 11.1092 9.68975C11.4395 9.46867 11.7204 9.1817 11.9345 8.84686C12.1485 8.51202 12.291 8.13654 12.353 7.744C12.4144 8.03136 12.4321 8.32637 12.4052 8.619C12.6766 8.2421 12.86 7.80913 12.9418 7.35197C13.0236 6.89481 13.0018 6.42512 12.878 5.9775C12.7833 5.62956 12.6412 5.29628 12.4557 4.987C12.384 4.86648 12.3054 4.75013 12.2205 4.6385C12.1872 4.59525 12.0095 4.437 12.0095 4.3885C12.008 4.39333 12.0067 4.39333 12.0057 4.3885C12.0057 5.205 11.1307 5.71625 10.398 5.50425C10.6817 5.48199 10.9492 5.36362 11.1565 5.16871C11.3638 4.97379 11.4984 4.714 11.538 4.43225C11.5714 4.14734 11.5056 3.85961 11.3517 3.61757C11.1977 3.37552 10.9647 3.19396 10.6925 3.1035Z" fill="#B2CDE5"/>
</svg>
