<svg width="14" height="11" viewBox="0 0 14 11" fill="none" xmlns="http://www.w3.org/2000/svg">
<path fill-rule="evenodd" clip-rule="evenodd" d="M5.33333 0H1.33333C0.593333 0 0 0.593333 0 1.33333V9.33333C0 10.0647 0.602 10.6667 1.33333 10.6667H12C12.7313 10.6667 13.3333 10.0647 13.3333 9.33333V2.66667C13.3333 1.92667 12.7333 1.33333 12 1.33333H6.66667L5.33333 0Z" fill="#007ACC"/>
<path d="M6 4.74867L9.51933 3L13.0387 4.74867V4.97967L9.51933 6.72833L6 4.985V4.74867Z" fill="#B2CDE5"/>
<path d="M6 4.74866L9.51933 6.49732L13.0387 4.74866V8.25133L9.50833 9.99999L6 8.25133V4.74866Z" fill="#4C89C3"/>
<path d="M9.51933 9.99464V6.49731L6.022 4.75964H6V8.25131L9.50833 9.99998L9.51933 9.99464Z" fill="#0057A9"/>
<path d="M8.79333 7.89399L7.60566 7.29999C7.539 7.26666 7.48466 7.30566 7.48466 7.38799V8.18532C7.48575 8.2275 7.4974 8.26873 7.51854 8.30524C7.53968 8.34175 7.56963 8.37238 7.60566 8.39432L8.799 8.98832C8.86567 9.02166 8.92 8.98266 8.92 8.90032V8.09732C8.91663 8.05579 8.90337 8.01566 8.88134 7.98029C8.8593 7.94492 8.82913 7.91533 8.79333 7.89399V7.89399ZM8.524 8.54832L7.765 8.16899C7.74669 8.15701 7.73161 8.14071 7.72109 8.12153C7.71056 8.10234 7.70492 8.08087 7.70466 8.05899C7.70466 8.01499 7.732 7.99232 7.765 8.00966L8.524 8.38899C8.54231 8.40097 8.55739 8.41727 8.56791 8.43645C8.57843 8.45563 8.58407 8.47711 8.58433 8.49899C8.586 8.54266 8.557 8.56466 8.524 8.54832ZM8.634 8.27332L7.76533 7.83332C7.74702 7.82134 7.73194 7.80505 7.72142 7.78586C7.7109 7.76668 7.70526 7.7452 7.705 7.72332C7.705 7.67932 7.73233 7.65666 7.76533 7.67399L8.634 8.11399C8.65231 8.12597 8.66739 8.14227 8.67791 8.16145C8.68843 8.18063 8.69407 8.20211 8.69433 8.22399C8.69467 8.27332 8.667 8.28999 8.634 8.27332V8.27332Z" fill="#F2F2F2"/>
</svg>
