<svg width="14" height="11" viewBox="0 0 14 11" fill="none" xmlns="http://www.w3.org/2000/svg">
<path fill-rule="evenodd" clip-rule="evenodd" d="M5.33333 0H1.33333C0.593333 0 0 0.593333 0 1.33333V9.33333C0 10.0647 0.602 10.6667 1.33333 10.6667H12C12.7313 10.6667 13.3333 10.0647 13.3333 9.33333V2.66667C13.3333 1.92667 12.7333 1.33333 12 1.33333H6.66667L5.33333 0Z" fill="#CE9947"/>
<path d="M13 6.192V6.18943L12.3057 5.63486C12.2965 5.62134 12.2884 5.6071 12.2814 5.59229C12.2371 5.50944 12.1744 5.43788 12.098 5.38314C12.0138 5.32218 11.9198 5.27617 11.82 5.24714L11.5 4.99171C11.2714 4.80971 11.0429 4.62629 10.8143 4.44486C10.798 4.43314 10.792 4.41 10.782 4.39171C10.7377 4.30887 10.6749 4.23731 10.5986 4.18257C10.4328 4.06647 10.236 4.00287 10.0337 4H9.97143C9.76874 4.00178 9.57126 4.06439 9.40457 4.17971C9.32942 4.23307 9.26706 4.30246 9.222 4.38286C9.21257 4.39971 9.206 4.41886 9.19543 4.43486C9.18347 4.44645 9.17067 4.45714 9.15714 4.46686L8.5 4.99057L8.17943 5.24771C8.08123 5.27656 7.98859 5.32177 7.90543 5.38143C7.83028 5.43479 7.76792 5.50417 7.72286 5.58457C7.71429 5.59971 7.70771 5.61686 7.69886 5.63171L7 6.18914V6.19114L8.50029 7.38914V7.39171L10 8.58971L11.4997 7.39257V7.38914L13 6.192ZM12.2309 6.47943C12.1606 6.5673 12.0714 6.6382 11.97 6.68686C11.8234 6.75694 11.6628 6.79261 11.5003 6.79114C11.3439 6.79347 11.189 6.76077 11.0469 6.69543C10.9143 6.63759 10.8028 6.54032 10.7274 6.41686C10.6855 6.34437 10.6642 6.26174 10.666 6.178C10.666 6.074 10.6631 5.96971 10.668 5.866C10.6786 5.89143 10.6806 5.92086 10.6911 5.94657C10.7371 6.06683 10.8206 6.1691 10.9291 6.23829C11.0997 6.34723 11.2982 6.4043 11.5006 6.40257C11.6982 6.40356 11.8922 6.34923 12.0606 6.24571C12.1408 6.19415 12.209 6.12594 12.2606 6.04571C12.2952 5.98975 12.3184 5.92752 12.3289 5.86257C12.3325 5.8884 12.3336 5.91453 12.332 5.94057C12.332 6.02629 12.332 6.114 12.332 6.20086C12.3288 6.30211 12.2934 6.3997 12.2309 6.47943ZM9.16829 4.66543C9.17886 4.69086 9.18086 4.72029 9.19143 4.746C9.23741 4.86625 9.32085 4.96853 9.42943 5.03771C9.59997 5.14666 9.79849 5.20373 10.0009 5.202C10.1985 5.20299 10.3925 5.14866 10.5609 5.04514C10.6411 4.99358 10.7093 4.92537 10.7609 4.84514C10.7954 4.78918 10.8187 4.72695 10.8291 4.662C10.8328 4.68783 10.8339 4.71396 10.8323 4.74C10.8323 4.82571 10.8323 4.91343 10.8323 5.00029C10.8291 5.10203 10.7933 5.20007 10.7303 5.28C10.66 5.36787 10.5709 5.43877 10.4694 5.48743C10.3228 5.55751 10.1622 5.59318 9.99971 5.59171C9.84332 5.59404 9.68839 5.56134 9.54629 5.496C9.41372 5.43816 9.30219 5.34089 9.22686 5.21743C9.18488 5.14494 9.16363 5.06231 9.16543 4.97857C9.16743 4.87343 9.16314 4.76914 9.16829 4.66543ZM8.50029 6.79114C8.34389 6.79347 8.18896 6.76077 8.04686 6.69543C7.91429 6.63759 7.80276 6.54032 7.72743 6.41686C7.68546 6.34437 7.66421 6.26174 7.666 6.178C7.666 6.074 7.66314 5.96971 7.668 5.866C7.67857 5.89143 7.68057 5.92086 7.69114 5.94657C7.73712 6.06683 7.82057 6.1691 7.92914 6.23829C8.09969 6.34723 8.2982 6.4043 8.50057 6.40257C8.69822 6.40356 8.8922 6.34923 9.06057 6.24571C9.1408 6.19415 9.20901 6.12594 9.26057 6.04571C9.29516 5.98975 9.31836 5.92752 9.32886 5.86257C9.33252 5.8884 9.33357 5.91453 9.332 5.94057C9.332 6.02629 9.332 6.114 9.332 6.20086C9.32878 6.3026 9.29303 6.40064 9.23 6.48057C9.15975 6.56844 9.07058 6.63935 8.96914 6.688C8.82273 6.75756 8.66238 6.79284 8.50029 6.79114V6.79114ZM10.7309 7.68C10.6606 7.76787 10.5714 7.83877 10.47 7.88743C10.3234 7.95751 10.1628 7.99318 10.0003 7.99171C9.84389 7.99404 9.68896 7.96134 9.54686 7.896C9.41429 7.83816 9.30276 7.74089 9.22743 7.61743C9.18546 7.54494 9.16421 7.46231 9.166 7.37857C9.166 7.27457 9.16314 7.17028 9.168 7.06657C9.17857 7.092 9.18057 7.12143 9.19114 7.14714C9.23712 7.2674 9.32057 7.36967 9.42914 7.43886C9.59969 7.5478 9.7982 7.60487 10.0006 7.60314C10.1982 7.60413 10.3922 7.5498 10.5606 7.44628C10.6408 7.39472 10.709 7.32651 10.7606 7.24628C10.7952 7.19032 10.8184 7.12809 10.8289 7.06314C10.8325 7.08897 10.8336 7.1151 10.832 7.14114C10.832 7.22686 10.832 7.31457 10.832 7.40143C10.8288 7.50268 10.7934 7.60027 10.7309 7.68V7.68Z" fill="#D5E0E9"/>
<path d="M10.47 5.48571C10.5714 5.43705 10.6606 5.36615 10.7309 5.27828C10.7939 5.19835 10.8296 5.10031 10.8329 4.99856C10.8329 4.91285 10.8329 4.82514 10.8329 4.73828C10.8344 4.71224 10.8334 4.68611 10.8297 4.66028C10.8192 4.72522 10.796 4.78746 10.7614 4.84342C10.7099 4.92365 10.6417 4.99186 10.5614 5.04342C10.3931 5.14693 10.1991 5.20127 10.0014 5.20028C10.0014 5.32971 10.0014 5.45942 10.0014 5.58885C10.1634 5.5905 10.3237 5.55523 10.47 5.48571V5.48571Z" fill="#B2CDE5"/>
<path d="M8.97 6.68572C9.07144 6.63707 9.1606 6.56616 9.23086 6.47829C9.29389 6.39836 9.32964 6.30032 9.33286 6.19858C9.33286 6.11286 9.33286 6.02515 9.33286 5.93829C9.33443 5.91225 9.33338 5.88612 9.32971 5.86029C9.31922 5.92524 9.29602 5.98747 9.26143 6.04343C9.20986 6.12366 9.14166 6.19187 9.06143 6.24343C8.89305 6.34695 8.69907 6.40128 8.50143 6.40029C8.50143 6.52972 8.50143 6.65943 8.50143 6.78886C8.66342 6.79051 8.82367 6.75524 8.97 6.68572V6.68572Z" fill="#B2CDE5"/>
<path d="M12.3297 5.86145C12.3192 5.9264 12.296 5.98863 12.2614 6.04459C12.2099 6.12482 12.1417 6.19303 12.0614 6.24459C11.8931 6.34811 11.6991 6.40244 11.5014 6.40145C11.5014 6.53088 11.5014 6.66059 11.5014 6.79002C11.6639 6.79149 11.8246 6.75582 11.9711 6.68574C12.0726 6.63708 12.1618 6.56618 12.232 6.47831C12.295 6.39837 12.3308 6.30034 12.334 6.19859C12.334 6.11288 12.334 6.02516 12.334 5.93831C12.3351 5.91261 12.3337 5.88686 12.3297 5.86145V5.86145Z" fill="#B2CDE5"/>
<path d="M10.8286 7.06201C10.8181 7.12696 10.7949 7.18919 10.7603 7.24515C10.7087 7.32538 10.6405 7.39359 10.5603 7.44515C10.3919 7.54867 10.1979 7.603 10.0003 7.60201C10.0003 7.73144 10.0003 7.86115 10.0003 7.99058C10.1628 7.99205 10.3234 7.95638 10.47 7.8863C10.5714 7.83764 10.6606 7.76674 10.7309 7.67887C10.7939 7.59894 10.8296 7.5009 10.8329 7.39915C10.8329 7.31344 10.8329 7.22573 10.8329 7.13887C10.834 7.11317 10.8325 7.08743 10.8286 7.06201V7.06201Z" fill="#B2CDE5"/>
<path d="M10.0003 8.58969L10 9.99997L13 7.6014V6.19226L10.0003 8.58969Z" fill="#B2CDE5"/>
<path d="M9.54686 5.49459C9.68897 5.55993 9.8439 5.59263 10.0003 5.5903C10.0003 5.46088 10.0003 5.33116 10.0003 5.20173C9.79792 5.20346 9.59941 5.14639 9.42886 5.03745C9.32028 4.96826 9.23684 4.86599 9.19086 4.74573C9.18029 4.72002 9.17829 4.69059 9.16772 4.66516C9.16286 4.76888 9.16772 4.87316 9.16572 4.97716C9.16392 5.0609 9.18517 5.14353 9.22714 5.21602C9.30255 5.33953 9.41419 5.4368 9.54686 5.49459V5.49459Z" fill="#B2CDE5"/>
<path d="M7.92914 6.23831C7.82056 6.16913 7.73712 6.06685 7.69114 5.9466C7.68057 5.92088 7.67857 5.89146 7.668 5.86603C7.66314 5.96974 7.668 6.07403 7.666 6.17803C7.6642 6.26177 7.68545 6.3444 7.72743 6.41688C7.80276 6.54035 7.91429 6.63762 8.04686 6.69546C8.18896 6.7608 8.34389 6.7935 8.50028 6.79117C8.50028 6.66174 8.50028 6.53203 8.50028 6.4026C8.29801 6.40428 8.09961 6.34721 7.92914 6.23831V6.23831Z" fill="#B2CDE5"/>
<path d="M10.9291 6.23831C10.8206 6.16913 10.7371 6.06685 10.6911 5.9466C10.6806 5.92088 10.6786 5.89146 10.668 5.86603C10.6631 5.96974 10.668 6.07403 10.666 6.17803C10.6642 6.26177 10.6855 6.3444 10.7274 6.41688C10.8028 6.54035 10.9143 6.63762 11.0469 6.69546C11.189 6.7608 11.3439 6.7935 11.5003 6.79117C11.5003 6.66174 11.5003 6.53203 11.5003 6.4026C11.298 6.40428 11.0996 6.34721 10.9291 6.23831V6.23831Z" fill="#B2CDE5"/>
<path d="M9.42857 7.43887C9.31999 7.36969 9.23655 7.26741 9.19057 7.14716C9.18 7.12145 9.178 7.09202 9.16743 7.06659C9.16257 7.1703 9.16743 7.27459 9.16543 7.37859C9.16363 7.46233 9.18488 7.54496 9.22685 7.61745C9.30219 7.74091 9.41372 7.83818 9.54628 7.89602C9.68839 7.96136 9.84332 7.99406 9.99971 7.99173C9.99971 7.8623 9.99971 7.73259 9.99971 7.60316C9.79744 7.60484 9.59903 7.54777 9.42857 7.43887V7.43887Z" fill="#B2CDE5"/>
<path d="M8.5 7.39173V7.38916L7 6.19116V7.60173C7.5 8.00173 8.5 8.79945 8.5 8.79945V8.8023C9 9.20288 10 10 10 10V8.58973L8.5 7.39173Z" fill="#B2CDE5"/>
</svg>
