<svg width="14" height="11" viewBox="0 0 14 11" fill="none" xmlns="http://www.w3.org/2000/svg">
<path fill-rule="evenodd" clip-rule="evenodd" d="M5.33333 0H1.33333C0.593333 0 0 0.593333 0 1.33333V9.33333C0 10.0647 0.602 10.6667 1.33333 10.6667H12C12.7313 10.6667 13.3333 10.0647 13.3333 9.33333V2.66667C13.3333 1.92667 12.7333 1.33333 12 1.33333H6.66667L5.33333 0Z" fill="#00909E"/>
<path d="M10 10C9.40666 10 8.82664 9.82405 8.33329 9.49441C7.83994 9.16476 7.45543 8.69623 7.22836 8.14805C7.0013 7.59987 6.94189 6.99667 7.05765 6.41473C7.1734 5.83279 7.45912 5.29824 7.87868 4.87868C8.29824 4.45912 8.83279 4.1734 9.41473 4.05765C9.99667 3.94189 10.5999 4.0013 11.1481 4.22836C11.6962 4.45543 12.1648 4.83994 12.4944 5.33329C12.8241 5.82664 13 6.40666 13 7C12.9991 7.79537 12.6827 8.55791 12.1203 9.12032C11.5579 9.68273 10.7954 9.99909 10 10V10ZM10 4.252C9.4565 4.252 8.9252 4.41317 8.47329 4.71512C8.02139 5.01708 7.66917 5.44626 7.46118 5.94839C7.25319 6.45052 7.19877 7.00305 7.3048 7.53611C7.41084 8.06917 7.67256 8.55882 8.05687 8.94313C8.44119 9.32744 8.93083 9.58917 9.46389 9.6952C9.99695 9.80123 10.5495 9.74681 11.0516 9.53882C11.5537 9.33083 11.9829 8.97861 12.2849 8.52671C12.5868 8.0748 12.748 7.5435 12.748 7C12.7471 6.27146 12.4573 5.57303 11.9421 5.05787C11.427 4.54272 10.7285 4.25291 10 4.252V4.252Z" fill="#B2CDE5"/>
<path d="M12.832 6.87402H7.168V7.12602H12.832V6.87402Z" fill="#B2CDE5"/>
<path d="M10.0679 5.81586C9.20705 5.81973 8.34957 5.70772 7.51857 5.48286L7.59143 5.24158C7.61521 5.24886 10.0079 5.95301 12.3972 5.24158L12.469 5.48308C11.6888 5.709 10.8801 5.82108 10.0679 5.81586V5.81586Z" fill="#B2CDE5"/>
<path d="M7.59679 8.69438L7.525 8.4531C9.98929 7.71981 12.3751 8.4231 12.475 8.4531L12.4021 8.69438C12.3786 8.6871 9.98629 7.98317 7.59679 8.69438Z" fill="#B2CDE5"/>
<path d="M9.02885 9.73511C8.2881 7.98333 8.23137 6.01742 8.86985 4.22583L9.10171 4.32462C8.48905 6.05262 8.54578 7.94742 9.26071 9.63569L9.02885 9.73511Z" fill="#B2CDE5"/>
<path d="M10.9516 9.73511L10.72 9.63569C11.4348 7.94737 11.4913 6.05257 10.8786 4.32462L11.1104 4.22583C11.7488 6.01742 11.6922 7.98327 10.9516 9.73511V9.73511Z" fill="#B2CDE5"/>
<path d="M10.1258 4.16779H9.874V9.93614H10.1258V4.16779Z" fill="#B2CDE5"/>
</svg>
