<svg width="14" height="11" viewBox="0 0 14 11" fill="none" xmlns="http://www.w3.org/2000/svg">
<path fill-rule="evenodd" clip-rule="evenodd" d="M5.33333 0H1.33333C0.593333 0 0 0.593333 0 1.33333V9.33333C0 10.0647 0.602 10.6667 1.33333 10.6667H12C12.7313 10.6667 13.3333 10.0647 13.3333 9.33333V2.66667C13.3333 1.92667 12.7333 1.33333 12 1.33333H6.66667L5.33333 0Z" fill="#007055"/>
<path d="M10.4999 6H11.7499C11.8162 5.99999 11.8798 5.97364 11.9267 5.92675L12.4267 5.42675C12.4736 5.37987 12.4999 5.31629 12.4999 5.25C12.4999 5.18371 12.4736 5.12013 12.4267 5.07325L11.9267 4.57325C11.8798 4.52636 11.8162 4.50001 11.7499 4.5H10.4999V6Z" fill="#B2CDE5"/>
<path d="M10.4999 9.5H9.99995V4.25C9.99995 4.1837 9.97361 4.12011 9.92672 4.07322C9.87984 4.02634 9.81625 4 9.74995 4C9.68364 4 9.62005 4.02634 9.57317 4.07322C9.52629 4.12011 9.49995 4.1837 9.49995 4.25V5.5H7.74995C7.68365 5.50001 7.62007 5.52636 7.5732 5.57325L7.0732 6.07325C7.02633 6.12013 7 6.18371 7 6.25C7 6.31629 7.02633 6.37987 7.0732 6.42675L7.5732 6.92675C7.62007 6.97364 7.68365 6.99999 7.74995 7H9.49995V9.5H8.99995C8.93364 9.5 8.87005 9.52634 8.82317 9.57322C8.77629 9.62011 8.74995 9.6837 8.74995 9.75C8.74995 9.8163 8.77629 9.87989 8.82317 9.92678C8.87005 9.97366 8.93364 10 8.99995 10H10.4999C10.5663 10 10.6298 9.97366 10.6767 9.92678C10.7236 9.87989 10.7499 9.8163 10.7499 9.75C10.7499 9.6837 10.7236 9.62011 10.6767 9.57322C10.6298 9.52634 10.5663 9.5 10.4999 9.5Z" fill="#B2CDE5"/>
<path d="M11.9267 6.57325C11.8798 6.52636 11.8162 6.50001 11.7499 6.5H10.4999V8H11.7499C11.8162 7.99999 11.8798 7.97364 11.9267 7.92675L12.4267 7.42675C12.4736 7.37987 12.4999 7.31629 12.4999 7.25C12.4999 7.18371 12.4736 7.12013 12.4267 7.07325L11.9267 6.57325Z" fill="#B2CDE5"/>
</svg>
