<svg width="14" height="11" viewBox="0 0 14 11" fill="none" xmlns="http://www.w3.org/2000/svg">
<path fill-rule="evenodd" clip-rule="evenodd" d="M5.33333 0H1.33333C0.593333 0 0 0.593333 0 1.33333V9.33333C0 10.0647 0.602 10.6667 1.33333 10.6667H12C12.7313 10.6667 13.3333 10.0647 13.3333 9.33333V2.66667C13.3333 1.92667 12.7333 1.33333 12 1.33333H6.66667L5.33333 0Z" fill="#003D7D"/>
<path d="M12.0956 5.81702C12.0938 6.52996 12.0902 7.2429 12.0956 7.95583C12.099 8.20224 12.0225 8.44313 11.8776 8.64242C11.6567 8.93656 11.3883 9.19179 11.0835 9.39758C10.7687 9.62091 10.4362 9.81818 10.0894 9.98746C10.078 9.99492 10.0648 9.99922 10.0511 9.9999C10.0375 10.0006 10.0239 9.99764 10.0118 9.99135C9.47215 9.73714 8.97324 9.40413 8.53146 9.00324C8.31967 8.8181 8.15451 8.58565 8.04938 8.32473C8.01647 8.23353 7.99995 8.13723 8.00057 8.04027C8.00057 7.68096 8.00057 7.32164 8.00057 6.96233C8.00057 6.57936 8.00057 6.19669 8.00057 5.81372C7.99827 5.79551 8.00299 5.7771 8.01378 5.76224C8.02458 5.74739 8.04062 5.73721 8.05866 5.73377C8.70543 5.49423 9.35169 5.25289 9.99746 5.00976C10.0129 5.00332 10.0295 5 10.0463 5C10.063 5 10.0796 5.00332 10.0951 5.00976C10.7412 5.25209 11.3877 5.49313 12.0345 5.73288C12.0535 5.73646 12.0704 5.74717 12.0817 5.76281C12.0931 5.77845 12.098 5.79785 12.0956 5.81702Z" fill="#B2CDE5"/>
</svg>
