<svg width="14" height="11" viewBox="0 0 14 11" fill="none" xmlns="http://www.w3.org/2000/svg">
<path fill-rule="evenodd" clip-rule="evenodd" d="M5.33333 0H1.33333C0.593333 0 0 0.593333 0 1.33333V9.33333C0 10.0647 0.602 10.6667 1.33333 10.6667H12C12.7313 10.6667 13.3333 10.0647 13.3333 9.33333V2.66667C13.3333 1.92667 12.7333 1.33333 12 1.33333H6.66667L5.33333 0Z" fill="#14622A"/>
<path d="M8.77042 10C8.74929 9.99991 8.72824 9.99737 8.70769 9.99242C8.63148 9.97009 8.5665 9.91984 8.52572 9.8517C8.48493 9.78355 8.47135 9.70254 8.48767 9.62482L9.30864 5.25147C9.31594 5.20968 9.33162 5.16979 9.35474 5.13422C9.37787 5.09864 9.40796 5.06812 9.4432 5.04449C9.47415 5.02416 9.50895 5.01038 9.54544 5.00402C9.58192 4.99766 9.61933 4.99885 9.65533 5.00752C9.73152 5.02991 9.79648 5.08017 9.83731 5.14828C9.87813 5.21639 9.89182 5.29737 9.87565 5.37512L9.05256 9.74877C9.04533 9.79043 9.02974 9.8302 9.00671 9.86567C8.98369 9.90114 8.95372 9.93158 8.91861 9.95515C8.87459 9.9841 8.82311 9.99968 8.77042 10Z" fill="#B2CDE5"/>
<path d="M10.4166 9.38027H10.396C10.3561 9.3767 10.3174 9.36466 10.2825 9.34496C10.2476 9.32526 10.2172 9.29835 10.1936 9.26602C10.1469 9.20236 10.1243 9.1242 10.1298 9.04545C10.1354 8.9667 10.1687 8.89247 10.2239 8.83599L11.6355 7.45619L10.2299 6.17155C10.1731 6.11668 10.1376 6.04342 10.1298 5.96483C10.122 5.88624 10.1423 5.80743 10.1872 5.74243C10.21 5.70915 10.2397 5.68112 10.2743 5.66021C10.3088 5.63931 10.3474 5.62601 10.3875 5.62121C10.4264 5.61709 10.4657 5.62137 10.5028 5.63376C10.5398 5.64615 10.5738 5.66637 10.6024 5.69304L12.2601 7.2083C12.317 7.26305 12.3527 7.33626 12.3606 7.41485C12.3686 7.49344 12.3485 7.57232 12.3037 7.63742C12.2911 7.65531 12.2767 7.67186 12.2607 7.68682L10.61 9.30027C10.5584 9.35113 10.489 9.37984 10.4166 9.38027Z" fill="#B2CDE5"/>
<path d="M7.94521 9.38115C7.87255 9.38063 7.803 9.35157 7.75156 9.30024L6.09932 7.68588C6.08429 7.67197 6.07087 7.65642 6.05932 7.63951C6.01426 7.57469 5.9938 7.49593 6.00164 7.41737C6.00947 7.33882 6.04507 7.26564 6.10205 7.211L7.76005 5.69574C7.78807 5.66906 7.82155 5.6488 7.85818 5.63634C7.89481 5.62389 7.93371 5.61954 7.97218 5.62361C8.01246 5.62832 8.05127 5.64157 8.08602 5.66248C8.12078 5.68338 8.15067 5.71146 8.17371 5.74483C8.2187 5.80982 8.23913 5.88868 8.23135 5.96733C8.22358 6.04599 8.18812 6.11933 8.13128 6.17426L6.72603 7.45768L8.13795 8.83687C8.19349 8.89314 8.22708 8.96742 8.23264 9.04628C8.23819 9.12515 8.21536 9.2034 8.16826 9.2669C8.14459 9.29933 8.11425 9.3263 8.07927 9.34601C8.0443 9.36572 8.00551 9.3777 7.96552 9.38115H7.94521Z" fill="#B2CDE5"/>
</svg>
