<svg width="14" height="11" viewBox="0 0 14 11" fill="none" xmlns="http://www.w3.org/2000/svg">
<path fill-rule="evenodd" clip-rule="evenodd" d="M5.33333 0H1.33333C0.593333 0 0 0.593333 0 1.33333V9.33333C0 10.0647 0.602 10.6667 1.33333 10.6667H12C12.7313 10.6667 13.3333 10.0647 13.3333 9.33333V2.66667C13.3333 1.92667 12.7333 1.33333 12 1.33333H6.66667L5.33333 0Z" fill="#5561BF"/>
<path d="M12.6 10C12.7051 10.0008 12.8063 9.9598 12.8813 9.88611C12.9562 9.81241 12.9989 9.71199 13 9.60686V5.59744C12.9989 5.49231 12.9562 5.39188 12.8813 5.31819C12.8063 5.24449 12.7051 5.20353 12.6 5.2043H8.70514L10.2683 10H12.6Z" fill="#D9D9D9"/>
<path d="M11.2943 8.86713L10.2754 9.99998L9.90485 8.86713H11.2943Z" fill="#4352B8"/>
<path d="M12.6208 6.86571V6.63142H11.4908V6.25256H11.1243V6.63113H10.4028V6.86542H11.838C11.7511 7.13217 11.611 7.37855 11.4263 7.5897C11.1328 7.24285 11.1317 7.12999 11.1317 7.12999H10.8286C10.8286 7.12999 10.8411 7.29885 11.2523 7.78085C11.1781 7.8576 11.0997 7.93019 11.0174 7.99827L11.1111 8.29085C11.1111 8.29085 11.2523 8.16942 11.4297 7.98142C11.6071 8.1737 11.836 8.40513 12.1323 8.68113L12.3246 8.48884C12.0071 8.20085 11.7746 7.97256 11.604 7.78913C11.849 7.5289 12.0245 7.21111 12.1143 6.86513H12.6214L12.6208 6.86571Z" fill="#617D8B"/>
<path d="M7.4 4C7.29391 4 7.19217 4.04214 7.11716 4.11716C7.04214 4.19217 7 4.29391 7 4.4V8.46856C7 8.57465 7.04214 8.67639 7.11716 8.75141C7.19217 8.82642 7.29391 8.86856 7.4 8.86856H11.2948L9.73171 4H7.4Z" fill="#4F8BF5"/>
<path opacity="0.2" d="M10.212 5.20454H12.6C12.7051 5.20378 12.8062 5.2447 12.8811 5.31833C12.9561 5.39197 12.9989 5.49231 13 5.5974V8.00282L10.212 5.20454Z" fill="white"/>
<path d="M8.08343 6.53031C8.21429 6.19317 8.34286 5.85545 8.47343 5.51831H8.85257C8.87314 5.57031 8.89286 5.6226 8.91314 5.67488C9.00886 5.92202 9.10314 6.16974 9.19886 6.41774C9.29457 6.66574 9.38714 6.90745 9.48143 7.15259L9.55771 7.35031C9.468 7.35031 9.378 7.35031 9.28829 7.35031H9.22486C9.17743 7.20593 9.13038 7.06136 9.08371 6.91659H8.24257C8.19591 7.06136 8.14895 7.20593 8.10172 7.35031C7.99086 7.35031 7.87972 7.35031 7.76886 7.35031C7.87362 7.07736 7.97838 6.8044 8.08315 6.53145M8.33629 6.67431C8.55429 6.67431 8.772 6.67431 8.99 6.67431C8.88086 6.38859 8.77286 6.1006 8.66314 5.81402C8.55343 6.1006 8.44572 6.38802 8.33657 6.67459L8.33629 6.67431Z" fill="#F2F2F2"/>
</svg>
