<svg width="14" height="11" viewBox="0 0 14 11" fill="none" xmlns="http://www.w3.org/2000/svg">
<path fill-rule="evenodd" clip-rule="evenodd" d="M5.33333 0H1.33333C0.593333 0 0 0.593333 0 1.33333V9.33333C0 10.0647 0.602 10.6667 1.33333 10.6667H12C12.7313 10.6667 13.3333 10.0647 13.3333 9.33333V2.66667C13.3333 1.92667 12.7333 1.33333 12 1.33333H6.66667L5.33333 0Z" fill="#006073"/>
<path d="M12.5455 5.90909H6V4.27273C6 4.12218 6.12218 4 6.27273 4H12.2727C12.4233 4 12.5455 4.12218 12.5455 4.27273V5.90909Z" fill="#B2CDE5"/>
<path d="M7.90909 9.99998H6.27273C6.12218 9.99998 6 9.8778 6 9.72726V6.45453H7.90909V9.99998Z" fill="#B2CDE5"/>
<path d="M12.2727 9.99998H8.45454V6.45453H12.5455V9.72726C12.5455 9.8778 12.4233 9.99998 12.2727 9.99998Z" fill="#B2CDE5"/>
</svg>
