<svg width="14" height="11" viewBox="0 0 14 11" fill="none" xmlns="http://www.w3.org/2000/svg">
<path fill-rule="evenodd" clip-rule="evenodd" d="M5.33333 0H1.33333C0.593333 0 0 0.593333 0 1.33333V9.33333C0 10.0647 0.602 10.6667 1.33333 10.6667H12C12.7313 10.6667 13.3333 10.0647 13.3333 9.33333V2.66667C13.3333 1.92667 12.7333 1.33333 12 1.33333H6.66667L5.33333 0Z" fill="#68217A"/>
<path d="M12.7915 3.74176L11.3418 3.04375C11.2599 3.00431 11.1678 2.99128 11.0782 3.00648C10.9886 3.02167 10.9059 3.06434 10.8416 3.12857L6.09568 7.45578C6.0382 7.5082 6.0039 7.5813 6.00031 7.65901C5.99673 7.73672 6.02416 7.81267 6.07657 7.87016C6.0826 7.87686 6.08897 7.88324 6.09568 7.88927L6.48357 8.24196C6.53418 8.288 6.59932 8.31485 6.66768 8.31785C6.73603 8.32086 6.80327 8.29982 6.85772 8.25839L12.5736 3.9228C12.6168 3.89001 12.6682 3.86993 12.7222 3.86483C12.7762 3.85973 12.8305 3.8698 12.8791 3.89393C12.9276 3.91805 12.9685 3.95525 12.997 4.00134C13.0255 4.04744 13.0406 4.10059 13.0406 4.1548V4.13804C13.0406 4.05523 13.0173 3.97409 12.9732 3.90398C12.9291 3.83387 12.8661 3.77764 12.7915 3.74176V3.74176Z" fill="#B2CDE5"/>
<path d="M12.7915 9.25844L11.3418 9.95645C11.2599 9.9959 11.1678 10.0089 11.0782 9.99373C10.9886 9.97853 10.9059 9.93587 10.8416 9.87163L6.09568 5.54443C6.0382 5.49201 6.0039 5.4189 6.00031 5.34119C5.99673 5.26348 6.02416 5.18753 6.07657 5.13004C6.0826 5.12334 6.08897 5.11696 6.09568 5.11093L6.48357 4.75824C6.53418 4.7122 6.59932 4.68535 6.66768 4.68235C6.73603 4.67935 6.80327 4.70039 6.85772 4.74181L12.5736 9.0774C12.6168 9.11019 12.6682 9.13027 12.7222 9.13537C12.7762 9.14048 12.8305 9.1304 12.8791 9.10628C12.9276 9.08216 12.9685 9.04495 12.997 8.99886C13.0255 8.95277 13.0406 8.89962 13.0406 8.8454V8.86216C13.0406 8.94498 13.0173 9.02611 12.9732 9.09622C12.9291 9.16633 12.8661 9.22256 12.7915 9.25844V9.25844Z" fill="#B2CDE5"/>
<path d="M11.3418 9.95677C11.26 9.9961 11.1679 10.009 11.0783 9.99377C10.9888 9.97852 10.9062 9.93583 10.842 9.87162C10.878 9.90762 10.9238 9.93213 10.9738 9.94207C11.0237 9.952 11.0755 9.9469 11.1225 9.92741C11.1696 9.90793 11.2098 9.87493 11.2381 9.8326C11.2664 9.79026 11.2815 9.74049 11.2815 9.68957V3.31057C11.2815 3.25965 11.2664 3.20988 11.2381 3.16754C11.2098 3.12521 11.1696 3.09221 11.1225 3.07273C11.0755 3.05324 11.0237 3.04814 10.9738 3.05807C10.9238 3.06801 10.878 3.09252 10.842 3.12852C10.9061 3.06422 10.9887 3.02148 11.0783 3.00622C11.1679 2.99096 11.26 3.00394 11.3418 3.04337L12.7915 3.74037C12.8661 3.77637 12.9291 3.83268 12.9731 3.90283C13.0172 3.97299 13.0406 4.05414 13.0406 4.13699V8.86416C13.0406 8.947 13.0172 9.02816 12.9731 9.09831C12.9291 9.16847 12.8661 9.22477 12.7915 9.26077L11.3418 9.95677Z" fill="#B2CDE5"/>
</svg>
